<svg xmlns="http://www.w3.org/2000/svg" width="60" height="60" viewBox="0 0 60 60">
    <g fill="none" fill-rule="evenodd">
        <path fill="#FFF" d="M30 1.935C14.525 1.935 1.935 14.525 1.935 30c0 15.474 12.59 28.065 28.065 28.065 15.474 0 28.065-12.59 28.065-28.065 0-15.475-12.59-28.065-28.065-28.065M30 60C13.458 60 0 46.543 0 30 0 13.458 13.458 0 30 0c16.543 0 30 13.458 30 30 0 16.543-13.457 30-30 30"/>
        <path fill="#FFF" d="M30.155 23.438c-4.26 0-7.726 3.468-7.726 7.729 0 4.262 3.465 7.728 7.726 7.728 4.262 0 7.729-3.466 7.729-7.728 0-4.261-3.467-7.729-7.729-7.729m0 17.393c-5.327 0-9.662-4.336-9.662-9.664 0-5.329 4.335-9.664 9.662-9.664 5.329 0 9.664 4.335 9.664 9.664 0 5.328-4.335 9.664-9.664 9.664"/>
        <path fill="#FFF" d="M44.944 17.932h-1.843a1.135 1.135 0 1 0 0 2.272h1.843c.77 0 1.394.625 1.394 1.393v19.848c0 .768-.624 1.393-1.394 1.393H21.013c-.626 0-1.136.51-1.136 1.136 0 .627.51 1.135 1.136 1.135h23.931a3.668 3.668 0 0 0 3.666-3.663v-19.85a3.669 3.669 0 0 0-3.666-3.664"/>
        <path fill="#FFF" d="M16.154 42.838h-1.843c-.77 0-1.395-.625-1.395-1.392v-19.85c0-.767.626-1.39 1.395-1.39h29.24a1.137 1.137 0 0 0 0-2.273H14.31a3.668 3.668 0 0 0-3.666 3.665v19.849a3.668 3.668 0 0 0 3.666 3.664h1.843a1.135 1.135 0 1 0 0-2.273"/>
        <path fill="#FFF" d="M15.536 19.531c.628 0 1.136-.509 1.136-1.136v-2.612c0-.13.106-.236.236-.236h1.832c.129 0 .236.106.236.236v2.612c0 .627.51 1.136 1.136 1.136.625 0 1.135-.509 1.135-1.136v-2.612a2.51 2.51 0 0 0-2.507-2.507h-1.83a2.512 2.512 0 0 0-2.51 2.507v2.612c0 .627.51 1.136 1.136 1.136"/>
        <path d="M16.91 13.275a2.51 2.51 0 0 0-2.51 2.509v2.61a1.137 1.137 0 0 0 2.272 0v-2.61c0-.13.107-.236.236-.236h1.831c.13 0 .236.105.236.236v2.61a1.137 1.137 0 0 0 2.272 0v-2.61a2.51 2.51 0 0 0-2.508-2.509h-1.83z"/>
    </g>
</svg>
