<svg xmlns="http://www.w3.org/2000/svg" width="44" height="46" viewBox="0 0 44 46">
    <g fill="none" fill-rule="evenodd">
        <path fill="#003896" fill-rule="nonzero" d="M40.993 2.936h-3.929a.736.736 0 0 0-.727.734c0 .401.33.734.727.734h1.358c-.271.46-.436.989-.436 1.566v34.696c0 .401.33.734.727.734a.736.736 0 0 0 .728-.734V5.97c0-.861.698-1.566 1.552-1.566.854 0 1.552.705 1.552 1.566v34.696c0 2.134-1.717 3.866-3.832 3.866-2.114 0-3.831-1.732-3.831-3.866V.734A.736.736 0 0 0 34.154 0H.728A.736.736 0 0 0 0 .734v39.932C0 43.602 2.367 46 5.287 46h33.426C41.623 46 44 43.612 44 40.666V5.97c0-1.673-1.348-3.034-3.007-3.034zM5.287 44.532c-2.115 0-3.832-1.732-3.832-3.866V1.468h31.972v39.198c0 1.517.63 2.897 1.649 3.866H5.286z"/>
        <path fill="#003896" fill-rule="nonzero" d="M30.276 4H4.724C4.328 4 4 4.34 4 4.75v7.5c0 .41.328.75.724.75h25.552c.396 0 .724-.34.724-.75v-7.5c0-.41-.319-.75-.724-.75zm-.724 7.5H5.448v-6h24.104v6z"/>
        <path fill="#EBC028" fill-rule="nonzero" d="M16.263 27H4.737c-.403 0-.737.288-.737.636v12.728c0 .348.334.636.737.636h11.526c.403 0 .737-.288.737-.636V27.636c0-.348-.334-.636-.737-.636z"/>
        <g fill="#003896">
            <path d="M28.798 15H15.494c-.405 0-.733.294-.733.656 0 .362.328.656.733.656h13.304c.406 0 .736.296.736.66v.057c0 .363-.33.659-.736.659H6.202c-.406 0-.737-.296-.737-.66v-.056c0-.364.33-.66.737-.66h4.987c.404 0 .732-.294.732-.656 0-.362-.328-.656-.732-.656H6.202C4.988 15 4 15.884 4 16.972v.056C4 18.116 4.988 19 6.202 19h22.596C30.012 19 31 18.116 31 17.028v-.056C31 15.885 30.012 15 28.798 15M29.534 23.028c0 .364-.33.66-.736.66H6.202c-.406 0-.737-.296-.737-.66v-.057c0-.363.33-.659.737-.659h22.596c.406 0 .736.296.736.66v.056zM28.798 21H6.202C4.988 21 4 21.884 4 22.971v.057C4 24.116 4.988 25 6.202 25h22.596C30.012 25 31 24.116 31 23.028v-.057C31 21.884 30.012 21 28.798 21zM30 31.041c0 .959-1.151.459-1.336.459h-7.327c-.186 0-1.337.5-1.337-.459v-.083c0-.958 1.151-.458 1.337-.458h7.327c.185 0 1.336-.5 1.336.458v.083zM30.021 29H19.98c-.54 0-.979.884-.979 1.971v.057c0 1.088.439 1.972.979 1.972H30.02c.54 0 .979-.884.979-1.972v-.057c0-1.087-.44-1.971-.979-1.971zM30 37.041c0 .959-1.151.459-1.336.459h-7.327c-.186 0-1.337.5-1.337-.459v-.083c0-.958 1.151-.458 1.337-.458h7.327c.185 0 1.336-.5 1.336.458v.083zM30.021 35H19.98c-.54 0-.979.884-.979 1.971v.057c0 1.088.439 1.972.979 1.972H30.02c.54 0 .979-.884.979-1.972v-.057c0-1.087-.44-1.971-.979-1.971z"/>
        </g>
    </g>
</svg>
