<svg xmlns="http://www.w3.org/2000/svg" xmlns:xlink="http://www.w3.org/1999/xlink" width="81" height="81" viewBox="0 0 81 81">
    <defs>
        <path id="a" d="M40.602 35.692l2.877 8.995a3.373 3.373 0 0 1-1.248 3.81 3.373 3.373 0 0 1-4.01.01l-7.663-5.515a.98.98 0 0 0-1.146 0l-7.664 5.516a3.415 3.415 0 0 1-2 .656c-.7 0-1.4-.222-2.01-.665a3.373 3.373 0 0 1-1.248-3.81l2.875-8.996a.98.98 0 0 0-.354-1.09L11.4 29.02a3.374 3.374 0 0 1-1.23-3.816 3.373 3.373 0 0 1 3.238-2.365l9.44-.043h.007a1.22 1.22 0 0 1 .005 2.44l-9.44.044c-.658.003-.877.52-.929.678-.051.158-.178.705.353 1.094l7.61 5.584a3.419 3.419 0 0 1 1.236 3.8l-2.876 8.997c-.2.626.223.994.358 1.092.135.098.615.387 1.15.002l7.664-5.515a3.419 3.419 0 0 1 3.998 0l7.663 5.514c.534.385 1.015.096 1.15-.002.134-.098.558-.466.357-1.093l-2.876-8.994a3.418 3.418 0 0 1 1.235-3.801l7.611-5.584c.53-.39.404-.936.353-1.094-.052-.159-.27-.675-.929-.678l-9.44-.044a3.418 3.418 0 0 1-3.233-2.35l-2.959-8.964c-.206-.625-.765-.674-.931-.674-.167 0-.726.049-.932.674l-1.334 4.04a1.22 1.22 0 1 1-2.317-.766l1.333-4.04a3.373 3.373 0 0 1 3.25-2.348c1.503 0 2.778.922 3.249 2.35l2.959 8.964a.98.98 0 0 0 .927.673l9.44.044a3.373 3.373 0 0 1 3.238 2.364 3.373 3.373 0 0 1-1.23 3.816l-7.612 5.585a.98.98 0 0 0-.354 1.09zM29.984 0c16.533 0 29.984 13.45 29.984 29.984 0 10.291-5.185 19.745-13.87 25.29a1.22 1.22 0 0 1-1.313-2.057c7.979-5.094 12.742-13.78 12.742-23.233 0-15.187-12.356-27.543-27.543-27.543S2.44 14.796 2.44 29.984c0 15.187 12.356 27.543 27.543 27.543a1.22 1.22 0 0 1 0 2.44C13.45 59.968 0 46.518 0 29.985S13.45 0 29.984 0z"/>
    </defs>
    <g fill="none" fill-rule="evenodd">
        <circle cx="40.8" cy="40.4" r="40" fill="#FFF"/>
        <g transform="translate(11 10)">
            <mask id="b" fill="#fff">
                <use xlink:href="#a"/>
            </mask>
            <use fill="#FFF" fill-rule="nonzero" xlink:href="#a"/>
            <g fill="#003896" mask="url(#b)">
                <path d="M0 0h60v60H0z"/>
            </g>
        </g>
    </g>
</svg>
