<svg xmlns="http://www.w3.org/2000/svg" width="53" height="45" viewBox="0 0 53 45">
    <g fill="none" fill-rule="evenodd">
        <path fill="#003896" d="M32.722 16.32H34.3c.62 0 1.127-.432 1.127-.958 0-.527-.507-.958-1.127-.958h-1.577c-.62 0-1.126.431-1.126.958 0 .526.507.957 1.126.957"/>
        <path fill="#003896" d="M49.97 42.79H2.63a.44.44 0 0 1-.426-.266c-.053-.053-.16-.267-.053-.533l1.33-3.142a.585.585 0 0 1 .531-.32h44.681c.213 0 .425.107.532.32l1.33 3.195c0 .213-.107.427-.16.48-.053.053-.213.266-.425.266zM17.682 21.54V36.4h-4.255V21.541c0-1.171.958-2.13 2.128-2.13 1.17 0 2.127.959 2.127 2.13zm21.277 0V36.4h-4.255V21.541c0-1.171.957-2.13 2.127-2.13s2.128.959 2.128 2.13zm-36.223-7.52L24.916 2.53c.905-.426 1.862-.426 2.713 0L49.81 14.02h-3.404c-.585 0-1.064.48-1.064 1.066 0 .106 0 .16.053.213 0 .053-.053.16-.053.213v20.834h-4.255V21.541c0-2.343-1.915-4.26-4.256-4.26-2.34 0-4.255 1.917-4.255 4.26V36.4H19.81V21.541c0-2.343-1.915-4.26-4.255-4.26s-4.256 1.917-4.256 4.26V36.4H7.044V16.151h20.798c.585 0 1.064-.48 1.064-1.065 0-.586-.479-1.065-1.064-1.065H2.736zm49.68 27.171l-1.33-3.248a2.687 2.687 0 0 0-2.446-1.598h-1.17V16.151h2.287c1.01 0 1.862-.692 2.074-1.651.213-.959-.266-2.97-1.17-3.396L28.533.612c-1.382-.692-3.031-.692-4.52 0L1.777 11.104C.874 11.53.395 13.488.608 14.5c.213 1.012 1.064 1.704 2.074 1.704h2.234V36.4H3.96c-1.064 0-2.021.64-2.447 1.598l-1.33 3.195a2.775 2.775 0 0 0 .266 2.503c.48.746 1.33 1.172 2.181 1.172h47.34c.852 0 1.703-.426 2.182-1.172.531-.692.638-1.65.265-2.503z"/>
        <path fill="#EBC028" d="M30.021 36h-8V20.257c0-1.241 1.8-2.257 4-2.257s4 1.016 4 2.257V36z"/>
        <path stroke="#003896" stroke-width="2" d="M26.521 11.872a3.5 3.5 0 1 1 0-7 3.5 3.5 0 0 1 0 7z"/>
    </g>
</svg>
