<svg xmlns="http://www.w3.org/2000/svg" width="128" height="112" viewBox="0 0 128 112">
    <g fill="none" fill-rule="evenodd">
        <circle cx="56" cy="56" r="56" fill="#EBC028" fill-opacity=".8" opacity=".686"/>
        <g fill="#003896" fill-rule="nonzero">
            <path d="M106.404 2H45.54v39.266h60.863V2zm-3.58 35.696H49.12V5.57h53.703v32.126z"/>
            <path d="M101.495 35.376V6.908H51.431v28.468h50.064zm-18.952-3.558c-2.761-2.6-6.27-4.865-9.888-6.774 6.022-1.468 16.757-3.77 25.264-3.902v10.676H82.543zm15.376-21.351v7.126c-11.724.233-26.895 4.149-30.237 5.05a106.417 106.417 0 0 0-12.675-4.625v-7.551H97.92zM55.007 21.742C59.48 23.12 69.7 26.624 76.928 31.818h-21.92V21.742zM128 73.215c0-5.942-4.799-10.775-10.7-10.775H78.067c-9.044 0-10.825-2.142-14.062-6.036-.385-.461-.783-.94-1.21-1.438-8.807-10.226-23.82-11.754-33.467-3.41-.415.357-.806.729-1.175 1.107-3.463 3.544-5.37 8.48-5.37 13.9v7.759A10.76 10.76 0 0 0 21 80.266c0 1.868.501 3.667 1.432 5.29A8.056 8.056 0 0 0 21 90.144c0 4.149 3.132 7.538 7.133 7.99v9.071c0 .993.797 1.796 1.784 1.796h3.566a1.78 1.78 0 0 0 1.69-1.227l3.175-9.548h74.101l3.16 9.547c.241.734.922 1.228 1.691 1.228h3.567c.986 0 1.783-.803 1.783-1.796V97.73a8.054 8.054 0 0 0 5.336-7.451H128V73.215zM26.35 66.564c0-4.408 1.585-8.556 4.346-11.383.3-.305.617-.607.954-.9 8.162-7.066 20.924-5.701 28.448 3.037.412.48.799.943 1.171 1.39 3.401 4.091 6.087 7.322 16.796 7.322h39.233c3.934 0 7.134 3.222 7.134 7.184v10.215a7.942 7.942 0 0 0-4.457-1.367h-77.74c.003-.018 0-.038.004-.056.097-.576.161-1.155.161-1.74 0-5.943-4.799-10.775-10.7-10.775-.435 0-.861.034-1.284.084-.13.016-.257.04-.385.06-.303.048-.601.107-.894.18-.128.033-.256.064-.383.1-.375.107-.74.231-1.097.379l-.077.028c-.406.173-.797.374-1.177.593-.017.01-.037.018-.053.029v-4.38zM25.997 76a7.485 7.485 0 0 1 1.079-1.16c.06-.052.123-.103.185-.155.33-.27.685-.499 1.052-.704.116-.063.229-.133.348-.19a6.95 6.95 0 0 1 1.08-.4c.135-.04.263-.096.402-.126a7.114 7.114 0 0 1 1.557-.183c3.934 0 7.133 3.221 7.133 7.183a6.93 6.93 0 0 1-.246 1.796h-9.562c-1.402 0-2.702.395-3.848 1.034a6.972 6.972 0 0 1-.61-2.83c0-1.437.43-2.77 1.153-3.892l.277-.373zm6.202 29.407H31.7v-7.05h2.843l-2.344 7.05zm86.884 0h-.497l-2.377-7.183h2.874v7.183zm.892-10.775h-90.95c-2.46 0-4.458-2.013-4.458-4.49 0-.896.267-1.727.718-2.428l.241-.248.45-.438c.014-.01.026-.021.039-.032l.187-.15-.004-.004c.122-.101.24-.209.368-.297.055-.038.114-.064.175-.095l.178-.095-.004-.006c.138-.075.271-.158.414-.219.091-.036.19-.06.285-.088l.179-.05-.002-.007c.12-.036.235-.083.357-.108a4.43 4.43 0 0 1 .879-.091H119.975c2.436 0 4.416 1.977 4.451 4.423-.035 2.446-2.015 4.423-4.451 4.423z"/>
        </g>
    </g>
</svg>
