<svg xmlns="http://www.w3.org/2000/svg" width="127" height="112" viewBox="0 0 127 112">
    <g fill="none" fill-rule="evenodd">
        <circle cx="56" cy="56" r="56" fill="#EBC028" fill-opacity=".8" opacity=".686"/>
        <path fill="#003896" fill-rule="nonzero" d="M124.422 55.573a2.573 2.573 0 0 0-2.579 2.566v45.728H94.177V75.162a2.573 2.573 0 0 0-2.579-2.567H71.402a2.573 2.573 0 0 0-2.578 2.567v22.761a2.573 2.573 0 0 0 2.578 2.567 2.573 2.573 0 0 0 2.578-2.567V77.729h15.04v26.138H41.157V41.042L81.5 8.857l41.309 32.956a2.586 2.586 0 0 0 3.624-.398 2.559 2.559 0 0 0-.4-3.608L83.114 3.564a2.586 2.586 0 0 0-3.225 0L36.966 37.807A2.562 2.562 0 0 0 36 39.81v66.623A2.573 2.573 0 0 0 38.578 109h85.844a2.573 2.573 0 0 0 2.578-2.567V58.14a2.572 2.572 0 0 0-2.578-2.566z"/>
    </g>
</svg>
