<svg xmlns="http://www.w3.org/2000/svg" width="24" height="20" viewBox="0 0 24 20">
    <path fill="#FFF" fill-rule="evenodd" d="M23.035 5.589A.965.965 0 0 0 24 4.624V1.86C24 .835 23.268 0 22.37 0H1.63c-.9 0-1.63.833-1.63 1.86v11.159c0 1.027.73 1.86 1.63 1.86h2.954v4.575c0 .193.084.376.23.473A.42.42 0 0 0 5.05 20a.44.44 0 0 0 .33-.155l4.354-4.966H22.37c.9 0 1.631-.833 1.631-1.86v-4.57a.965.965 0 1 0-1.93 0v3.57c0 .44-.315.799-.7.799H9.54a.432.432 0 0 0-.312.138L6.515 16.19v-2.841c-.024-.32-.223-.531-.465-.531H3.631c-1.529 0-1.7-.07-1.7-1.8V2.86c0-.441.313-.8.7-.8H21.37c.387 0 .701.359.701.8v1.764c0 .533.432.965.965.965"/>
</svg>
