<svg xmlns="http://www.w3.org/2000/svg" width="37" height="38" viewBox="0 0 37 38">
    <g fill="none" fill-rule="evenodd">
        <path fill="#FFF" fill-rule="nonzero" d="M33.864 2.426h-3.246a.608.608 0 0 0-.6.606c0 .331.272.606.6.606h1.122c-.224.38-.36.817-.36 1.294v28.662c0 .331.272.606.6.606a.608.608 0 0 0 .602-.606V4.932c0-.712.577-1.294 1.282-1.294.705 0 1.282.582 1.282 1.294v28.662c0 1.762-1.418 3.193-3.165 3.193s-3.166-1.43-3.166-3.193V.606a.608.608 0 0 0-.6-.606H.6A.608.608 0 0 0 0 .606v32.988C0 36.019 1.955 38 4.367 38h27.614c2.404 0 4.367-1.973 4.367-4.406V4.932c0-1.383-1.114-2.506-2.484-2.506zM4.367 36.787c-1.747 0-3.165-1.43-3.165-3.193V1.213h26.411v32.38a4.4 4.4 0 0 0 1.363 3.194H4.367z"/>
        <path fill="#FFF" fill-rule="nonzero" d="M25.01 3.304H3.903a.614.614 0 0 0-.599.62v6.196c0 .338.272.62.599.62H25.01c.327 0 .599-.282.599-.62V3.924a.608.608 0 0 0-.599-.62zM24.412 9.5H4.501V4.543h19.911V9.5z"/>
        <path fill="#EBC028" fill-rule="nonzero" d="M13.435 22.304H3.913c-.333 0-.609.239-.609.526v10.514c0 .287.276.526.61.526h9.52c.333 0 .61-.239.61-.526V22.83c0-.287-.277-.526-.61-.526z"/>
        <g fill="#FFF">
            <path d="M23.79 12.391H12.799c-.334 0-.605.243-.605.542 0 .3.27.542.605.542h10.99c.336 0 .609.245.609.545v.047c0 .3-.273.545-.608.545H5.123c-.335 0-.608-.245-.608-.545v-.047c0-.3.273-.545.608-.545h4.12c.334 0 .605-.242.605-.542 0-.299-.271-.542-.605-.542h-4.12c-1.003 0-1.819.73-1.819 1.629v.047c0 .898.816 1.629 1.82 1.629H23.79c1.003 0 1.819-.731 1.819-1.629v-.047c0-.898-.816-1.629-1.82-1.629M24.398 19.023c0 .3-.273.545-.608.545H5.123c-.335 0-.608-.244-.608-.545v-.047c0-.3.273-.544.608-.544H23.79c.335 0 .608.244.608.544v.047zm-.608-1.675H5.123c-1.003 0-1.819.73-1.819 1.628v.047c0 .899.816 1.63 1.82 1.63H23.79c1.003 0 1.819-.731 1.819-1.63v-.047c0-.898-.816-1.628-1.82-1.628zM24.783 25.643c0 .792-.951.379-1.104.379h-6.053c-.153 0-1.104.413-1.104-.38v-.068c0-.791.95-.378 1.104-.378h6.053c.153 0 1.104-.413 1.104.378v.069zm.017-1.686h-8.296c-.446 0-.808.73-.808 1.628v.047c0 .898.362 1.629.808 1.629H24.8c.446 0 .809-.73.809-1.629v-.047c0-.898-.363-1.628-.809-1.628zM24.783 30.6c0 .791-.951.378-1.104.378h-6.053c-.153 0-1.104.413-1.104-.379v-.068c0-.792.95-.379 1.104-.379h6.053c.153 0 1.104-.413 1.104.379v.068zm.017-1.687h-8.296c-.446 0-.808.73-.808 1.629v.047c0 .898.362 1.628.808 1.628H24.8c.446 0 .809-.73.809-1.628v-.047c0-.898-.363-1.629-.809-1.629z"/>
        </g>
    </g>
</svg>
