<svg xmlns="http://www.w3.org/2000/svg" width="129" height="112" viewBox="0 0 129 112">
    <g fill="none" fill-rule="evenodd">
        <circle cx="56" cy="56" r="56" fill="#EBC028" fill-opacity=".8" opacity=".686"/>
        <path fill="#003896" fill-rule="nonzero" d="M103 38.61c-3.546 0-6.927.72-10.01 2.02l-7.37-14.41h10.302c1.117 0 2.027.917 2.027 2.043 0 1.126-.91 2.042-2.027 2.042h-2.199a2.102 2.102 0 0 0-2.094 2.11c0 1.166.937 2.11 2.094 2.11h2.199c3.427 0 6.216-2.809 6.216-6.262 0-3.453-2.789-6.263-6.216-6.263H82.183c-.73 0-1.408.384-1.788 1.012a2.125 2.125 0 0 0-.073 2.065l3.665 7.166h-30.23l-3.05-6.022h4.823a2.102 2.102 0 0 0 2.095-2.11c0-1.166-.938-2.111-2.095-2.111H41.792a2.102 2.102 0 0 0-2.095 2.11c0 1.166.938 2.11 2.095 2.11h4.213l4.07 8.04-4.784 7.468A25.686 25.686 0 0 0 33 38.61c-14.337 0-26 11.75-26 26.195C7 79.249 18.663 91 33 91c13.63 0 24.844-10.624 25.914-24.085h6.146l-2.387 7.828h-1.375a2.102 2.102 0 0 0-2.094 2.11c0 1.165.937 2.11 2.094 2.11h7.54a2.102 2.102 0 0 0 2.095-2.11c0-1.166-.937-2.11-2.094-2.11h-1.784l2.757-9.037L87.24 38.602l2.03 3.968A26.244 26.244 0 0 0 77 64.805C77 79.249 88.665 91 103 91c14.337 0 26-11.751 26-26.195S117.336 38.61 103 38.61zm-50.723-.004l12.198 24.089h-5.56a26.236 26.236 0 0 0-10.109-18.672l3.47-5.417zm2.43 24.089H36.845l9.68-15.11c4.526 3.617 7.602 9 8.182 15.11zM33 86.779c-12.027 0-21.81-9.857-21.81-21.974S20.972 42.83 33 42.83c3.606 0 7.008.892 10.008 2.46L31.24 63.66a2.124 2.124 0 0 0-.08 2.154 2.092 2.092 0 0 0 1.84 1.1h21.707C53.65 78.046 44.32 86.78 33 86.78zM68.11 60.588L55.895 36.463h27.729L68.11 60.588zm34.89 26.191c-12.027 0-21.811-9.857-21.811-21.974A22.01 22.01 0 0 1 91.198 46.34l9.94 19.432a2.092 2.092 0 0 0 1.864 1.143c.323 0 .65-.075.958-.234a2.118 2.118 0 0 0 .902-2.843L94.92 44.4A21.547 21.547 0 0 1 103 42.83c12.027 0 21.81 9.858 21.81 21.975S115.028 86.779 103 86.779z"/>
    </g>
</svg>
