<svg xmlns="http://www.w3.org/2000/svg" width="56" height="42" viewBox="0 0 56 42">
    <g fill="none" fill-rule="evenodd">
        <path fill="#003896" d="M17.152 29.757a.8.8 0 0 0-.836.799v1.636H14.3v-3.655a.8.8 0 1 0-1.599 0v3.655H5.215v-3.655a.8.8 0 0 0-1.6 0v3.655H1.6v-4.714a7.368 7.368 0 0 1 4.147-6.62l2.412 2.766v2.738a.8.8 0 0 0 1.599 0v-2.738l2.412-2.765a7.367 7.367 0 0 1 4.147 6.62v.719a.8.8 0 0 0 1.599 0v-.72c0-3.785-2.363-7.028-5.69-8.337a5.961 5.961 0 0 0 2.695-5.048c-.034-3.287-2.78-5.956-6.068-5.899a5.97 5.97 0 0 0-5.858 5.962 5.962 5.962 0 0 0 2.696 4.985C2.362 20.45 0 23.693 0 27.48v4.347c0 1.085.88 1.965 1.965 1.965H15.95c1.085 0 1.965-.88 1.965-1.965v-1.27a.8.8 0 0 0-.763-.799m-6.611-9.464l-1.584 1.815-1.583-1.815a7.347 7.347 0 0 1 3.167 0M4.712 15.17c1.174-.43 2.043-.99 2.673-1.525.91.611 2.79 1.579 5.756 1.756a4.372 4.372 0 0 1-4.184 3.121 4.371 4.371 0 0 1-4.245-3.352m-.065-1.697a4.371 4.371 0 0 1 4.31-3.68 4.37 4.37 0 0 1 4.35 4.016c-2.424-.134-4.002-.86-4.81-1.353l.005-.008a.494.494 0 0 0-.188-.73l-.555-.269a.5.5 0 0 0-.616.15c-.342.452-1.102 1.26-2.496 1.874M40.475 18.521l.656-1.702a5.996 5.996 0 0 0 1.277 1.702h-1.933zm7.574 1.772l-1.584 1.815-1.583-1.815a7.347 7.347 0 0 1 3.167 0zm2.706-5.337a4.371 4.371 0 0 1-4.29 3.565 4.371 4.371 0 0 1-4.29-3.565h8.58zm-4.29-5.164a4.371 4.371 0 0 1 4.29 3.565h-1.802v-.607a.8.8 0 1 0-1.599 0v.607h-5.179a4.37 4.37 0 0 1 4.29-3.565zm6.209 8.73h-2.151a5.992 5.992 0 0 0 1.343-1.84l.808 1.84zm-9.42 2.337l2.412 2.765v2.738a.8.8 0 1 0 1.599 0v-2.738l2.412-2.765a7.368 7.368 0 0 1 4.147 6.62v4.713h-2.017v-3.655a.8.8 0 0 0-1.599 0v3.655h-7.485v-3.655a.8.8 0 0 0-1.599 0v3.655h-2.018v-4.714c0-1.124.254-2.19.707-3.145a.798.798 0 1 0-1.446-.68 8.898 8.898 0 0 0-.86 3.826v4.347c0 1.085.88 1.965 1.966 1.965h13.985c1.085 0 1.965-.88 1.965-1.965v-4.347c0-3.046-1.53-5.74-3.86-7.36h.926a1.72 1.72 0 0 0 1.574-2.41l-1.639-3.73a5.97 5.97 0 0 0-5.959-5.786 5.97 5.97 0 0 0-5.959 5.804l-1.46 3.785a1.72 1.72 0 0 0 1.605 2.338h.716a9.04 9.04 0 0 0-1.552 1.366.8.8 0 0 0 .28 1.277.8.8 0 0 0 .903-.205 7.402 7.402 0 0 1 2.256-1.7zM27.711 0a20.892 20.892 0 0 0-13.865 5.23.802.802 0 0 0-.055 1.156.797.797 0 0 0 1.102.052 19.3 19.3 0 0 1 12.818-4.84c4.966 0 9.638 1.85 13.241 5.224a.802.802 0 0 0 1.114-.01.797.797 0 0 0-.01-1.147C38.154 2.005 33.092 0 27.711 0M40.813 36.327a.794.794 0 0 0-1.097-.103 19.399 19.399 0 0 1-12.005 4.162c-4.69 0-9.17-1.676-12.696-4.734a.79.79 0 0 0-1.091.062l-.01.01a.794.794 0 0 0 .064 1.145 20.91 20.91 0 0 0 13.733 5.115c4.727 0 9.314-1.597 13.007-4.514a.79.79 0 0 0 .105-1.131l-.01-.012z"/>
        <path fill="#EBC028" d="M27.711 14.484a6.515 6.515 0 0 0-6.508 6.508 6.515 6.515 0 0 0 6.508 6.508 6.515 6.515 0 0 0 6.508-6.508 6.515 6.515 0 0 0-6.508-6.508"/>
    </g>
</svg>
