<svg xmlns="http://www.w3.org/2000/svg" width="37" height="42" viewBox="0 0 37 42">
    <g fill="none" fill-rule="nonzero">
        <path fill="#EBC028" d="M23.54 14.115a3.697 3.697 0 0 0-2.888 1.39l-1.62 2.033-1.618-2.034a3.69 3.69 0 0 0-6.578 2.311c0 3.687 1.838 7.125 4.886 9.173l3.31 2.209 3.311-2.21a11.052 11.052 0 0 0 4.886-9.171c.015-2.034-1.648-3.701-3.69-3.701z"/>
        <g fill="#FFF" stroke="#FFF" stroke-width=".5">
            <path d="M4.784 10.617c.597 1.015 1.907 1.363 2.896.797l6.157-2.988c.96-.478 1.921-.478 4.046-.478 2.067 0 5.24.522 5.269.522a.53.53 0 1 0 .174-1.044c-.13-.03-3.275-.537-5.443-.537-2.227 0-3.333 0-4.512.595l-6.2 2.987a1.066 1.066 0 0 1-.815.102 1.07 1.07 0 0 1-.655-.493 1.056 1.056 0 0 1-.102-.812c.073-.276.248-.508.51-.653l7.233-4.497c.015-.014 1.557-.986 5.065-.986 3.027 0 7.728 2.567 7.786 2.611.044.029 3.086.595 5.327.595a.536.536 0 1 0 0-1.074c-1.95 0-4.832-.464-4.832-.464-.204-.116-4.977-2.727-8.296-2.727-3.871 0-5.574 1.117-5.632 1.146L5.57 7.701a2.18 2.18 0 0 0-1.004 1.291 2.116 2.116 0 0 0 .218 1.625z"/>
            <path d="M32.874 15.94h3.216a.536.536 0 1 0 0-1.074h-3.216a.546.546 0 0 1-.539-.536V2.595c0-.29.248-.536.539-.536h3.216a.536.536 0 0 0 .539-.537c0-.304-.262-.522-.553-.522h-3.217c-.888 0-1.6.725-1.6 1.595V14.33c0 .884.727 1.61 1.615 1.61z"/>
            <path d="M31.535 12.734h-6.171c-.626 0-1.689-.798-2.62-1.494-1.179-.885-2.285-1.711-3.26-1.711h-3.217c-.815 0-1.222-.363-1.222-.377a.555.555 0 0 0-.379-.16.555.555 0 0 0-.378.16.542.542 0 0 0 0 .754c.073.072.728.696 1.98.696h3.216c.626 0 1.688.798 2.62 1.494 1.179.885 2.285 1.712 3.26 1.712h6.17a.536.536 0 1 0 0-1.074z"/>
            <g>
                <path d="M32.976 31.836c-.597-1.015-1.907-1.364-2.897-.798l-6.156 2.988c-.96.479-1.921.479-4.046.479-2.067 0-5.24-.522-5.269-.522a.53.53 0 1 0-.174 1.044c.13.029 3.274.537 5.443.537 2.227 0 3.333 0 4.512-.595l6.185-3.003c.248-.145.539-.174.815-.101.277.072.51.246.655.493.146.247.175.537.102.812a1.039 1.039 0 0 1-.51.653l-7.233 4.496c-.014.015-1.557.987-5.065.987-3.027 0-7.728-2.568-7.786-2.611-.044-.03-3.086-.595-5.327-.595a.536.536 0 1 0 0 1.074c1.95 0 4.832.464 4.832.464.204.116 4.978 2.727 8.296 2.727 3.871 0 5.574-1.117 5.632-1.146l7.205-4.482a2.18 2.18 0 0 0 1.004-1.291 2.089 2.089 0 0 0-.218-1.61z"/>
                <path d="M4.886 26.513H1.669a.536.536 0 1 0 0 1.073h3.217c.291 0 .538.247.538.537v11.734c0 .29-.247.537-.538.537H1.669a.536.536 0 1 0 0 1.073h3.217c.888 0 1.6-.725 1.6-1.596V28.137a1.591 1.591 0 0 0-1.6-1.624z"/>
                <path d="M6.225 29.718h6.171c.626 0 1.688.798 2.62 1.494 1.179.885 2.285 1.712 3.26 1.712h3.216c.815 0 1.223.362 1.223.377.102.101.247.16.378.16a.555.555 0 0 0 .379-.16.542.542 0 0 0 0-.754c-.073-.073-.728-.697-1.98-.697h-3.216c-.626 0-1.688-.797-2.62-1.494-1.179-.884-2.285-1.711-3.26-1.711H6.225a.536.536 0 0 0-.539.537c0 .29.248.536.539.536z"/>
            </g>
        </g>
    </g>
</svg>
