<svg xmlns="http://www.w3.org/2000/svg" width="46" height="51" viewBox="0 0 46 51">
    <g fill="none" fill-rule="nonzero">
        <path fill="#EBC028" d="M29.174 17.393a4.62 4.62 0 0 0-3.61 1.738l-2.023 2.541-2.024-2.541a4.613 4.613 0 0 0-8.222 2.89v-.001c0 4.608 2.297 8.905 6.107 11.465l4.139 2.76 4.138-2.76a13.814 13.814 0 0 0 6.108-11.465c.018-2.542-2.06-4.627-4.613-4.627z"/>
        <g fill="#003896">
            <path stroke="#003896" stroke-width=".5" d="M5.73 13.02c.746 1.27 2.383 1.705 3.62.998l7.696-3.735c1.2-.598 2.401-.598 5.058-.598 2.583 0 6.549.652 6.585.652a.662.662 0 1 0 .219-1.305c-.164-.036-4.094-.67-6.804-.67-2.784 0-4.167 0-5.64.742l-7.75 3.735c-.31.182-.673.218-1.02.127a1.337 1.337 0 0 1-.818-.616 1.32 1.32 0 0 1-.127-1.016c.09-.344.31-.634.637-.815l9.041-5.62c.019-.019 1.947-1.234 6.332-1.234 3.784 0 9.66 3.21 9.733 3.264.054.036 3.857.743 6.658.743a.67.67 0 1 0 0-1.342c-2.438 0-6.04-.58-6.04-.58-.254-.145-6.222-3.408-10.37-3.408-4.839 0-6.967 1.396-7.04 1.432L6.713 9.376a2.725 2.725 0 0 0-1.256 1.614 2.645 2.645 0 0 0 .273 2.03z"/>
            <path stroke="#003896" stroke-width=".5" d="M40.842 19.675h4.02a.67.67 0 1 0 0-1.342h-4.02a.682.682 0 0 1-.673-.67V2.993c0-.362.31-.67.673-.67h4.02a.67.67 0 0 0 .674-.671c0-.381-.328-.653-.691-.653h-4.021c-1.11 0-2.001.907-2.001 1.994v14.668c0 1.106.91 2.013 2.02 2.013z"/>
            <path d="M39.168 15.668h-7.713c-.783 0-2.11-.997-3.275-1.868-1.474-1.106-2.856-2.14-4.075-2.14h-4.02c-1.02 0-1.529-.452-1.529-.47a.694.694 0 0 0-.473-.2.694.694 0 0 0-.473.2.677.677 0 0 0 0 .942c.091.09.91.87 2.474.87h4.02c.783 0 2.111.998 3.276 1.868 1.473 1.106 2.856 2.14 4.075 2.14h7.713a.67.67 0 1 0 0-1.342z"/>
            <g stroke="#003896" stroke-width=".5">
                <path d="M40.97 38.295c-.746-1.27-2.384-1.704-3.62-.997l-7.696 3.735c-1.201.598-2.402.598-5.058.598-2.583 0-6.55-.653-6.586-.653a.662.662 0 1 0-.218 1.306c.164.036 4.093.67 6.804.67 2.784 0 4.166 0 5.64-.743l7.732-3.753c.309-.181.673-.218 1.019-.127.345.09.636.308.818.617.182.308.219.67.128 1.015-.091.344-.31.634-.637.816l-9.042 5.62c-.018.018-1.947 1.233-6.331 1.233-3.784 0-9.66-3.209-9.733-3.263-.055-.037-3.857-.744-6.659-.744a.67.67 0 1 0 0 1.342c2.438 0 6.04.58 6.04.58.255.145 6.222 3.409 10.37 3.409 4.84 0 6.968-1.396 7.04-1.433l9.006-5.602a2.725 2.725 0 0 0 1.255-1.614 2.61 2.61 0 0 0-.272-2.012z"/>
                <path d="M5.857 31.64h-4.02a.67.67 0 1 0 0 1.343h4.02c.364 0 .674.308.674.67v14.668c0 .363-.31.67-.674.67h-4.02a.67.67 0 1 0 0 1.343h4.02c1.11 0 2.002-.907 2.002-1.995V33.671a1.989 1.989 0 0 0-2.002-2.03z"/>
                <path d="M7.531 35.648h7.714c.782 0 2.11.997 3.275 1.867 1.473 1.106 2.856 2.14 4.075 2.14h4.02c1.02 0 1.529.453 1.529.471.127.127.309.2.473.2a.694.694 0 0 0 .473-.2.677.677 0 0 0 0-.943c-.091-.09-.91-.87-2.475-.87h-4.02c-.782 0-2.11-.997-3.275-1.868-1.473-1.105-2.856-2.139-4.075-2.139H7.531a.67.67 0 0 0-.673.67c0 .364.31.672.673.672z"/>
            </g>
        </g>
    </g>
</svg>
