<svg xmlns="http://www.w3.org/2000/svg" width="27" height="25" viewBox="0 0 27 25">
    <g fill="#003896" fill-rule="evenodd">
        <path d="M24.89 24.153H2.11A1.272 1.272 0 0 1 .843 22.88V6.78h20.25a.424.424 0 0 0 0-.848H.844V4.237c0-.699.57-1.27 1.265-1.27h.422v.847c0 .699.57 1.27 1.266 1.27.696 0 1.265-.571 1.265-1.27v-.848h16.875v.848c0 .699.57 1.27 1.266 1.27.696 0 1.266-.571 1.266-1.27v-.848h.422c.696 0 1.265.572 1.265 1.271v1.695h-.843a.424.424 0 0 0 0 .848h.843V22.88c0 .7-.57 1.272-1.265 1.272zM3.798.847c.232 0 .422.191.422.424v2.543c0 .233-.19.423-.422.423a.424.424 0 0 1-.422-.423V1.272c0-.234.19-.425.422-.425zm18.984.424c0-.233.19-.424.422-.424.232 0 .422.191.422.424v2.543c0 .233-.19.423-.422.423a.424.424 0 0 1-.422-.423V1.27zm2.11.848h-.422V1.27c0-.699-.57-1.271-1.266-1.271-.696 0-1.265.572-1.265 1.271v.848H5.063V1.27C5.063.572 4.492 0 3.796 0 3.1 0 2.53.572 2.53 1.271v.848H2.11C.944 2.119 0 3.067 0 4.237v18.644C0 24.051.944 25 2.11 25h22.78c1.166 0 2.11-.948 2.11-2.119V4.237c0-1.17-.944-2.118-2.11-2.118z"/>
        <path d="M23.625 6h-.75c-.206 0-.375.225-.375.5s.169.5.375.5h.75c.206 0 .375-.225.375-.5s-.169-.5-.375-.5"/>
        <path d="M23.03 6.111c-.23 0-.412.172-.412.389 0 .217.182.389.411.389h.942c.229 0 .411-.172.411-.389 0-.217-.182-.389-.411-.389h-.942zm.94.889h-.94a.513.513 0 0 1-.53-.5c0-.278.235-.5.53-.5h.94c.295 0 .53.222.53.5s-.235.5-.53.5zM4.75 8.5C3.785 8.5 3 9.285 3 10.25a.328.328 0 0 0 .656 0 1.095 1.095 0 0 1 2.188 0c0 .603-.49 1.094-1.094 1.094a.328.328 0 0 0 0 .656c.965 0 1.75-.785 1.75-1.75S5.715 8.5 4.75 8.5M10.75 11.344a1.095 1.095 0 0 1 0-2.188 1.095 1.095 0 0 1 0 2.188m0-2.844C9.785 8.5 9 9.285 9 10.25S9.785 12 10.75 12s1.75-.785 1.75-1.75-.785-1.75-1.75-1.75M16.75 9.156a1.095 1.095 0 1 1-1.094 1.094c0-.603.491-1.094 1.094-1.094m0 2.844c.965 0 1.75-.785 1.75-1.75s-.785-1.75-1.75-1.75S15 9.285 15 10.25 15.785 12 16.75 12M4.75 16.344a1.095 1.095 0 1 1 1.094-1.094c0 .603-.49 1.094-1.094 1.094m0-2.844c-.965 0-1.75.785-1.75 1.75S3.785 17 4.75 17s1.75-.785 1.75-1.75-.785-1.75-1.75-1.75M12.172 14.922a.328.328 0 0 0-.328.328 1.095 1.095 0 0 1-2.187 0c0-.603.49-1.094 1.093-1.094a.328.328 0 0 0 0-.656c-.965 0-1.75.785-1.75 1.75S9.785 17 10.75 17s1.75-.785 1.75-1.75a.328.328 0 0 0-.328-.328M16.75 16.344a1.095 1.095 0 0 1 0-2.188 1.095 1.095 0 0 1 0 2.187m0-2.843c-.965 0-1.75.785-1.75 1.75S15.785 17 16.75 17s1.75-.785 1.75-1.75-.785-1.75-1.75-1.75M4.75 21.344a1.095 1.095 0 1 1 1.094-1.094c0 .603-.49 1.094-1.094 1.094m0-2.844c-.965 0-1.75.785-1.75 1.75S3.785 22 4.75 22s1.75-.785 1.75-1.75-.785-1.75-1.75-1.75M10.75 21.344a1.095 1.095 0 0 1 0-2.188 1.095 1.095 0 0 1 0 2.188m0-2.844c-.965 0-1.75.785-1.75 1.75S9.785 22 10.75 22s1.75-.785 1.75-1.75-.785-1.75-1.75-1.75M16.75 21.344a1.095 1.095 0 0 1 0-2.188 1.095 1.095 0 0 1 0 2.187m0-2.843c-.965 0-1.75.785-1.75 1.75S15.785 22 16.75 22s1.75-.785 1.75-1.75-.785-1.75-1.75-1.75M24 20.25c0-.965-.785-1.75-1.75-1.75a.328.328 0 0 0 0 .656 1.095 1.095 0 0 1 0 2.187c-.603 0-1.094-.49-1.094-1.093a.328.328 0 0 0-.656 0c0 .965.785 1.75 1.75 1.75S24 21.215 24 20.25M22.25 14.156a1.095 1.095 0 0 1 0 2.187 1.095 1.095 0 0 1 0-2.187m0 2.844c.965 0 1.75-.785 1.75-1.75s-.785-1.75-1.75-1.75-1.75.785-1.75 1.75.785 1.75 1.75 1.75M22.25 9.156a1.095 1.095 0 0 1 0 2.187 1.095 1.095 0 0 1 0-2.187m0 2.844c.965 0 1.75-.785 1.75-1.75s-.785-1.75-1.75-1.75-1.75.785-1.75 1.75.785 1.75 1.75 1.75"/>
    </g>
</svg>
