<svg xmlns="http://www.w3.org/2000/svg" width="45" height="34" viewBox="0 0 45 34">
    <g fill="none" fill-rule="evenodd">
        <path fill="#FFF" d="M13.782 23.912a.642.642 0 0 0-.67.642v1.315H11.49v-2.937a.642.642 0 1 0-1.285 0v2.937H4.19v-2.937a.642.642 0 0 0-1.284 0v2.937H1.285V22.08a5.92 5.92 0 0 1 3.332-5.32l1.939 2.222v2.201a.642.642 0 0 0 1.284 0v-2.2l1.938-2.223a5.92 5.92 0 0 1 3.333 5.32v.578a.642.642 0 0 0 1.285 0v-.578c0-3.042-1.898-5.648-4.572-6.7a4.79 4.79 0 0 0 2.166-4.056c-.028-2.642-2.235-4.786-4.877-4.74a4.798 4.798 0 0 0-4.707 4.79c0 1.674.863 3.149 2.166 4.006C1.898 16.433 0 19.04 0 22.081v3.493c0 .872.707 1.58 1.58 1.58h11.237a1.58 1.58 0 0 0 1.579-1.58v-1.02a.642.642 0 0 0-.614-.642M8.47 16.307l-1.272 1.459-1.272-1.459a5.904 5.904 0 0 1 2.544 0m-4.683-4.118a7.016 7.016 0 0 0 2.147-1.225c.73.491 2.242 1.269 4.625 1.41a3.513 3.513 0 0 1-3.361 2.509 3.513 3.513 0 0 1-3.411-2.694m-.053-1.363a3.513 3.513 0 0 1 3.464-2.957 3.511 3.511 0 0 1 3.495 3.227c-1.948-.108-3.216-.691-3.866-1.087l.005-.007c.143-.2.07-.48-.151-.587L6.235 9.2a.402.402 0 0 0-.495.122c-.275.362-.885 1.012-2.006 1.505M32.525 14.883l.527-1.368c.259.516.607.979 1.026 1.368h-1.553zm6.085 1.424l-1.272 1.459-1.272-1.459a5.904 5.904 0 0 1 2.544 0zm2.176-4.289a3.512 3.512 0 0 1-3.448 2.865 3.513 3.513 0 0 1-3.447-2.865h6.895zm-3.448-4.15a3.513 3.513 0 0 1 3.448 2.865h-1.449v-.487a.642.642 0 1 0-1.284 0v.487H33.89a3.512 3.512 0 0 1 3.447-2.864zm4.99 7.015h-1.73a4.815 4.815 0 0 0 1.08-1.478l.65 1.478zm-7.57 1.878l1.938 2.222v2.201a.642.642 0 1 0 1.285 0v-2.2l1.938-2.223a5.92 5.92 0 0 1 3.332 5.32v3.788h-1.62V22.93a.642.642 0 0 0-1.285 0v2.938H34.33V22.93a.642.642 0 0 0-1.285 0v2.938h-1.621V22.08c0-.904.204-1.76.568-2.528a.641.641 0 1 0-1.162-.546 7.15 7.15 0 0 0-.69 3.074v3.493c0 .872.706 1.58 1.578 1.58h11.238a1.58 1.58 0 0 0 1.58-1.58v-3.493a7.194 7.194 0 0 0-3.102-5.913h.744a1.382 1.382 0 0 0 1.265-1.938l-1.317-2.997a4.797 4.797 0 0 0-4.789-4.65c-2.6 0-4.72 2.082-4.789 4.665l-1.172 3.04c-.35.906.319 1.88 1.29 1.88h.574a7.265 7.265 0 0 0-1.247 1.098.643.643 0 0 0 .226 1.026.643.643 0 0 0 .725-.165 5.948 5.948 0 0 1 1.813-1.366zM22.268 0c-4.13 0-8.06 1.488-11.142 4.203a.644.644 0 0 0-.044.929.64.64 0 0 0 .886.042 15.51 15.51 0 0 1 10.3-3.89c3.99 0 7.744 1.487 10.64 4.198a.645.645 0 0 0 .895-.008.64.64 0 0 0-.008-.921A16.737 16.737 0 0 0 22.268 0M32.796 29.191a.638.638 0 0 0-.882-.082 15.588 15.588 0 0 1-9.646 3.344c-3.77 0-7.369-1.347-10.202-3.804a.634.634 0 0 0-.877.05l-.008.008a.638.638 0 0 0 .051.92 16.802 16.802 0 0 0 11.036 4.11c3.798 0 7.484-1.283 10.452-3.627a.635.635 0 0 0 .084-.91l-.008-.009z"/>
        <path fill="#EBC028" d="M22.268 11.64a5.236 5.236 0 0 0-5.23 5.229 5.235 5.235 0 0 0 5.23 5.23 5.235 5.235 0 0 0 5.23-5.23 5.236 5.236 0 0 0-5.23-5.23"/>
    </g>
</svg>
