<svg xmlns="http://www.w3.org/2000/svg" width="48" height="57" viewBox="0 0 48 57">
    <path fill="#003896" fill-rule="nonzero" d="M47.753 52.801a2.974 2.974 0 0 1-1.564 3.919 3.01 3.01 0 0 1-3.947-1.552c-2.897-6.646-9.74-10.941-17.436-10.941-7.876 0-14.761 4.291-17.539 10.934a3.01 3.01 0 0 1-3.924 1.61 2.972 2.972 0 0 1-1.62-3.896c3.712-8.874 12.775-14.607 23.084-14.607 10.092 0 19.1 5.704 22.946 14.533zM.327 16.704a2.428 2.428 0 0 1 .907-3.33l9.053-5.162a2.47 2.47 0 0 1 3.355.901 2.428 2.428 0 0 1-.907 3.33l-9.053 5.16a2.466 2.466 0 0 1-3.355-.9zm14.048.105a4.275 4.275 0 0 1 0 6.075 4.352 4.352 0 0 1-6.123-.002 4.272 4.272 0 0 1 0-6.073 4.352 4.352 0 0 1 6.123 0zM29.089 2.221A2.451 2.451 0 0 1 31.753.01l10.401.928a2.442 2.442 0 0 1 2.227 2.646 2.449 2.449 0 0 1-2.666 2.211l-10.4-.927c-1.35-.12-2.35-1.306-2.226-2.647zM40.19 16.738a4.272 4.272 0 0 1 0 6.074 4.352 4.352 0 0 1-6.123.002 4.275 4.275 0 0 1 0-6.076 4.35 4.35 0 0 1 6.123 0z"/>
</svg>
