<svg xmlns="http://www.w3.org/2000/svg" xmlns:xlink="http://www.w3.org/1999/xlink" width="50" height="50" viewBox="0 0 50 50">
    <defs>
        <path id="a" d="M49.912 50V0H0v50z"/>
    </defs>
    <g fill="none" fill-rule="evenodd">
        <path fill="#ECC028" d="M24.442 16.16l-2.658 5.417h6.224l-2.852-5.81zM18.82 27.67l-.064 8.853s2.2 1.695 6.233 1.695c4.033 0 6.047-1.434 6.047-1.434l.13-9.05-12.345-.065z"/>
        <g>
            <mask id="b" fill="#fff">
                <use xlink:href="#a"/>
            </mask>
            <path fill="#FFF" d="M48.324 28.232l-4.22.42a.778.778 0 0 0-.693.616 18.992 18.992 0 0 1-2.388 5.78.794.794 0 0 0 .059.929l2.69 3.29-4.561 4.57-3.285-2.694a.79.79 0 0 0-.926-.059 18.575 18.575 0 0 1-5.77 2.393.799.799 0 0 0-.614.693l-.42 4.228h-6.442l-.419-4.228a.778.778 0 0 0-.614-.693 18.915 18.915 0 0 1-5.77-2.393.79.79 0 0 0-.926.059l-3.284 2.695-4.562-4.57 2.69-3.291a.794.794 0 0 0 .059-.928 18.652 18.652 0 0 1-2.388-5.781.798.798 0 0 0-.692-.616l-4.22-.42v-6.455l4.22-.42a.778.778 0 0 0 .692-.615 18.988 18.988 0 0 1 2.388-5.781.794.794 0 0 0-.059-.928l-2.69-3.29 4.562-4.571 3.284 2.695a.79.79 0 0 0 .926.059 18.577 18.577 0 0 1 5.77-2.393.81.81 0 0 0 .614-.693l.42-4.229h6.442l.419 4.229c.03.342.283.625.614.693A18.915 18.915 0 0 1 35 8.926a.79.79 0 0 0 .926-.059l3.285-2.695 4.56 4.57-2.69 3.291a.794.794 0 0 0-.058.928 18.65 18.65 0 0 1 2.388 5.781.81.81 0 0 0 .692.615l4.22.42v6.455zm.867-7.978l-4.376-.44A20.341 20.341 0 0 0 42.65 14.6l2.788-3.418a.795.795 0 0 0-.05-1.065l-5.574-5.586a.793.793 0 0 0-1.072-.049L35.33 7.275a20.404 20.404 0 0 0-5.204-2.168L29.688.723a.795.795 0 0 0-.79-.723h-7.884c-.41 0-.75.313-.79.723l-.438 4.384a20.259 20.259 0 0 0-5.205 2.168L11.17 4.482a.804.804 0 0 0-1.073.05l-5.575 5.585a.785.785 0 0 0-.048 1.065L7.26 14.6a20.484 20.484 0 0 0-2.164 5.214l-4.376.44a.795.795 0 0 0-.721.79v7.901c0 .41.312.752.721.791l4.376.44a20.338 20.338 0 0 0 2.164 5.215l-2.787 3.418a.808.808 0 0 0 .048 1.074l5.575 5.586a.793.793 0 0 0 1.073.049l3.41-2.793a20.4 20.4 0 0 0 5.206 2.168l.438 4.384c.04.41.38.723.79.723h7.885c.409 0 .75-.313.79-.723l.438-4.384a20.255 20.255 0 0 0 5.204-2.168l3.412 2.793a.804.804 0 0 0 1.072-.05l5.575-5.585a.797.797 0 0 0 .049-1.074L42.65 35.39a20.484 20.484 0 0 0 2.164-5.215l4.376-.44c.41-.039.721-.38.721-.79v-7.901a.795.795 0 0 0-.721-.791z" mask="url(#b)"/>
        </g>
        <path fill="#FFF" d="M20.185 24.555a.795.795 0 0 0-1.143.313l-1.167 2.339s0 .01-.01.01l-.029.058c0 .01-.01.02-.01.02-.01.02-.01.039-.019.058 0 .01 0 .02-.01.02-.01.02-.01.04-.01.068v.02c0 .03-.01.058-.01.088v7.812A12.602 12.602 0 0 1 12.36 25c.02-6.953 5.662-12.607 12.602-12.607 2.868 0 5.514.965 7.632 2.59a.795.795 0 0 0 .973-1.258 14.086 14.086 0 0 0-8.834-2.922C16.966 10.926 10.79 17.218 10.79 25c0 7.84 6.367 14.212 14.194 14.2 7.693-.013 14.018-6.252 14.146-13.959a14.155 14.155 0 0 0-3.311-9.358.793.793 0 0 0-1.116-.1.798.798 0 0 0-.097 1.127A12.566 12.566 0 0 1 37.544 25c0 4.287-2.144 8.076-5.42 10.361V27.55c0-.03 0-.059-.009-.088v-.02c0-.02-.01-.048-.01-.068 0-.01 0-.02-.01-.02-.01-.019-.01-.039-.019-.058 0-.01-.01-.02-.01-.02l-.029-.058s0-.01-.01-.01l-6.364-12.754a.79.79 0 0 0-.712-.44.789.789 0 0 0-.711.44l-4.107 8.23a.795.795 0 1 0 1.423.713l.715-1.433h5.38l2.388 4.785H19.883l.582-1.167a.798.798 0 0 0-.28-1.026zm-.79 3.785h11.141v7.959a12.47 12.47 0 0 1-4.776 1.28v-6.847c0-.439-.36-.8-.799-.8-.439 0-.8.361-.8.8v6.846a12.518 12.518 0 0 1-4.775-1.28l.01-7.958zm3.675-7.969l1.891-3.799 1.89 3.8h-3.78z"/>
    </g>
</svg>
