<svg xmlns="http://www.w3.org/2000/svg" width="40" height="34" viewBox="0 0 40 34">
    <g fill="none" fill-rule="evenodd">
        <path fill="#FFF" d="M24.696 12.316h1.19c.468 0 .85-.325.85-.722 0-.398-.382-.723-.85-.723h-1.19c-.467 0-.85.325-.85.723 0 .397.383.722.85.722"/>
        <path fill="#FFF" d="M37.713 32.294H1.984c-.2 0-.28-.12-.32-.2-.041-.04-.121-.202-.041-.403l1.004-2.37c.08-.162.24-.242.401-.242H36.75c.161 0 .322.08.402.241l1.004 2.412c0 .16-.08.321-.12.361-.041.04-.162.201-.322.201zM13.345 16.258V27.47h-3.211V16.258c0-.885.722-1.608 1.605-1.608.884 0 1.606.723 1.606 1.608zm16.058 0V27.47h-3.212V16.258c0-.885.723-1.608 1.606-1.608.883 0 1.606.723 1.606 1.608zM2.065 10.582l16.74-8.673c.682-.321 1.405-.321 2.047 0l16.74 8.673h-2.569a.806.806 0 0 0-.803.803c0 .08 0 .121.04.161 0 .04-.04.12-.04.161v15.724H31.01V16.258a3.223 3.223 0 0 0-3.212-3.216 3.223 3.223 0 0 0-3.211 3.216V27.47H14.95V16.258a3.223 3.223 0 0 0-3.212-3.216 3.223 3.223 0 0 0-3.211 3.216V27.47H5.316V12.19h15.697a.806.806 0 0 0 .803-.804.806.806 0 0 0-.803-.803H2.065zM39.56 31.089l-1.004-2.452a2.028 2.028 0 0 0-1.847-1.206h-.883V12.19h1.726c.763 0 1.405-.522 1.566-1.246.16-.723-.2-2.241-.883-2.563L21.535.462c-1.044-.522-2.289-.522-3.413 0L1.342 8.38c-.682.322-1.044 1.8-.883 2.563a1.59 1.59 0 0 0 1.565 1.287h1.687V27.47h-.723c-.803 0-1.526.483-1.847 1.206L.138 31.089c-.241.643-.16 1.326.2 1.889a1.969 1.969 0 0 0 1.646.884h35.729c.642 0 1.285-.322 1.646-.884.401-.523.482-1.246.2-1.89z"/>
        <path fill="#EBC028" d="M22.658 27.17H16.62V15.288c0-.937 1.358-1.703 3.019-1.703 1.66 0 3.019.766 3.019 1.703V27.17z"/>
        <path stroke="#FFF" stroke-width="2" d="M20.016 8.96a2.642 2.642 0 1 1 0-5.283 2.642 2.642 0 0 1 0 5.283z"/>
    </g>
</svg>
