<svg xmlns="http://www.w3.org/2000/svg" width="100" height="100" viewBox="0 0 100 100">
    <g fill="#003896" fill-rule="nonzero">
        <path d="M49.685 0c-17.837 0-32.35 14.512-32.35 32.35 0 15.95 11.065 36.86 20.347 51.59a2.034 2.034 0 1 0 3.442-2.167c-16.299-25.869-19.72-41.155-19.72-49.424 0-15.594 12.687-28.281 28.281-28.281 15.595 0 28.282 12.687 28.282 28.281 0 25.325-29.592 63.934-29.891 64.32a2.034 2.034 0 0 0 3.22 2.487c1.255-1.624 30.739-40.094 30.739-66.807C82.035 14.512 67.523 0 49.685 0z"/>
        <path d="M49.685 22.034a2.034 2.034 0 0 0 0-4.068c-7.93 0-14.383 6.452-14.383 14.383 0 7.931 6.452 14.383 14.383 14.383 7.93 0 14.383-6.452 14.383-14.383 0-3.167-1.01-6.172-2.92-8.69a2.034 2.034 0 0 0-3.24 2.46A10.22 10.22 0 0 1 60 32.349c0 5.688-4.627 10.315-10.315 10.315S39.37 38.037 39.37 32.35s4.628-10.315 10.315-10.315z"/>
    </g>
</svg>
