<svg xmlns="http://www.w3.org/2000/svg" width="60" height="60" viewBox="0 0 60 60">
    <g fill="#FFF" fill-rule="evenodd">
        <path d="M30 1.935C14.526 1.935 1.935 14.525 1.935 30c0 15.475 12.59 28.065 28.065 28.065 15.474 0 28.065-12.59 28.065-28.065 0-15.475-12.59-28.065-28.065-28.065M30 60C13.457 60 0 46.542 0 30S13.457 0 30 0s30 13.458 30 30-13.457 30-30 30"/>
        <path d="M23.605 44c-.417 0-.812-.1-1.175-.301-.534-.298-1.43-1.085-1.43-3.012V20.312c0-1.427.508-2.497 1.433-3.012.53-.297 1.66-.639 3.217.41l8.188 5.513c.44.295.561.9.275 1.354a.933.933 0 0 1-1.315.283l-8.187-5.512c-.527-.353-1.003-.476-1.274-.325-.269.148-.436.643-.436 1.29v20.374c0 .646.166 1.142.434 1.29.265.151.757.022 1.28-.329l14.593-9.824c.575-.387.891-.858.891-1.327 0-.464-.314-.932-.883-1.316l-1.57-1.058a.997.997 0 0 1-.277-1.353.934.934 0 0 1 1.316-.284l1.57 1.057c1.11.746 1.745 1.823 1.745 2.954 0 1.135-.639 2.215-1.753 2.965l-14.594 9.825c-.702.473-1.4.713-2.048.713"/>
    </g>
</svg>
