<?xml version="1.0" encoding="utf-8"?>
<!-- Generator: Adobe Illustrator 21.0.2, SVG Export Plug-In . SVG Version: 6.00 Build 0)  -->
<svg version="1.1" id="Livello_1" xmlns="http://www.w3.org/2000/svg" xmlns:xlink="http://www.w3.org/1999/xlink" x="0px" y="0px"
	 viewBox="0 0 100.5 102.5" style="enable-background:new 0 0 100.5 102.5;" xml:space="preserve">
<style type="text/css">
	.st0{filter:url(#a);}
	.st1{display:none;}
	.st2{display:inline;fill:#FFFFFF;}
	.st3{display:none;fill:none;stroke:#E2E3E5;}
	.st4{fill:#FFFFFF;}
	.st5{fill:#003896;}
</style>
<filter  filterUnits="objectBoundingBox" height="188.9%" id="a" width="188.9%" x="-44.4%" y="-25.6%">
	<feOffset  dy="4" in="SourceAlpha" result="shadowOffsetOuter1"></feOffset>
	<feGaussianBlur  in="shadowOffsetOuter1" result="shadowBlurOuter1" stdDeviation="2"></feGaussianBlur>
	<feColorMatrix  in="shadowBlurOuter1" result="shadowMatrixOuter1" values="0 0 0 0 0 0 0 0 0 0 0 0 0 0 0 0 0 0 0.3 0">
		</feColorMatrix>
	<feMerge>
		<feMergeNode  in="shadowMatrixOuter1"></feMergeNode>
		<feMergeNode  in="SourceGraphic"></feMergeNode>
	</feMerge>
</filter>
<g transform="translate(31 18)" class="st0">
	<g class="st1">
		
			<image style="display:inline;overflow:visible;" width="199" height="199" xlink:href="E508034C829E2A55.png"  transform="matrix(1 0 0 1 -80.04 -54.88)">
		</image>
	</g>
	<g class="st1">
		<path id="c_2_" class="st2" d="M19.5-13.4L19.5-13.4c24.9,0,45,20.1,45,45l0,0c0,24.9-20.1,45-45,45l0,0c-24.9,0-45-20.1-45-45
			l0,0C-25.5,6.8-5.4-13.4,19.5-13.4z"/>
	</g>
	<path class="st3" d="M19.5-12.9L19.5-12.9C44.1-12.9,64,7,64,31.6l0,0c0,24.6-19.9,44.5-44.5,44.5l0,0C-5.1,76.1-25,56.2-25,31.6
		l0,0C-25,7-5.1-12.9,19.5-12.9z"/>
	<g>
		<circle class="st4" cx="19.5" cy="31.6" r="45"/>
		<g>
			<path id="d_1_" class="st5" d="M51.4-0.2c-17.6-17.6-46.1-17.6-63.7,0c-6.1,6.1-10.4,13.9-12.2,22.4c-1.8,8.2-1.2,16.8,1.7,24.7
				c0.4,0.9,1.4,1.4,2.4,1.1c0.9-0.4,1.4-1.4,1.1-2.3c-2.6-7.3-3.2-15.2-1.5-22.7C-19.3,15.1-15.4,8-9.7,2.4
				c16.1-16.1,42.4-16.1,58.5,0c7.7,7.7,12,17.9,12.1,28.7C61,42,57,52.3,49.5,60.1c-0.1,0.1-0.2,0.2-0.3,0.3
				c-0.2,0.2-0.3,0.3-0.5,0.5C32.6,77,6.4,77-9.7,60.9c-0.1-0.1-0.2-0.2-0.3-0.3c0-0.2,0-0.3,0-0.5c0-0.4,0-0.7,0-1.1
				c0-0.1,0-0.2,0-0.4c0-0.2,0-0.5,0-0.7c0-0.1,0-0.3,0-0.4c0-0.2,0-0.4,0.1-0.7c0-0.2,0-0.3,0.1-0.5c0-0.2,0.1-0.4,0.1-0.6
				c0-0.2,0.1-0.3,0.1-0.5c0-0.2,0.1-0.4,0.1-0.6c0-0.2,0.1-0.3,0.1-0.5c0-0.2,0.1-0.4,0.1-0.6c0-0.2,0.1-0.3,0.1-0.5
				c0-0.2,0.1-0.4,0.1-0.6c0-0.2,0.1-0.3,0.1-0.5c0.1-0.2,0.1-0.4,0.2-0.6c0-0.2,0.1-0.3,0.1-0.5c0.1-0.2,0.1-0.4,0.2-0.5
				c0.1-0.2,0.1-0.3,0.2-0.5c0.1-0.2,0.1-0.4,0.2-0.5c0.2-0.5,0.4-1,0.6-1.4c0.6-1.3,1.2-2.5,2-3.7c0.5-0.8,1-1.5,1.5-2.2
				c0.1-0.1,0.2-0.3,0.3-0.4c0.1-0.2,0.2-0.3,0.4-0.5c0.1-0.1,0.2-0.2,0.3-0.4c0.1-0.1,0.3-0.3,0.4-0.4c0.1-0.1,0.2-0.2,0.3-0.4
				c0.1-0.1,0.3-0.3,0.4-0.4l0.3-0.3c0.1-0.1,0.3-0.3,0.4-0.4c0.1-0.1,0.2-0.2,0.3-0.3c0.1-0.1,0.3-0.3,0.4-0.4
				c0.1-0.1,0.2-0.2,0.3-0.3c0.2-0.1,0.3-0.3,0.5-0.4c0.1-0.1,0.2-0.2,0.3-0.3C1,37.1,1.1,37,1.3,36.9c0.1-0.1,0.2-0.2,0.3-0.3
				c0.2-0.1,0.4-0.3,0.5-0.4c0.1-0.1,0.2-0.2,0.3-0.2c0.2-0.1,0.4-0.3,0.6-0.4c0.1-0.1,0.2-0.1,0.3-0.2c0.3-0.2,0.5-0.3,0.8-0.5
				c0.3-0.2,0.7-0.4,1.1-0.6c0.1-0.1,0.2-0.1,0.3-0.2C5.8,34,6,33.9,6.2,33.8c0.1-0.1,0.3-0.1,0.4-0.2c0.2-0.1,0.3-0.2,0.5-0.3
				c3.3,3.2,7.7,5,12.3,5c4.6,0,9-1.8,12.3-5c6.5,3,11.8,8.4,14.7,14.9c0.4,0.9,1.5,1.3,2.4,0.9c0.9-0.4,1.3-1.5,0.9-2.4
				c-3.1-7.1-8.6-12.9-15.6-16.3c2-3,3.1-6.5,3.1-10c0-9.9-8-17.9-17.9-17.9c-1,0-1.8,0.9-1.8,1.9c0,1,0.8,1.8,1.8,1.8
				c7.8,0,14.2,6.4,14.2,14.2c0,3.5-1.3,6.9-3.7,9.5c-2.7,3-6.5,4.7-10.6,4.7c-4,0-7.9-1.7-10.6-4.7c-2.4-2.6-3.7-6-3.7-9.5
				c0-3.8,1.5-7.4,4.2-10.1c0.7-0.7,0.7-1.9,0-2.6s-1.9-0.7-2.6,0C3.5,11,1.6,15.6,1.6,20.4c0,3.6,1.1,7.1,3.1,10
				c-0.2,0.1-0.3,0.2-0.5,0.2C4,30.8,3.8,30.9,3.6,31c-0.2,0.1-0.3,0.2-0.5,0.3c-0.2,0.1-0.4,0.2-0.6,0.3c-0.2,0.1-0.3,0.2-0.5,0.3
				c-0.2,0.1-0.4,0.2-0.6,0.4c-0.2,0.1-0.3,0.2-0.5,0.3c-0.2,0.1-0.4,0.2-0.5,0.4c-0.8,0.6-1.6,1.2-2.3,1.8c-0.8,0.6-1.5,1.3-2.2,2
				c-0.1,0.1-0.3,0.3-0.4,0.4c-0.1,0.2-0.3,0.3-0.4,0.5c-0.1,0.1-0.2,0.3-0.4,0.4c-0.1,0.2-0.3,0.3-0.4,0.5
				c-0.1,0.1-0.2,0.3-0.3,0.4c-0.1,0.2-0.3,0.3-0.4,0.5c-0.1,0.1-0.2,0.3-0.3,0.4c-0.1,0.2-0.3,0.4-0.4,0.6
				c-0.1,0.1-0.2,0.2-0.3,0.4c-0.2,0.2-0.4,0.5-0.5,0.8c-0.4,0.5-0.6,0.8-0.8,1.2c-0.1,0.1-0.1,0.2-0.2,0.3
				c-0.1,0.2-0.3,0.4-0.4,0.7c-0.1,0.1-0.2,0.3-0.2,0.4c-0.1,0.2-0.2,0.4-0.3,0.6c-0.1,0.2-0.2,0.3-0.2,0.5
				c-0.1,0.2-0.2,0.4-0.3,0.6c-0.1,0.2-0.1,0.3-0.2,0.5c-0.1,0.2-0.2,0.4-0.3,0.6c-0.1,0.2-0.1,0.3-0.2,0.5
				c-0.2,0.4-0.3,0.7-0.4,1.1c-0.1,0.4-0.3,0.7-0.4,1.1c-0.2,0.6-0.4,1.2-0.5,1.7c-0.2,0.6-0.3,1.1-0.4,1.7c0,0.2-0.1,0.4-0.1,0.6
				c0,0.2-0.1,0.4-0.1,0.5c0,0.2-0.1,0.4-0.1,0.7c0,0.2-0.1,0.3-0.1,0.5c0,0.2-0.1,0.5-0.1,0.7c0,0.2,0,0.3-0.1,0.5
				c0,0.2,0,0.5-0.1,0.7c0,0.2,0,0.3,0,0.5c0,0.3,0,0.5,0,0.8c0,0.1,0,0.3,0,0.4c0,0.4,0,0.8,0,1.2c0,0.4,0,0.9,0,1.3
				c0,0.3,0.1,0.6,0.3,0.9c0.1,0.1,0.1,0.2,0.2,0.3l0.3,0.3c0.2,0.2,0.4,0.4,0.6,0.6C-3.5,72.2,8,76.6,19.5,76.6
				c11.5,0,23.1-4.4,31.8-13.2c0.2-0.2,0.4-0.4,0.6-0.6l0.2-0.3c8.1-8.5,12.5-19.7,12.4-31.5C64.4,19.3,59.7,8.2,51.4-0.2z"/>
		</g>
	</g>
</g>
</svg>
