<?xml version="1.0" encoding="utf-8"?>
<!-- Generator: Adobe Illustrator 21.0.2, SVG Export Plug-In . SVG Version: 6.00 Build 0)  -->
<svg version="1.1" id="Livello_1" xmlns="http://www.w3.org/2000/svg" xmlns:xlink="http://www.w3.org/1999/xlink" x="0px" y="0px"
	 viewBox="0 0 30 30" style="enable-background:new 0 0 30 30;" xml:space="preserve">
<style type="text/css">
	.st0{fill:#FFFFFF;}
</style>
<g>
	<g>
		<path class="st0" d="M15,30C6.7,30,0,23.3,0,15S6.7,0,15,0c4.2,0,8.2,1.8,11.1,4.9l0,0.1l2.5,3.8c0.9,2,1.4,4.1,1.3,6.2
			C30,23.3,23.3,30,15,30z M15,1C7.3,1,1,7.3,1,15c0,7.7,6.3,14,14,14s14-6.3,14-14c0-2-0.4-3.9-1.2-5.7l-2.5-3.7
			C22.7,2.6,18.9,1,15,1z M15.1,23.9L15,23.7l-0.1,0.1l-0.7-0.7l0.1-0.1l-6.1-6.1l0.7-0.7l5.5,5.4V5.5h1V22l5.8-5.8l0.7,0.7L15.7,23
			l0.1,0.1L15.1,23.9z"/>
	</g>
</g>
</svg>
