<svg xmlns="http://www.w3.org/2000/svg" width="255" height="87" viewBox="0 0 255 87">
    <g fill="#FFF" fill-rule="nonzero" opacity=".509">
        <path d="M47.987 59.871h5.987c3.217 0 6.524-.798 9.026-2.927l-.894 4.79c-1.43.089-3.127.266-5.004.266H42c1.162-1.774 1.34-4.435 1.34-6.742V35.742c0-2.307 0-4.968-1.161-6.742h18.14l.179 3.992c-1.787-1.508-4.647-1.952-7.685-1.952h-4.826v12.331c4.022 0 8.222 0 12.243-.355-1.787 2.928-7.685 2.928-10.902 2.928h-1.34V59.87zM71.625 55.24c0 2.313 0 4.981 1.125 6.76H66c1.125-1.779 1.125-4.447 1.125-6.76V35.76c0-2.313.087-4.981-1.038-6.76h15.576c1.299 0 2.337 0 2.337.445v4.002h-.26c-1.384-2.401-4.586-2.401-6.923-2.401h-5.192v13.342c3.894 0 7.962 0 11.856-.356-1.731 2.936-7.443 2.936-10.558 2.936h-1.298v8.272z"/>
        <path d="M18.07 26.478c-.177.352 0 .792.351.968.353.176.793 0 .97-.352.087-.176 10.567-20.584 36.017-20.584 26.596 0 37.34 21.816 38.22 36.418.44 7.917-2.202 17.682-7.221 25.51-4.315 6.774-12.065 15.22-24.834 16.979-.44.088-.705.44-.617.88.088.44.44.703.793.703C82.884 84.449 99 65.8 99 43.72 99 19.617 80.066.088 56.905 0h-.264C39.821.088 24.674 10.468 18.07 26.478z"/>
        <path d="M16.545 61.937c5.603 12.896 17.859 22.307 32.654 24.05.35.087.7-.262.787-.61.088-.349-.262-.785-.612-.785C37.03 82.937 28.8 75.617 24.599 69.344c-2.626-3.921-4.552-8.278-5.778-12.635l9.192-21.522c.175-.436.263-.785.7-.785.438 0 .35.61.35 1.133v16.817c0 2.876 0 6.623-.875 9.15h7.53c-1.139-2.005-1.314-4.357-1.577-6.623-.7-6.1-.437-12.46-.437-18.473 0-2.526-.175-5.315 1.05-7.232H29.59c-1.313 0-1.663 1.046-2.1 2.092L18.47 52.352c-.262.697-.437 1.22-.875 1.22s-.525-.871-.788-1.655L9.542 29.784C9.367 29.087 8.58 29 7.966 29H1.313c1.226.784 1.313 1.481 1.313 2.875v12.722c0 5.49-.175 13.506-2.1 16.207l-.526.61h6.04c-1.138-1.655-1.138-4.966-1.138-8.887l.088-16.469c0-.784 0-1.656.438-1.656.437 0 .787 1.22 1.4 2.702l9.717 24.833zM134.562 7.088c-.526.973-.526 2.299-.526 3.448 0 2.917-.088 6.011.175 8.928.088 1.15.263 2.21.789 3.182h-3.505c.438-1.237.438-3.005.438-4.42v-8.044c0-.265 0-.53-.175-.53-.176 0-.263.177-.35.354L125.973 23l-4.644-12.022c-.263-.707-.438-1.326-.701-1.326-.263 0-.263.442-.263.796v7.955c0 1.945 0 3.536.526 4.332H118l.175-.354c.877-1.326.964-5.215.964-7.867V8.503c0-.707 0-.973-.613-1.415h2.98c.262 0 .7.089.788.354l3.593 10.696c.087.354.175.796.35.796.263 0 .263-.265.438-.62l4.206-10.253c.176-.53.351-1.061.964-1.061h2.717v.088zM138.818 7L140 8.638l-1.818 1.12L137 8.208 138.818 7zm.637 3.966v8.448c0 .862 0 1.896.454 2.586h-2.818c.454-.69.454-1.724.454-2.586v-6.466c0-.776 0-1.293-.545-1.638l2.455-.344zM144.294 11.256v.853c0 .17 0 .34.177.34.176 0 1.323-1.449 3.176-1.449 1.853 0 3 .853 3 3.07v5.287c0 .852 0 1.876.353 2.558h-2.206v-6.48c0-1.536-.176-3.156-2.206-3.156-1.94 0-2.294 1.705-2.294 3.326v3.837c0 .853 0 1.876.441 2.558h-2.647c.441-.682.441-1.705.441-2.558v-5.628c0-.938 0-1.876-.529-2.388l2.294-.17zM155.853 7L157 8.638l-1.765 1.12L154 8.208 155.853 7zm.53 3.966v8.448c0 .862 0 1.896.44 2.586h-2.647c.442-.69.442-1.724.442-2.586v-6.466c0-.776 0-1.293-.53-1.638l2.294-.344zM166 19.364c0 2.363-2.141 3.636-4.035 3.636-.906 0-1.73-.182-2.553-.545-.247-.091-.412-.182-.412-.546 0-.636.082-1.182.082-1.818.742 1.273 1.318 2.09 2.8 2.09 1.318 0 2.142-.726 2.142-2.181 0-3.09-4.53-2.545-4.53-6.273 0-1.909 1.318-2.727 3.459-2.727.659 0 1.4.09 2.059.273.082 0 .33.09.33.182 0 .454 0 1.181-.083 1.727-.906-1.273-1.318-1.455-2.388-1.455-.906 0-1.73.455-1.73 1.546.083 3 4.859 2.636 4.859 6.09zM170.742 8v3.503h1.855c.08 0 .161 0 .161.18 0 .539-.968.718-1.693.718h-.404v7.635c0 .808.08 1.527.968 1.527.403 0 1.13-.36 1.371-.629l-.08 1.078c0 .27-1.049.988-1.936.988-1.452 0-2.016-1.078-2.016-2.605v-7.994H168v-.718l.968-.09.08-3.054L170.742 8zM177.16 15.273c-.09.454-.09.909-.09 1.454 0 2.364 1.08 4.637 3.69 4.637 1.26 0 2.43-.546 3.06-1.182v.273c0 1.363-2.07 2.545-3.96 2.545-3.24 0-4.86-3-4.86-6 0-3.273 1.8-6 5.22-6 2.43 0 3.78 1.636 3.78 3.273 0 1.182-.81 1.182-2.34 1.182h-4.5v-.182zm2.7-.818c1.26 0 1.89 0 1.89-1 0-.91-.72-1.91-1.89-1.91-1.53 0-2.25 1.546-2.52 2.91h2.52zM186.6 15.21c0-1.718 0-3.35-.6-3.866.857 0 1.714-.086 1.971-.086.429 0 .172 1.203.429 1.203.086 0 .943-1.461 2.314-1.461.857 0 1.286.344 1.286.945 0 .43-.257.774-.857.774-.429 0-.943-.086-1.457-.086-1.2 0-1.372.86-1.372 1.89v4.899c0 .86 0 1.89.429 2.578h-2.572c.429-.688.429-1.719.429-2.578V15.21zM197.95 23c-3.483 0-4.95-2.797-4.95-5.594 0-3.88 2.2-6.406 6.05-6.406 3.483 0 4.95 2.797 4.95 5.594-.092 3.88-2.2 6.406-6.05 6.406zm.825-.902c2.383 0 3.025-2.346 3.025-4.421 0-2.978-.917-5.775-3.575-5.775-2.383 0-3.025 2.346-3.025 4.421 0 2.978.917 5.775 3.575 5.775zM125.768 51l-.09-.94c0-.085 0-.256-.089-.256-.178 0-1.071 1.196-3.303 1.196-2.947 0-4.286-2.82-4.286-5.296 0-3.76 2.59-6.066 6.429-6.066.446 0 .892.086 1.25.086v-2.99c0-.94 0-1.88-.536-2.392l2.41-.342v14.01c0 .94 0 1.88.447 2.563l-2.232.427zm-.09-8.714c0-1.11-.267-1.708-1.517-1.708-2.768 0-4.197 1.965-4.197 4.698 0 2.136 1.072 4.528 3.661 4.528 1.429 0 2.143-1.025 2.143-2.392v-5.126h-.09zM132.07 44.364c-.09.454-.09.909-.09 1.454 0 2.364 1.08 4.546 3.69 4.546 1.26 0 2.43-.546 3.06-1.182v.273c0 1.363-2.07 2.545-3.96 2.545-3.24 0-4.77-3-4.77-6 0-3.273 1.8-6 5.22-6 2.43 0 3.78 1.545 3.78 3.273 0 1.182-.81 1.182-2.34 1.182h-4.59v-.091zm2.7-.728c1.26 0 1.89 0 1.89-1 0-.909-.63-1.909-1.89-1.909-1.62 0-2.25 1.546-2.52 2.91h2.52zM141.182 51c.454-.701.454-1.753.454-2.629V36.804c0-.964 0-1.928-.636-2.453l2.545-.351v14.371c0 .876 0 1.928.455 2.629h-2.818zM146.182 51c.454-.701.454-1.753.454-2.629V36.804c0-.964 0-1.928-.636-2.453l2.545-.351v14.371c0 .876 0 1.928.455 2.629h-2.818zM153.5 41.391c-.1-.87-.5-4-.5-4.521 0-.435.3-.87 1-.87s1 .522 1 .87c0 .521-.4 3.652-.5 4.521 0 .087-.1.609-.5.609s-.5-.435-.5-.609zM160.857 50.063h2.857c1.518 0 3.125-.341 4.286-1.364l-.446 2.13c-.715.086-1.518.171-2.411.171H158c.536-.852.625-2.045.625-3.068v-8.864c0-1.108 0-2.301-.536-3.068h8.661l.09 1.79c-.894-.682-2.233-.852-3.661-.852h-2.322v5.624c1.875 0 3.929 0 5.804-.17-.893 1.364-3.661 1.364-5.179 1.364h-.625v6.306zM176.667 42.727h-.084c-.583-1.182-1-1.909-2.333-1.909-2.083 0-3.167 2.364-3.167 5.091 0 2.546.834 4.636 3.417 4.636.833 0 1.833-.363 2.5-1.09v.363c0 1.273-1.583 2.182-3.417 2.182-2.916 0-4.583-2.636-4.583-5.636 0-3.637 2.167-6.364 5.583-6.364 1.167 0 2.084.273 2.084.364v2.363zM183.95 52c-3.483 0-4.95-2.797-4.95-5.594 0-3.88 2.2-6.406 6.05-6.406 3.483 0 4.95 2.797 4.95 5.594 0 3.88-2.2 6.406-6.05 6.406zm.825-.902c2.383 0 3.025-2.346 3.025-4.421 0-2.978-.917-5.775-3.575-5.775-2.383 0-3.025 2.346-3.025 4.421 0 2.888.917 5.775 3.575 5.775zM193.36 40.256v.853c0 .17 0 .34.174.34.175 0 1.31-1.449 3.146-1.449 1.835 0 2.97.853 2.97 3.07v5.287c0 .852 0 1.876.35 2.558h-2.184v-6.48c0-1.536-.263-3.156-2.185-3.156-1.922 0-2.272 1.705-2.272 3.326v3.837c0 .853 0 1.876.437 2.558h-2.709c.437-.682.437-1.705.437-2.558v-5.713c0-.938 0-1.876-.524-2.388l2.36-.085zM206.537 52c-3.193 0-4.537-2.797-4.537-5.594 0-3.88 2.016-6.406 5.46-6.406 3.193 0 4.537 2.797 4.537 5.594.084 3.88-1.932 6.406-5.46 6.406zm.756-.902c2.184 0 2.772-2.346 2.772-4.421 0-2.978-.84-5.775-3.276-5.775-2.185 0-2.773 2.346-2.773 4.421 0 2.888.84 5.775 3.277 5.775zM214.545 42.814c0-.938 0-1.876-.545-2.388l2.545-.17v.853c0 .17 0 .34.182.34S218.273 40 219.818 40c2.182 0 2.364 1.876 2.727 1.876.273 0 1.364-1.876 3.182-1.876 1.728 0 2.91.853 2.91 3.07v5.287c0 .852 0 1.876.363 2.558h-2.273v-6.396c0-1.535-.182-3.155-1.909-3.155-2 0-2.273 1.62-2.273 3.411v3.667c0 .853 0 1.876.455 2.558h-2.818c.454-.682.454-1.705.454-2.558v-3.923c0-1.535-.181-3.155-1.909-3.155-2 0-2.272 1.62-2.272 3.411v3.667c0 .853 0 1.876.454 2.558h-2.727c.454-.682.454-1.705.454-2.558v-5.628h-.09zM232.853 36L234 37.638l-1.765 1.12-1.147-1.551L232.853 36zm.53 3.966v8.448c0 .862 0 1.896.44 2.586h-2.735c.441-.69.441-1.724.441-2.586v-6.466c0-.776 0-1.293-.529-1.638l2.382-.344zM242.612 51.727c-.183-.909-.183-1.545-.367-1.545-.092 0-.092.09-.184.09-.643.91-1.194 1.728-2.939 1.728-1.744 0-3.122-1-3.122-2.818 0-2.182 2.847-3.091 4.592-3.91 1.47-.727 1.837-.727 1.837-2.363 0-1.273-.46-2.182-2.02-2.182-2.389 0-1.47 2.455-3.123 2.455-.551 0-.919-.273-.919-.91 0-1.727 2.572-2.272 4.5-2.272 1.837 0 3.398.364 3.398 2v5.545c0 1.455-.092 3 .735 4.091l-2.388.091zm-2.571-1.182c1.561 0 2.296-1.363 2.296-2.818v-2.545l-1.378.727c-1.928.91-2.847 1.455-2.847 2.91-.092 1.181.735 1.726 1.929 1.726zM120.16 74.364c-.09.454-.09.909-.09 1.363 0 2.364 1.08 4.637 3.69 4.637 1.26 0 2.43-.546 3.06-1.182v.273c0 1.363-2.07 2.545-3.96 2.545-3.24 0-4.86-3-4.86-6 0-3.273 1.8-6 5.22-6 2.43 0 3.78 1.636 3.78 3.273 0 1.182-.81 1.182-2.34 1.182h-4.5v-.091zm2.7-.728c1.26 0 1.89 0 1.89-1 0-.909-.63-1.909-1.89-1.909-1.53 0-2.25 1.546-2.52 2.91h2.52zM142.768 80.915l-.09-.94c0-.086 0-.171-.089-.171-.178 0-1.071 1.196-3.303 1.196-2.947 0-4.286-2.82-4.286-5.296 0-3.76 2.59-6.066 6.429-6.066.446 0 .892.086 1.25.086v-2.99c0-.94 0-1.88-.536-2.392l2.41-.342v14.095c0 .855 0 1.88.447 2.563l-2.232.257zm-.09-8.629c0-1.11-.267-1.708-1.517-1.708-2.768 0-4.286 1.965-4.286 4.698 0 2.136 1.071 4.528 3.66 4.528 1.43 0 2.144-1.025 2.144-2.392v-5.126zM148.16 74.364c-.09.454-.09.909-.09 1.363 0 2.364 1.08 4.637 3.69 4.637 1.26 0 2.43-.546 3.06-1.182v.273c0 1.363-2.07 2.545-3.96 2.545-3.24 0-4.86-3-4.86-6 0-3.273 1.8-6 5.22-6 2.43 0 3.78 1.636 3.78 3.273 0 1.182-.81 1.182-2.34 1.182h-4.5v-.091zm2.7-.728c1.26 0 1.89 0 1.89-1 0-.909-.72-1.909-1.89-1.909-1.53 0-2.25 1.546-2.52 2.91h2.52zM157.182 81c.454-.701.454-1.753.454-2.629V66.804c0-.964 0-1.928-.636-2.453l2.545-.351v14.371c0 .876 0 1.928.455 2.629h-2.818zM163.182 81c.454-.701.454-1.753.454-2.629V66.804c0-.964 0-1.928-.636-2.453l2.545-.351v14.371c0 .876 0 1.928.455 2.629h-2.818zM171.16 74.364c-.09.454-.09.909-.09 1.363 0 2.364 1.08 4.637 3.69 4.637 1.26 0 2.43-.546 3.06-1.182v.273c0 1.363-2.07 2.545-3.96 2.545-3.24 0-4.86-3-4.86-6 0-3.273 1.8-6 5.22-6 2.43 0 3.78 1.636 3.78 3.273 0 1.182-.81 1.182-2.34 1.182h-4.5v-.091zm2.7-.728c1.26 0 1.89 0 1.89-1 0-.909-.72-1.909-1.89-1.909-1.62 0-2.25 1.546-2.52 2.91h2.52zM188.818 77.746c0 1.085 0 2.44.546 3.254H186c.545-.814.545-2.17.545-3.254v-9.492c0-1.085.091-2.44-.545-3.254h7.818c.637 0 1.182 0 1.182.271v1.989h-.09c-.728-1.175-2.274-1.175-3.455-1.175h-2.546v6.418c1.91 0 4 0 5.91-.181-.91 1.446-3.728 1.446-5.274 1.446h-.636v3.978h-.09zM198.818 66L200 67.638l-1.818 1.12L197 67.208 198.818 66zm.637 3.966v8.448c0 .862 0 1.896.454 2.586h-2.727c.454-.69.454-1.724.454-2.586v-6.466c0-.776 0-1.293-.545-1.638l2.364-.344zM204.294 70.172v.86c0 .171 0 .429.177.429.176 0 1.323-1.461 3.176-1.461 1.853 0 3 .86 3 3.094v5.328c0 .86 0 1.89.353 2.578h-2.206v-6.531c0-1.547-.265-3.18-2.206-3.18-1.94 0-2.294 1.719-2.294 3.352v3.78c0 .86 0 1.891.441 2.579h-2.647c.441-.688.441-1.719.441-2.578V72.75c0-.945 0-1.89-.529-2.406l2.294-.172zM219.704 81.727c-.275-.909-.184-1.545-.367-1.545-.092 0-.092 0-.184.09-.643 1-1.194 1.728-3.03 1.728-1.745 0-3.123-.91-3.123-2.818 0-2.182 2.847-3.091 4.592-3.91 1.47-.727 1.837-.727 1.837-2.363 0-1.273-.46-2.182-2.02-2.182-2.389 0-1.47 2.455-3.123 2.455-.551 0-.919-.273-.919-.91 0-1.727 2.572-2.272 4.5-2.272 1.837 0 3.398.364 3.398 2v5.545c0 1.455-.092 3 .735 4.091l-2.296.091zm-2.571-1.182c1.56 0 2.296-1.363 2.296-2.818v-2.545l-1.378.727c-1.837.91-2.847 1.455-2.847 2.91 0 1.09.827 1.726 1.929 1.726zM225.36 70.172v.86c0 .171 0 .429.174.429.262 0 1.31-1.461 3.146-1.461 1.835 0 2.97.86 2.97 3.094v5.328c0 .86 0 1.89.35 2.578h-2.184v-6.531c0-1.547-.175-3.18-2.185-3.18-1.922 0-2.272 1.719-2.272 3.352v3.78c0 .86 0 1.891.437 2.579h-2.709c.437-.688.437-1.719.437-2.578V72.75c0-.945 0-1.89-.524-2.406l2.36-.172zM243.576 70l-6.78 9.837c-.084.09-.084.18-.084.269 0 .09.085.09.254.09h3.05c1.611 0 3.052-.448 3.984-1.342L243.661 81H234l6.78-9.748c.084-.179.17-.268.17-.358 0-.09-.17-.09-.34-.09h-2.712c-1.186 0-2.034.359-2.881 1.074L235.27 70h8.305zM248.07 74.364c-.09.454-.09.909-.09 1.363 0 2.364 1.08 4.637 3.69 4.637 1.26 0 2.43-.546 3.06-1.182v.273c0 1.363-2.07 2.545-3.96 2.545-3.24 0-4.77-3-4.77-6 0-3.273 1.8-6 5.22-6 2.43 0 3.78 1.636 3.78 3.273 0 1.182-.81 1.182-2.34 1.182h-4.59v-.091zm2.7-.728c1.26 0 1.89 0 1.89-1 0-.909-.63-1.909-1.89-1.909-1.62 0-2.25 1.546-2.52 2.91h2.52z"/>
    </g>
</svg>
