<?xml version="1.0" encoding="utf-8"?>
<!-- Generator: Adobe Illustrator 21.0.2, SVG Export Plug-In . SVG Version: 6.00 Build 0)  -->
<svg version="1.1" id="Livello_1" xmlns="http://www.w3.org/2000/svg" xmlns:xlink="http://www.w3.org/1999/xlink" x="0px" y="0px"
	 viewBox="0 0 40 40" style="enable-background:new 0 0 40 40;" xml:space="preserve">
<style type="text/css">
	.st0{fill:#FFFFFF;}
</style>
<g>
	<g>
		<path class="st0" d="M35.6,40H4c-2.2,0-4-1.8-4-4V4c0-1.1,0.4-2.1,1.2-2.8C1.9,0.4,2.9,0,4,0h27.2l8.4,9.6V36
			C39.6,38.2,37.8,40,35.6,40z M4,1C3.2,1,2.4,1.3,1.9,1.9S1,3.2,1,4v32c0,1.7,1.3,3,3,3h31.6c1.6,0,3-1.3,3-3V10l-7.8-9H4z"/>
	</g>
	<g>
		<path class="st0" d="M8.9,34.5c-0.5,0-0.9-0.1-1.3-0.2c-0.7-0.3-1.2-0.9-1.2-1.6c0-1.6,1.5-3.2,3-4.7c0.5-0.5,2.4-1.2,5-1.9
			c1-2.9,2-6.4,3-9.9C16.1,14,15.1,12,15.1,11c0-1.9,0-5.4,2.7-5.4c0.6,0,1.2,0.3,1.6,0.8c1,1.3,0.8,3.7,0.4,5.6
			c-0.2,1-0.6,2.4-1.1,4.2c1.7,2.6,3.9,5.6,5.6,7.7c2-0.4,3.6-0.8,4.2-1c1.8-0.6,3.1-0.6,3.8,0.1c0.6,0.5,0.7,1.4,0.4,2.7
			c-0.2,1-0.8,1.7-1.7,2.1c-1.6,0.7-3.7,0.2-4.8-0.3c-0.4-0.2-1.2-1.1-2.3-2.4c-0.1,0-0.2,0-0.2,0.1c-2.3,0.5-5.5,1.2-8.3,2
			c-1,2.9-2.1,5.2-2.9,6.1l0,0C11.2,34.1,10,34.5,8.9,34.5z M14.1,27.3c-2,0.5-3.6,1.1-3.9,1.4c-1.3,1.3-2.7,2.7-2.7,4
			c0,0.4,0.4,0.6,0.6,0.7c0.9,0.4,2.4,0.1,3.6-1C12.3,31.7,13.2,29.8,14.1,27.3z M24.9,24.7c0.8,0.9,1.4,1.6,1.7,1.7
			c0.9,0.4,2.7,0.9,3.9,0.3c0.6-0.3,1-0.7,1.1-1.4c0.1-0.6,0.2-1.3-0.1-1.7c-0.4-0.4-1.4-0.3-2.8,0.1C28.1,24,26.7,24.3,24.9,24.7z
			 M18.2,17.4c-0.7,2.7-1.6,5.7-2.5,8.4c2.1-0.5,4.7-1.1,7.4-1.7C21.6,22.2,19.8,19.7,18.2,17.4z M17.7,6.6c-1.2,0-1.7,1.3-1.7,4.4
			c0,0.7,0.7,2.2,1.8,3.9c0.3-1.1,0.6-2.2,0.8-3.3c0.5-2,0.4-4-0.2-4.7C18.3,6.7,18.1,6.6,17.7,6.6z M38.7,9.6h-7.9V0.4h1v8.2h6.9
			V9.6z"/>
	</g>
</g>
</svg>
