<?xml version="1.0" encoding="UTF-8"?>
<svg width="100px" height="100px" viewBox="0 0 100 100" version="1.1" xmlns="http://www.w3.org/2000/svg" xmlns:xlink="http://www.w3.org/1999/xlink">
    <!-- Generator: Sketch 43.1 (39012) - http://www.bohemiancoding.com/sketch -->
    <title>Group 2</title>
    <desc>Created with Sketch.</desc>
    <defs></defs>
    <g id="Symbols" stroke="none" stroke-width="1" fill="none" fill-rule="evenodd">
        <g id="box_conferma_cancellazione_newsletter" transform="translate(-30.000000, -51.000000)" fill-rule="nonzero" fill="#3BC3F2">
            <g id="Group-2" transform="translate(30.000000, 51.000000)">
                <g id="email" transform="translate(21.590909, 23.863636)">
                    <path d="M57.4159376,22.0855269 L57.4160653,22.0854003 L50.0297589,17.2307634 L50.0297589,1.00423296 C50.0297589,0.479701698 49.6008156,0.0544539942 49.0717259,0.0544539942 L8.77174984,0.0544539942 C8.24266016,0.0544539942 7.81371687,0.479701698 7.81371687,1.00423296 L7.81371687,17.2319031 L0.428687818,22.0854003 L0.428815556,22.0856536 C0.170529868,22.2557273 -2.84217094e-14,22.5464863 -2.84217094e-14,22.8770094 L-2.84217094e-14,52.2897645 C-2.84217094e-14,52.8142958 0.428943293,53.2395435 0.958032966,53.2395435 L56.8867201,53.2395435 C57.4158098,53.2395435 57.8447531,52.8142958 57.8447531,52.2897645 L57.8447531,22.8770094 C57.8447531,22.5464863 57.6742232,22.2557273 57.4159376,22.0855269 L57.4159376,22.0855269 Z M7.81371687,25.407094 L2.55475458,22.9213324 L7.81371687,19.6287653 L7.81371687,25.407094 Z M1.91606593,24.455922 L23.9476307,36.041959 L1.91606593,50.5200097 L1.91606593,24.455922 L1.91606593,24.455922 Z M28.9219933,35.0517828 L53.707839,51.3399855 L4.1362754,51.3399855 L28.9219933,35.0517828 L28.9219933,35.0517828 Z M33.8967392,36.0420857 L55.9285594,24.455922 L55.9285594,50.5205163 L33.8967392,36.0420857 L33.8967392,36.0420857 Z M50.0297589,19.5021282 C50.0297589,19.5021282 55.1826988,23.0479696 55.1826988,23.0479696 C55.1826988,23.0479696 50.0297589,25.4077271 50.0297589,25.4077271 L50.0297589,19.5021282 Z M48.1136929,1.95401193 L48.1136929,26.4153793 L32.079159,34.8476436 L29.4512108,33.1206922 C29.1304613,32.9098413 28.7133976,32.9098413 28.3926482,33.1206922 L25.7650831,34.8473904 L9.7297828,26.4147461 L9.7297828,1.95401193 L48.1136929,1.95401193 L48.1136929,1.95401193 Z" id="Shape"></path>
                    <path d="M28.9217379,25.0325011 L36.5545781,25.0325011 C37.0836678,25.0325011 37.5126111,24.6072534 37.5126111,24.0827222 C37.5126111,23.5581909 37.0836678,23.1329432 36.5545781,23.1329432 L28.9217379,23.1329432 C25.2412307,23.1329432 22.2469306,20.1644407 22.2469306,16.5156432 L22.2469306,16.235395 C22.2469306,12.5865975 25.2412307,9.61809502 28.9217379,9.61809502 C32.602245,9.61809502 35.5965451,12.5865975 35.5965451,16.235395 L35.5965451,16.9360787 C35.5965451,17.7259148 34.9484039,18.3685986 34.151576,18.3685986 C33.354748,18.3685986 32.7066068,17.7260415 32.7066068,16.9360787 L32.7066068,15.6048685 C32.7066068,13.3426216 30.8501944,11.5020766 28.5682876,11.5020766 C26.2863808,11.5020766 24.4299684,13.3424949 24.4299684,15.6048685 C24.4299684,17.8671153 26.2863808,19.7075337 28.5682876,19.7075337 C29.6117771,19.7075337 30.5655947,19.3219234 31.2942107,18.687851 C31.8874247,19.6354771 32.946115,20.2680299 34.151576,20.2680299 C36.0047949,20.2680299 37.5126111,18.7733311 37.5126111,16.935952 L37.5126111,16.2352684 C37.5126111,11.5390546 33.6587638,7.71841045 28.9217379,7.71841045 C24.1847119,7.71841045 20.3308647,11.5390546 20.3308647,16.2352684 L20.3308647,16.5155165 C20.3308647,21.2118569 24.1847119,25.0325011 28.9217379,25.0325011 L28.9217379,25.0325011 Z M28.5682876,17.8079757 C27.3428995,17.8079757 26.3460343,16.8196991 26.3460343,15.6048685 C26.3460343,14.3900378 27.3430273,13.4016345 28.5682876,13.4016345 C29.7935479,13.4016345 30.7905408,14.3900378 30.7905408,15.6048685 C30.7905408,16.8196991 29.7936756,17.8079757 28.5682876,17.8079757 Z" id="Shape"></path>
                </g>
                <g id="non">
                    <path d="M49.9927027,0 C36.7624324,0 24.7254054,5.17513514 15.7751351,13.5948649 L15.4994595,13.8575676 C14.9397297,14.392973 14.3916216,14.9397297 13.8578378,15.4991892 L13.4886486,15.8683784 C5.13486486,24.8189189 0,36.8140541 0,49.9927027 C0,77.5597297 22.4272973,99.9854054 49.9927027,99.9854054 C77.5581081,99.9854054 99.9854054,77.5597297 99.9854054,49.9927027 C99.9854054,22.4256757 77.5581081,0 49.9927027,0 Z M49.9927027,96.76 C24.2045946,96.76 3.22540541,75.7791892 3.22540541,49.9927027 C3.22540541,40.1786617 5.03889533,32.5287091 10.2272727,25 C11.5355206,23.1016381 87.5,77.2727273 87.5,77.2727273 L89.7727273,75 L12.5,21.5909091 C25,7.95454545 37.6524324,3.22540541 49.9927027,3.22540541 C75.7808108,3.22540541 96.76,24.2062162 96.76,49.9927027 C96.76,59.7132929 93.7788102,68.7509858 88.6826316,76.2393199 C80.2598224,88.615811 66.0596093,96.76 49.9927027,96.76 Z" id="Shape"></path>
                </g>
            </g>
        </g>
    </g>
</svg>