<?xml version="1.0" encoding="UTF-8"?>
<svg width="42px" height="42px" viewBox="0 0 42 42" version="1.1" xmlns="http://www.w3.org/2000/svg" xmlns:xlink="http://www.w3.org/1999/xlink">
    <!-- Generator: Sketch 44.1 (41455) - http://www.bohemiancoding.com/sketch -->
    <title>citazioni</title>
    <desc>Created with Sketch.</desc>
    <defs></defs>
    <g id="Symbols" stroke="none" stroke-width="1" fill="none" fill-rule="evenodd">
        <g id="citazioni" transform="translate(0.000000, 1.000000)" stroke="#3BC3F2" fill-rule="nonzero" fill="#3BC3F2">
            <path d="M34.8,5.86666667 C31,2.06666667 26,0 20.6666667,0 C15.3333333,0 10.3333333,2.06666667 6.53333333,5.86666667 C2.73333333,9.66666667 0.666666667,14.6666667 0.666666667,20 C0.666666667,24.2 1.93333333,28.2 4.4,31.6 L0.733333333,38.9333333 C0.6,39.2 0.666666667,39.5333333 0.866666667,39.7333333 C1,39.8666667 1.2,39.9333333 1.33333333,39.9333333 C1.46666667,39.9333333 1.53333333,39.9333333 1.66666667,39.8666667 L9,36.2 C12.4666667,38.7333333 16.4666667,40 20.6666667,40 C26,40 31,37.9333333 34.8,34.1333333 C38.6,30.3333333 40.6666667,25.3333333 40.6666667,20 C40.6666667,14.6666667 38.6,9.66666667 34.8,5.86666667 Z M20.6666667,38.6 C16.6,38.6 12.7333333,37.3333333 9.53333333,34.8666667 C9.4,34.8 9.26666667,34.7333333 9.13333333,34.7333333 C9,34.7333333 8.93333333,34.7333333 8.8,34.8 L2.93333333,37.7333333 L5.86666667,31.8666667 C6,31.6 5.93333333,31.3333333 5.8,31.1333333 C3.33333333,27.9333333 2.06666667,24.0666667 2.06666667,20 C2.06666667,9.73333333 10.4,1.4 20.6666667,1.4 C30.9333333,1.4 39.2666667,9.73333333 39.2666667,20 C39.2666667,30.2666667 30.9333333,38.6 20.6666667,38.6 Z M19.0666667,14.9333333 L19.0666667,17.6 C19.0666667,24.3333333 13.8,27.3333333 13.6,27.4 L13,26.3333333 L12.4,25.2666667 C12.5333333,25.2 15,23.8 16.0666667,20.7333333 L12.0666667,20.7333333 C11.8,20.7333333 11.5333333,20.4666667 11.5333333,20.2 L11.5333333,14.9333333 C11.5333333,14.6666667 11.8,14.4 12.0666667,14.4 L18.5333333,14.4 C18.8666667,14.4 19.0666667,14.6666667 19.0666667,14.9333333 Z M29.8,14.9333333 L29.8,17.6 C29.8,24.3333333 24.5333333,27.3333333 24.3333333,27.4 L23.7333333,26.3333333 L23.1333333,25.2666667 C23.2666667,25.2 25.7333333,23.8 26.8,20.7333333 L22.8,20.7333333 C22.5333333,20.7333333 22.2666667,20.4666667 22.2666667,20.2 L22.2666667,14.9333333 C22.2666667,14.6666667 22.5333333,14.4 22.8,14.4 L29.2666667,14.4 C29.5333333,14.4 29.8,14.6666667 29.8,14.9333333 Z" id="Shape"></path>
        </g>
    </g>
</svg>