<?xml version="1.0" encoding="UTF-8"?>
<svg width="78px" height="54px" viewBox="0 0 78 54" version="1.1" xmlns="http://www.w3.org/2000/svg" xmlns:xlink="http://www.w3.org/1999/xlink">
    <!-- Generator: Sketch 43.2 (39069) - http://www.bohemiancoding.com/sketch -->
    <title>commento</title>
    <desc>Created with Sketch.</desc>
    <defs></defs>
    <g id="Page-1" stroke="none" stroke-width="1" fill="none" fill-rule="evenodd">
        <g id="Desktop-Landscape" transform="translate(-60.000000, -296.000000)" fill-rule="nonzero" fill="#3BC3F2">
            <path d="M130.448258,296.182105 L86.808801,296.182105 C82.9259866,296.182105 79.766678,299.316431 79.766678,303.164554 L79.766678,312.9344 L66.221042,312.9344 C63.0818308,312.9344 60.5294632,315.466585 60.5294632,318.580972 L60.5294632,335.297378 C60.5294632,338.411766 63.0818308,340.943951 66.221042,340.943951 L69.6375971,340.943951 L69.6375971,348.022105 C69.6375971,348.815655 70.1199343,349.529452 70.8554985,349.828529 C71.1006865,349.928222 71.3539136,349.976074 71.6111601,349.976074 C72.1256531,349.976074 72.6280876,349.776689 73.0059184,349.401846 L81.5352477,340.939963 L98.2482313,340.939963 C101.387442,340.939963 103.93981,338.407778 103.93981,335.293391 L103.93981,332.920714 L109.876577,332.920714 L121.705897,344.656492 C122.083727,345.031335 122.586162,345.23072 123.100655,345.23072 C123.353882,345.23072 123.611128,345.182868 123.856316,345.083175 C124.591881,344.780111 125.074218,344.066314 125.074218,343.272763 L125.074218,332.920714 L130.444239,332.920714 C134.327053,332.920714 137.486362,329.786388 137.486362,325.938265 L137.486362,303.168542 C137.486362,299.316431 134.327053,296.182105 130.448258,296.182105 Z M99.9926841,335.301366 C99.9926841,336.258412 99.2088862,337.032025 98.2482313,337.032025 L80.7152745,337.032025 C80.1927425,337.032025 79.690308,337.239385 79.3205161,337.606252 L73.5807036,343.300677 L73.5807036,338.989982 C73.5807036,337.909317 72.6964187,337.032025 71.6071406,337.032025 L66.221042,337.032025 C65.2563676,337.032025 64.4765892,336.254425 64.4765892,335.301366 L64.4765892,318.58496 C64.4765892,317.631902 65.2603871,316.854302 66.221042,316.854302 L79.766678,316.854302 L79.766678,325.94624 C79.766678,329.798351 82.9259866,332.928689 86.808801,332.928689 L99.9926841,332.928689 L99.9926841,335.301366 Z M133.539236,325.942252 C133.539236,327.633034 132.152516,329.012775 130.444239,329.012775 L123.100655,329.012775 C122.011377,329.012775 121.127092,329.890068 121.127092,330.970732 L121.127092,338.555323 L112.087289,329.587003 C111.717497,329.220135 111.215063,329.012775 110.692531,329.012775 L86.808801,329.012775 C85.1045429,329.012775 83.713804,327.637022 83.713804,325.942252 L83.713804,303.168542 C83.713804,301.47776 85.1005234,300.098018 86.808801,300.098018 L130.448258,300.098018 C132.152516,300.098018 133.543255,301.473772 133.543255,303.168542 L133.543255,325.942252 L133.539236,325.942252 Z" id="commento"></path>
        </g>
    </g>
</svg>