<?xml version="1.0" encoding="utf-8"?>
<!-- Generator: Adobe Illustrator 20.1.0, SVG Export Plug-In . SVG Version: 6.00 Build 0)  -->
<svg version="1.1" id="Livello_1" xmlns="http://www.w3.org/2000/svg" xmlns:xlink="http://www.w3.org/1999/xlink" x="0px" y="0px"
	 viewBox="0 0 27.9 31" style="enable-background:new 0 0 27.9 31;" xml:space="preserve">
<style type="text/css">
	.st0{fill:#2C3450;}
</style>
<g>
	<path class="st0" d="M26.6,3.7h-6.7V2.5c0-1.4-1.1-2.5-2.5-2.5h-6.9C9.1,0,7.9,1.1,7.9,2.5v1.2H1.2C0.5,3.7,0,4.3,0,4.9
		s0.5,1.2,1.2,1.2h1.7v20.7c0,2.4,1.9,4.3,4.3,4.3h13.6c2.4,0,4.3-1.9,4.3-4.3V6h1.7c0.6,0,1.2-0.5,1.2-1.2S27.3,3.7,26.6,3.7z
		 M10.5,2.3h6.9c0.1,0,0.3,0.1,0.3,0.3v1.2h-7.5V2.5C10.2,2.4,10.3,2.3,10.5,2.3z M5.2,26.7V6h17.4v20.7c0,1-0.9,1.9-1.9,1.9H7.1
		C6.1,28.6,5.2,27.7,5.2,26.7z"/>
	<path class="st0" d="M13.9,25.4c0.6,0,1.1-0.5,1.1-1.2V10.3c0-0.6-0.5-1.2-1.1-1.2s-1.2,0.5-1.2,1.2v14
		C12.7,24.9,13.3,25.4,13.9,25.4z"/>
	<path class="st0" d="M19,25.4c0.6,0,1.2-0.5,1.2-1.2V10.3c0-0.6-0.5-1.2-1.2-1.2s-1.2,0.5-1.2,1.2v14C17.9,25,18.4,25.4,19,25.4z"
		/>
	<path class="st0" d="M8.8,25.4c0.6,0,1.2-0.5,1.2-1.2V10.3c0-0.6-0.5-1.2-1.2-1.2s-1.2,0.5-1.2,1.2v14C7.6,24.9,8.1,25.4,8.8,25.4z
		"/>
</g>
</svg>
