<svg xmlns="http://www.w3.org/2000/svg" width="100" height="78" viewBox="0 0 100 78">
    <g fill="#3BC3F2" fill-rule="evenodd">
        <g fill-rule="nonzero">
            <path d="M7.73 9.185A1.47 1.47 0 0 0 9.198 7.72a1.467 1.467 0 1 0-2.505 1.036c.272.274.65.43 1.037.43zM12.427 9.185a1.47 1.47 0 0 0 1.468-1.466 1.47 1.47 0 0 0-1.468-1.465 1.47 1.47 0 0 0-1.468 1.466 1.47 1.47 0 0 0 1.468 1.465zM17.123 9.185a1.47 1.47 0 0 0 1.468-1.466 1.47 1.47 0 0 0-1.468-1.465 1.47 1.47 0 0 0-1.468 1.466 1.47 1.47 0 0 0 1.468 1.465zM23.386 9.185h59.49a1.467 1.467 0 1 0 0-2.931h-59.49a1.467 1.467 0 1 0 0 2.931zM89.139 9.185h3.131a1.467 1.467 0 1 0 0-2.931H89.14a1.467 1.467 0 1 0 0 2.931zM51.566 42.833h-3.132c-3.399 0-6.164 2.762-6.164 6.156v9.381c0 3.395 2.765 6.156 6.164 6.156h3.132c3.399 0 6.164-2.761 6.164-6.156v-9.38c0-3.395-2.765-6.157-6.164-6.157zm3.229 15.537a3.23 3.23 0 0 1-3.23 3.225h-3.13a3.23 3.23 0 0 1-3.23-3.225v-9.38a3.23 3.23 0 0 1 3.23-3.225h3.13a3.23 3.23 0 0 1 3.23 3.224v9.381zM39.041 56.904h-1.663V44.3a1.467 1.467 0 0 0-2.936 0v12.605h-7.455l4.053-12.142a1.468 1.468 0 0 0-2.785-.927L23.56 57.906a1.464 1.464 0 0 0 1.392 1.93h9.491v3.224a1.467 1.467 0 0 0 2.936 0v-3.224h1.663a1.467 1.467 0 1 0 0-2.932zM75.049 56.904h-1.663V44.3a1.467 1.467 0 0 0-2.936 0v12.605h-7.455l4.053-12.142a1.468 1.468 0 0 0-2.785-.927l-4.697 14.071a1.464 1.464 0 0 0 1.393 1.93h9.491v3.224a1.467 1.467 0 0 0 2.936 0v-3.224h1.663a1.467 1.467 0 1 0 0-2.932z"/>
            <path d="M92.27 0H7.73C3.468 0 0 3.463 0 7.72v62.539c0 4.256 3.468 7.72 7.73 7.72h84.54s7.73-3.464 7.73-7.72V7.719C100 3.464 96.532 0 92.27 0zM7.73 2.932h84.54a4.797 4.797 0 0 1 4.795 4.788v4.788H2.935V7.72c0-2.64 2.151-4.788 4.795-4.788zm84.54 72.115H7.73a4.797 4.797 0 0 1-4.795-4.788v-54.82h94.13v54.82c0 2.64-2.151 4.788-4.795 4.788z"/>
        </g>
        <text font-family="Montserrat-Regular, Montserrat" font-size="12">
            <tspan x="22.5" y="37.5">ERRORE</tspan>
        </text>
    </g>
</svg>
