<svg xmlns="http://www.w3.org/2000/svg" width="100" height="78" viewBox="0 0 100 78">
    <g fill="#3BC3F2" fill-rule="evenodd">
        <g fill-rule="nonzero">
            <path d="M7.73 9.185A1.47 1.47 0 0 0 9.198 7.72a1.467 1.467 0 1 0-2.505 1.036c.272.274.65.43 1.037.43zM12.427 9.185a1.47 1.47 0 0 0 1.468-1.466 1.47 1.47 0 0 0-1.468-1.465 1.47 1.47 0 0 0-1.468 1.466 1.47 1.47 0 0 0 1.468 1.465zM17.123 9.185a1.47 1.47 0 0 0 1.468-1.466 1.47 1.47 0 0 0-1.468-1.465 1.47 1.47 0 0 0-1.468 1.466 1.47 1.47 0 0 0 1.468 1.465zM23.386 9.185h59.49a1.467 1.467 0 1 0 0-2.931h-59.49a1.467 1.467 0 1 0 0 2.931zM89.139 9.185h3.131a1.467 1.467 0 1 0 0-2.931H89.14a1.467 1.467 0 1 0 0 2.931z"/>
            <path d="M92.27 0H7.73C3.468 0 0 3.463 0 7.72v62.539c0 4.256 3.468 7.72 7.73 7.72h84.54s7.73-3.464 7.73-7.72V7.719C100 3.464 96.532 0 92.27 0zM7.73 2.932h84.54a4.797 4.797 0 0 1 4.795 4.788v4.788H2.935V7.72c0-2.64 2.151-4.788 4.795-4.788zm84.54 72.115H7.73a4.797 4.797 0 0 1-4.795-4.788v-54.82h94.13v54.82c0 2.64-2.151 4.788-4.795 4.788z"/>
        </g>
        <text font-family="Montserrat-Regular, Montserrat" font-size="12">
            <tspan x="22.5" y="37.5">ERRORE</tspan>
        </text>
        <path d="M39.336 59.862c0 2.49-2.23 2.736-6.689 2.736h-8.719c-.635 0-.952-.322-.952-.965 0-1.846.317-2.27.952-2.27h10.524c2.783 0 2.174-.504 2.174-1.513v-4.173c0-.626-.427-1.086-1.281-1.38a7.262 7.262 0 0 0-2.112-.317h-9.305c-.635 0-.952-.317-.952-.952v-8.346c0-.635.317-.953.952-.953h12.875c.635 0 .952.318.952.953 0 .431-.049 1.732-.147 1.903-.138.236-.407.354-.805.354H25.649v3.832h7.523c1.57 0 2.897.273 3.98.818 1.456.7 2.184 1.725 2.184 3.076v7.197z"/>
        <path fill-rule="nonzero" d="M51.295 41h-3.13C44.764 41 42 43.762 42 47.156v9.381c0 3.395 2.765 6.156 6.164 6.156h3.131c3.4 0 6.165-2.761 6.165-6.156v-9.38c0-3.395-2.765-6.157-6.165-6.157zm3.23 15.537a3.23 3.23 0 0 1-3.23 3.225h-3.13a3.23 3.23 0 0 1-3.23-3.225v-9.38a3.23 3.23 0 0 1 3.23-3.225h3.13a3.23 3.23 0 0 1 3.23 3.224v9.381zM69.295 41h-3.13C62.764 41 60 43.762 60 47.156v9.381c0 3.395 2.765 6.156 6.164 6.156h3.131c3.4 0 6.165-2.761 6.165-6.156v-9.38c0-3.395-2.765-6.157-6.165-6.157zm3.23 15.537a3.23 3.23 0 0 1-3.23 3.225h-3.13a3.23 3.23 0 0 1-3.23-3.225v-9.38a3.23 3.23 0 0 1 3.23-3.225h3.13a3.23 3.23 0 0 1 3.23 3.224v9.381z"/>
    </g>
</svg>
