<svg xmlns="http://www.w3.org/2000/svg" width="25" height="25" viewBox="0 0 25 25">
    <g fill="#2C354F" fill-rule="evenodd">
        <path fill-rule="nonzero" d="M12.48.04C5.599.04 0 5.639 0 12.52 0 19.402 5.599 25 12.48 25s12.48-5.599 12.48-12.48S19.361.04 12.48.04zm0 23.5c-6.077 0-11.02-4.943-11.02-11.02S6.402 1.5 12.48 1.5 23.5 6.442 23.5 12.52s-4.943 11.02-11.02 11.02z"/>
        <g transform="translate(9 5)">
            <path d="M7.573 13.115c-.097.058-.655.46-1.672 1.202-1.232.9-2.249 1.35-3.05 1.35-1.076 0-1.839-.44-2.288-1.32-.255-.49-.382-1.076-.382-1.76 0-.88.255-2.093.763-3.638.215-.645.508-1.417.88-2.317l4.341-.675-.762 2.083c-.215.528-.499 1.33-.851 2.405-.254.841-.381 1.457-.381 1.848 0 .47.244.704.733.704.548 0 1.437-.4 2.67-1.202v1.32z"/>
            <circle cx="5.067" cy="2.4" r="2.4"/>
        </g>
    </g>
</svg>
