<svg width="30" height="30" viewBox="0 0 30 30" xmlns="http://www.w3.org/2000/svg"><title>F7F38243-C428-468B-A80E-964A9D332DF4</title><g fill-rule="nonzero" fill="none"><path d="M6.563 30h16.875A6.562 6.562 0 0 0 30 23.437V6.563A6.562 6.562 0 0 0 23.437 0H6.563A6.562 6.562 0 0 0 0 6.563v16.875A6.562 6.562 0 0 0 6.563 30z" fill="#2A2F78"/><g fill="#F5F5F5"><path d="M0 23.437v-1.44l4.653-3.05H0v-1.579h12.632V30h-1.58v-9.582L1.038 26.979a6.528 6.528 0 0 1-.806-1.81M29.559 25.807c-.16.413-.36.805-.596 1.172l-10.016-6.561V30h-1.579V17.368H30v1.58h-4.653L30 21.995v1.442c0 .252-.015.5-.042.746M30 6.786v1.218l-4.653 3.049H30v1.579H17.368V0h1.58v9.582l10.015-6.561c.39.606.681 1.28.855 2M.45 4.17a6.54 6.54 0 0 1 .587-1.15l10.016 6.562V0h1.579v12.632H0v-1.58h4.653L0 8.005V6.563c0-.262.016-.52.045-.773"/></g><g fill="#F20808"><path d="M12.632 0h4.736v12.632H30v4.736H17.368V30h-4.736V17.368H0v-4.736h12.632z"/><path d="M21.89 18.947l8.068 5.237a6.52 6.52 0 0 1-.4 1.623l-10.567-6.86h2.9zM9.817 18.947L.23 25.17A6.57 6.57 0 0 1 0 23.437l6.916-4.49h2.9zM20.526 11.053l9.292-6.032c.119.495.182 1.01.182 1.542v.223l-6.574 4.267h-2.9zM8.153 11.053L.046 5.79A6.52 6.52 0 0 1 .45 4.17l10.603 6.883h-2.9z"/></g></g></svg>