<svg xmlns="http://www.w3.org/2000/svg" width="90" height="91" viewBox="0 0 90 91">
    <g fill="none" fill-rule="nonzero">
        <path fill="#F8B64C" d="M89.9 68.542V11.985a3.756 3.756 0 0 0-3.746-3.745H43.268c-2.996 0-5.993-1.498-7.678-4.12C33.904 1.685 30.908 0 27.912 0H3.754A3.756 3.756 0 0 0 .008 3.745v64.797H89.9z"/>
        <path fill="#F2F2F2" d="M6.188 11.985h77.531v42.698H6.188z"/>
        <g fill="#CDD6E0">
            <path d="M13.492 16.854h62.924v4.307H13.492zM13.492 25.843h62.924v4.307H13.492z"/>
        </g>
        <path fill="#FFD15C" d="M89.9 86.333V29.776a3.756 3.756 0 0 0-3.746-3.745H61.995c-2.996 0-5.992 1.498-7.678 4.12-1.685 2.435-4.682 4.12-7.678 4.12H3.754a3.756 3.756 0 0 0-3.746 3.746V86.52a3.756 3.756 0 0 0 3.746 3.746h82.4c2.06-.188 3.745-1.873 3.745-3.933z"/>
    </g>
</svg>
