<svg xmlns="http://www.w3.org/2000/svg" width="33" height="30" viewBox="0 0 33 30">
    <path fill="#2C354F" fill-rule="nonzero" d="M5.762 29.89c-1.54 0-2.988-.6-4.076-1.688a5.771 5.771 0 0 1 0-8.153l17.82-17.821A7.552 7.552 0 0 1 24.885 0c2.031 0 3.942.79 5.378 2.228a7.555 7.555 0 0 1 2.229 5.378c0 2.032-.791 3.941-2.228 5.377L16.235 27.011a1.078 1.078 0 1 1-1.524-1.524L28.74 11.459a5.413 5.413 0 0 0 1.596-3.853 5.417 5.417 0 0 0-1.597-3.854 5.415 5.415 0 0 0-3.854-1.596 5.415 5.415 0 0 0-3.854 1.596L3.21 21.574a3.614 3.614 0 0 0 0 5.103c1.364 1.363 3.74 1.363 5.103 0L20.28 14.71a1.76 1.76 0 0 0 .512-1.235 1.747 1.747 0 0 0-2.981-1.235l-8.173 8.173a1.077 1.077 0 1 1-1.524-1.524l8.172-8.173a3.908 3.908 0 0 1 5.517 0 3.877 3.877 0 0 1 1.145 2.76 3.929 3.929 0 0 1-1.144 2.758L9.838 28.202a5.728 5.728 0 0 1-4.076 1.688z"/>
</svg>
