<?xml version="1.0" encoding="utf-8"?>
<!-- Generator: Adobe Illustrator 21.0.2, SVG Export Plug-In . SVG Version: 6.00 Build 0)  -->
<svg version="1.1" id="Livello_1" xmlns="http://www.w3.org/2000/svg" xmlns:xlink="http://www.w3.org/1999/xlink" x="0px" y="0px"
	 viewBox="0 0 29 28" style="enable-background:new 0 0 29 28;" xml:space="preserve">
<style type="text/css">
	.st0{fill:#003896;}
</style>
<g>
	<path class="st0" d="M1.9,10.2c0.1,0.5,0.4,1,0.6,1.5l-0.7,0.9c-0.2,0.3-0.2,0.7,0.1,1l1.3,1.3c0.3,0.3,0.7,0.3,1,0.1L5,14.2
		c0.5,0.3,1,0.5,1.5,0.6l0.1,1.2c0,0.4,0.4,0.7,0.8,0.7h1.8c0.4,0,0.7-0.3,0.8-0.7l0.1-1.2c0.6-0.1,1.1-0.4,1.6-0.7l0.9,0.7
		c0.3,0.2,0.7,0.2,1-0.1l1.3-1.3c0.3-0.3,0.3-0.7,0.1-1l-0.7-0.9c0.3-0.5,0.5-1,0.7-1.6l1.1-0.1c0.4,0,0.7-0.4,0.7-0.8V7.4
		c0-0.4-0.3-0.7-0.7-0.8L15,6.6C14.9,6,14.6,5.5,14.4,5L15,4.2c0.2-0.3,0.2-0.7-0.1-1l-1.3-1.3c-0.3-0.3-0.7-0.3-1-0.1l-0.8,0.6
		c-0.5-0.3-1.1-0.5-1.7-0.7l-0.1-1C10,0.3,9.7,0,9.3,0H7.5C7.1,0,6.8,0.3,6.7,0.7l-0.1,1C6,1.9,5.4,2.1,4.9,2.5L4.1,1.8
		c-0.3-0.2-0.7-0.2-1,0.1L1.8,3.1c-0.3,0.3-0.3,0.7-0.1,1L2.4,5c-0.3,0.5-0.5,1-0.6,1.6L0.7,6.8C0.3,6.8,0,7.1,0,7.5v1.8
		c0,0.4,0.3,0.7,0.7,0.8L1.9,10.2L1.9,10.2z M8.4,5.3c1.7,0,3,1.3,3,3c0,1.7-1.3,3-3,3c-1.7,0-3-1.3-3-3C5.4,6.7,6.8,5.3,8.4,5.3
		L8.4,5.3z"/>
	<path class="st0" d="M26.3,10.7l-1-0.8c-0.3-0.2-0.7-0.2-1,0l-0.5,0.5c-0.4-0.2-0.9-0.4-1.4-0.5l-0.1-0.7c-0.1-0.4-0.4-0.6-0.8-0.6
		l-1.2,0.1c-0.4,0-0.7,0.3-0.7,0.7l0,0.7c-0.5,0.2-0.9,0.4-1.3,0.7l-0.6-0.4c-0.3-0.2-0.7-0.2-1,0.1l-0.8,1c-0.2,0.3-0.2,0.7,0,1
		l0.6,0.6c-0.2,0.4-0.3,0.9-0.4,1.3l-0.8,0.2c-0.4,0.1-0.6,0.4-0.6,0.8l0.1,1.2c0,0.4,0.3,0.7,0.7,0.7l0.9,0
		c0.2,0.4,0.4,0.8,0.6,1.2l-0.5,0.7c-0.2,0.3-0.2,0.7,0.1,1l1,0.8c0.3,0.2,0.7,0.2,1,0l0.6-0.6c0.4,0.2,0.8,0.3,1.3,0.4l0.2,0.9
		c0.1,0.4,0.4,0.6,0.8,0.6l1.2-0.1c0.4,0,0.7-0.3,0.7-0.7l0-0.8c0.5-0.2,0.9-0.4,1.3-0.6l0.7,0.5c0.3,0.2,0.7,0.2,1-0.1l0.8-1
		c0.2-0.3,0.2-0.7,0-1l-0.6-0.6c0.2-0.4,0.4-0.9,0.4-1.4l0.8-0.2c0.4-0.1,0.6-0.4,0.6-0.8l-0.1-1.2c0-0.4-0.3-0.7-0.7-0.7l-0.8,0
		c-0.2-0.4-0.4-0.9-0.6-1.2l0.4-0.6C26.6,11.4,26.6,10.9,26.3,10.7z M21.6,17.9C20.3,18,19.1,17,19,15.6s0.9-2.5,2.2-2.6
		c1.3-0.1,2.5,0.9,2.6,2.2C23.9,16.6,22.9,17.8,21.6,17.9z M6.2,21.2c-0.4,0-0.7,0.4-0.7,0.7l0,0.8c0,0.4,0.3,0.7,0.7,0.8l0.6,0.1
		c0.1,0.3,0.2,0.7,0.4,1L6.8,25c-0.2,0.3-0.2,0.7,0,1l0.5,0.5c0.3,0.3,0.7,0.3,1,0.1l0.5-0.4c0.3,0.2,0.7,0.3,1,0.4l0.1,0.6
		c0,0.4,0.4,0.7,0.7,0.7l0.8,0c0.4,0,0.7-0.3,0.8-0.7l0.1-0.6c0.4-0.1,0.7-0.2,1.1-0.4l0.4,0.3c0.3,0.2,0.7,0.2,1,0l0.5-0.5
		c0.3-0.3,0.3-0.7,0.1-1L15,24.7c0.2-0.3,0.4-0.7,0.5-1.1l0.5-0.1c0.4,0,0.7-0.4,0.7-0.7l0-0.8c0-0.4-0.3-0.7-0.7-0.8l-0.5-0.1
		c-0.1-0.4-0.2-0.7-0.4-1.1l0.3-0.4c0.2-0.3,0.2-0.7,0-1l-0.5-0.5c-0.3-0.3-0.7-0.3-1-0.1l-0.4,0.3c-0.3-0.2-0.7-0.4-1.1-0.5l0-0.5
		c0-0.4-0.4-0.7-0.7-0.7l-0.8,0c-0.4,0-0.7,0.3-0.8,0.7L10,17.9c-0.4,0.1-0.8,0.3-1.1,0.5l-0.4-0.3c-0.3-0.2-0.7-0.2-1,0l-0.6,0.5
		c-0.3,0.3-0.3,0.7-0.1,1l0.3,0.4c-0.2,0.3-0.3,0.7-0.4,1.1C6.7,21.2,6.2,21.2,6.2,21.2z M11.2,20.4c1.1,0,2,0.9,2,2
		c0,1.1-0.9,2-2,2c-1.1,0-2-0.9-2-2C9.2,21.2,10.1,20.3,11.2,20.4L11.2,20.4z"/>
</g>
</svg>
