<svg xmlns="http://www.w3.org/2000/svg" width="46" height="52" viewBox="0 0 46 52">
    <g fill="#FFF" fill-rule="nonzero" stroke="#414960">
        <path d="M23.04 51a7.749 7.749 0 0 1-7.746-7.745v-3.04h15.49v3.04A7.749 7.749 0 0 1 23.04 51zm-4.805-7.843v.098a4.812 4.812 0 0 0 4.804 4.804 4.812 4.812 0 0 0 4.804-4.804v-.098h-9.608z"/>
        <path d="M44.902 43.157H1.176v-4.873c0-1.225.48-2.382 1.353-3.255l3.52-3.52a4.76 4.76 0 0 0 1.402-3.391v-8.393c0-3.558 1.235-7.039 3.47-9.803a15.713 15.713 0 0 1 7.57-5.098A4.614 4.614 0 0 1 23.028 1a4.606 4.606 0 0 1 4.54 3.843c6.48 2.03 11.058 8.304 11.058 15.363v7.902c0 1.284.5 2.49 1.412 3.392l3.52 3.52a4.577 4.577 0 0 1 1.353 3.255v4.882h-.01zM4.118 40.216H41.96v-1.932c0-.44-.177-.862-.49-1.176l-3.52-3.52a7.705 7.705 0 0 1-2.265-5.48v-7.902c0-6.098-4.157-11.49-9.872-12.804l-1.285-.294.147-1.304c.01-.05.01-.088.02-.137 0-.03.01-.05.01-.079a1.676 1.676 0 0 0-1.667-1.657 1.67 1.67 0 0 0-1.666 1.657c0 .03.01.05.01.079.01.039.01.088.019.127l.157 1.314-1.294.294a12.687 12.687 0 0 0-7.05 4.382c-1.852 2.265-2.823 5.01-2.823 7.941v8.383c0 2.068-.804 4.01-2.265 5.48l-3.52 3.51c-.313.314-.49.735-.49 1.177v1.94z"/>
    </g>
</svg>
