<svg xmlns="http://www.w3.org/2000/svg" xmlns:xlink="http://www.w3.org/1999/xlink" width="24" height="42" viewBox="0 0 24 42">
    <defs>
        <path id="a" d="M16.189 26.294l-1.843-3.071-2.373-3.955-2.368 3.949-1.847 3.077-7.62 1.637 5.69 5.558-1.17 8.458 7.315-3.608 7.315 3.608-1.17-8.458 5.691-5.558z"/>
    </defs>
    <g fill="none" fill-rule="nonzero">
        <path fill="#D8D8D8" fill-opacity=".6" d="M8.584 22.625l2.382-3.97a1.176 1.176 0 0 1 1.007-.573c.412 0 .795.218 1.008.573l2.384 3.974 8.58-5L23.931 0 .002.021l.013 17.63 8.57 4.974z"/>
        <g>
            <use fill="#4990E2" fill-rule="evenodd" xlink:href="#a"/>
            <path stroke="#4990E2" d="M22.793 28.224L17.77 33.13l-.18.176.034.25 1.04 7.524-6.468-3.19-.222-.11-.22.11-6.47 3.19 1.04-7.524.035-.25-.18-.176-5.024-4.907 6.709-1.441.212-.046.112-.186 1.846-3.077 1.94-3.234 1.945 3.24 1.842 3.071.112.186.212.046 6.71 1.44z"/>
        </g>
    </g>
</svg>
