<?xml version="1.0" encoding="utf-8"?>
<!-- Generator: Adobe Illustrator 21.0.2, SVG Export Plug-In . SVG Version: 6.00 Build 0)  -->
<svg version="1.1" id="Livello_1" xmlns="http://www.w3.org/2000/svg" xmlns:xlink="http://www.w3.org/1999/xlink" x="0px" y="0px"
	 viewBox="0 0 25 30" style="enable-background:new 0 0 25 30;" xml:space="preserve">
<style type="text/css">
	.st0{fill:#003896;}
</style>
<g>
	<path class="st0" d="M16.8,0H4.1C2,0,0.2,1.8,0.2,3.9v22.1C0.2,28.2,2,30,4.1,30h16.1c2.2,0,3.9-1.8,3.9-3.9V8.3L16.8,0L16.8,0z
		 M17.3,3.4l3.9,4.3h-3.9C17.3,7.7,17.3,3.4,17.3,3.4z M20.3,28.1H4.1c-1.1,0-2.1-0.9-2.1-2.1V3.9c0-1.1,0.9-2.1,2.1-2.1h11.3v7.7
		h6.9v16.5C22.3,27.2,21.4,28.1,20.3,28.1L20.3,28.1z"/>
	<path class="st0" d="M15.4,19.8c0.5-0.9,0.8-1.9,0.8-2.9c0-3.1-2.5-5.7-5.7-5.7c-3.1,0-5.7,2.5-5.7,5.7c0,3.1,2.5,5.7,5.7,5.7
		c1.1,0,2.2-0.3,3.1-0.9l2.7,2.7c0.5,0.5,1.3,0.5,1.8,0c0,0,0,0,0,0c0.5-0.5,0.5-1.3,0-1.8C18.1,22.5,15.4,19.8,15.4,19.8z
		 M6.7,16.8c0-2.1,1.7-3.8,3.8-3.8s3.8,1.7,3.8,3.8s-1.7,3.8-3.8,3.8C8.4,20.6,6.7,18.9,6.7,16.8L6.7,16.8z"/>
</g>
</svg>
