<svg xmlns="http://www.w3.org/2000/svg" xmlns:xlink="http://www.w3.org/1999/xlink" width="100" height="100" viewBox="0 0 100 100">
    <defs>
        <path id="a" d="M98.435 66.144a2.39 2.39 0 0 1 2.39 2.39v13.86a2.39 2.39 0 0 1-2.39 2.39H2.39A2.39 2.39 0 0 1 0 82.395v-13.86a2.39 2.39 0 0 1 2.39-2.39h80.957V47.363c0-17.965-14.616-32.582-32.581-32.582h-.707c-17.965 0-32.58 14.616-32.58 32.582v12.213a2.39 2.39 0 0 1-4.781 0V47.363c0-20.004 15.802-36.386 35.58-37.319V2.423a2.39 2.39 0 0 1 4.78 0v7.65c19.538 1.188 35.07 17.458 35.07 37.29v18.781h10.307zm-2.39 13.86v-9.079H4.78v9.079h91.263zm-37.012 6.678a2.39 2.39 0 0 1 2.39 2.39c0 6.024-4.9 10.924-10.924 10.924h-.173c-6.023 0-10.924-4.9-10.924-10.924a2.39 2.39 0 0 1 4.781 0 6.15 6.15 0 0 0 6.143 6.144h.173a6.15 6.15 0 0 0 6.143-6.144 2.39 2.39 0 0 1 2.39-2.39z"/>
    </defs>
    <g fill="none" fill-rule="evenodd" transform="translate(-1)">
        <mask id="b" fill="#fff">
            <use xlink:href="#a"/>
        </mask>
        <use fill="#FFF" fill-rule="nonzero" xlink:href="#a"/>
        <g fill="#003896" mask="url(#b)">
            <path d="M1 0h100v100H1z"/>
        </g>
    </g>
</svg>
