<svg xmlns="http://www.w3.org/2000/svg" width="44" height="40" viewBox="0 0 44 40">
    <g fill="#00CDFF" fill-rule="nonzero">
        <path d="M42.108 5.723h-4.665v-4.37a1.31 1.31 0 0 0-1.31-1.31H1.31A1.31 1.31 0 0 0 0 1.353v34.231a4.303 4.303 0 0 0 4.298 4.298H39.12a4.303 4.303 0 0 0 4.298-4.298V7.034a1.31 1.31 0 0 0-1.31-1.31zM2.62 2.663h32.203v32.921c0 .595.121 1.162.341 1.678H4.298a1.68 1.68 0 0 1-1.678-1.678V2.663zm36.5 34.599a1.68 1.68 0 0 1-1.677-1.678V8.344h3.355v27.24a1.68 1.68 0 0 1-1.677 1.678z"/>
        <path d="M5.663 16.958H31.78a1.31 1.31 0 0 0 1.31-1.31V6.893a1.31 1.31 0 0 0-1.31-1.31H5.663a1.31 1.31 0 0 0-1.31 1.31v8.755c0 .724.587 1.31 1.31 1.31zm1.31-8.755H30.47v6.135H6.973V8.203zM5.663 34.179h11.408a1.31 1.31 0 0 0 1.31-1.31V21.46a1.31 1.31 0 0 0-1.31-1.31H5.663a1.31 1.31 0 0 0-1.31 1.31v11.408c0 .724.587 1.31 1.31 1.31zm1.31-11.409h8.788v8.788H6.973V22.77zM31.78 20.15H20.748a1.31 1.31 0 0 0 0 2.62H31.78a1.31 1.31 0 0 0 0-2.62zM31.78 31.558H20.748a1.31 1.31 0 0 0 0 2.62H31.78a1.31 1.31 0 0 0 0-2.62zM31.78 25.853H20.748a1.31 1.31 0 0 0 0 2.62H31.78a1.31 1.31 0 0 0 0-2.62z"/>
    </g>
</svg>
