<svg xmlns="http://www.w3.org/2000/svg" width="21" height="21" viewBox="0 0 21 21">
    <path fill="#00264D" fill-rule="nonzero" d="M12.18 20.944a2.154 2.154 0 0 1-2.458-1.793l-.053-.334a8.056 8.056 0 0 1-2.078-.499l-.195.27a2.13 2.13 0 0 1-1.403.86 2.146 2.146 0 0 1-2.458-1.793c-.09-.567.05-1.139.38-1.605l.196-.27a8.12 8.12 0 0 1-1.115-1.83l-.333.052A2.154 2.154 0 0 1 .205 12.21 2.154 2.154 0 0 1 1.99 9.745l.332-.052a8.25 8.25 0 0 1 .495-2.085l-.269-.197a2.146 2.146 0 0 1-.858-1.409c-.09-.567.05-1.138.388-1.606.331-.467.83-.769 1.403-.86a2.162 2.162 0 0 1 1.6.384l.27.197A8.056 8.056 0 0 1 7.171 3l-.053-.334A2.154 2.154 0 0 1 8.902.2a2.154 2.154 0 0 1 2.458 1.793l.053.334a8.374 8.374 0 0 1 2.078.5l.195-.27a2.13 2.13 0 0 1 1.403-.86 2.162 2.162 0 0 1 1.6.384c.96.7 1.174 2.051.478 3.014l-.196.27a8.12 8.12 0 0 1 1.115 1.83l.333-.053a2.154 2.154 0 0 1 2.458 1.793 2.154 2.154 0 0 1-1.784 2.464l-.332.053a8.25 8.25 0 0 1-.495 2.085l.269.196c.96.7 1.174 2.052.477 3.014a2.13 2.13 0 0 1-1.403.86 2.162 2.162 0 0 1-1.6-.384l-.269-.196a8.056 8.056 0 0 1-1.822 1.116l.053.334a2.166 2.166 0 0 1-1.791 2.466zm-5.107-4.59l.592.28c.85.407 1.757.622 2.705.647l.653.016.253 1.6a.58.58 0 1 0 1.146-.181l-.252-1.593.616-.217a6.734 6.734 0 0 0 2.372-1.45l.476-.45 1.31.955a.568.568 0 0 0 .805-.127.585.585 0 0 0-.13-.816l-1.309-.955.279-.594a6.68 6.68 0 0 0 .642-2.706l.016-.655 1.594-.253a.58.58 0 0 0 .482-.665.58.58 0 0 0-.664-.484l-1.595.252-.217-.618A6.581 6.581 0 0 0 15.4 5.965l-.448-.479.95-1.313a.585.585 0 0 0-.559-.923.582.582 0 0 0-.375.235l-.95 1.313-.592-.28a6.53 6.53 0 0 0-2.697-.648l-.653-.016-.254-1.6a.58.58 0 1 0-1.145.18l.25 1.586-.615.217a6.734 6.734 0 0 0-2.373 1.45l-.476.45-1.308-.947a.568.568 0 0 0-.805.127.572.572 0 0 0 .128.808l1.302.957-.28.593a6.68 6.68 0 0 0-.642 2.706l-.015.655-1.594.253a.58.58 0 0 0-.482.665.58.58 0 0 0 .664.485l1.594-.253.217.619c.317.897.8 1.696 1.447 2.374l.449.479-.95 1.313a.586.586 0 0 0-.107.43.586.586 0 0 0 .672.484.568.568 0 0 0 .375-.235l.945-1.296zm4.029-2.215a3.615 3.615 0 0 1-1.13-7.14c1.957-.31 3.805 1.039 4.117 3.012a3.594 3.594 0 0 1-.644 2.69 3.529 3.529 0 0 1-2.343 1.438zm-.885-5.585a2.042 2.042 0 0 0 .639 4.031 1.998 1.998 0 0 0 1.323-.814 2.04 2.04 0 0 0-1.961-3.217z"/>
</svg>
