<svg xmlns="http://www.w3.org/2000/svg" width="73" height="88" viewBox="0 0 73 88">
    <path fill="#3BC3F2" fill-rule="evenodd" d="M16 67c.373.058-13 1-13 6.458C3 82 20.512 84.915 37.633 84.915 54.753 84.915 70 82 70 73.458 70 68 57.633 67 57.633 67l-1-3S73 66.807 73 73.458C73 83.915 56.053 87.886 37.633 88 19.237 88.114 0 83.915 0 73.458 0 66 16.633 64 16.633 64L16 67zm20-4c10.422 0 18.481-2.728 18.481-2.728L57 71s-2.063 6-21 6c-18.938 0-20-6-20-6l2.733-11.642S25.578 63 36 63zM22.104 45S25.578 47 36 47s14.896-2 14.896-2l1.892 8.061s-2.553 3.256-16.794 2.718c-14.24-.538-15.58-3.577-15.58-3.577L22.103 45zm8.782-37.597C31.493 4.81 33.8 3 36.5 3s5.007 1.81 5.614 4.403L46 24s-2.056 2-9 2-10-2-10-2l3.886-16.597zM25.314 31s1.54 2 10.686 2 11.686-2 11.686-2L49 38s-2.66 2-13 2-12-2-12-2l1.314-7zM59.42 70.98L44.456 6.313A8.123 8.123 0 0 0 36.5 0a8.123 8.123 0 0 0-7.956 6.312L13.581 70.981S11.677 79 36.5 79s23.342-8 22.92-8v-.02z"/>
</svg>
