<?xml version="1.0" encoding="utf-8"?>
<!-- Generator: Adobe Illustrator 21.0.2, SVG Export Plug-In . SVG Version: 6.00 Build 0)  -->
<svg version="1.1" id="Livello_1" xmlns="http://www.w3.org/2000/svg" xmlns:xlink="http://www.w3.org/1999/xlink" x="0px" y="0px"
	 viewBox="0 0 50 50" style="enable-background:new 0 0 50 50;" xml:space="preserve">
<style type="text/css">
	.st0{fill:#003896;}
</style>
<title>ico_avatar_dark_big</title>
<desc>Created with Sketch.</desc>
<g id="Symbols">
	<g id="profilo" transform="translate(-31.000000, -40.000000)">
		<path id="ico_avatar_dark_big" class="st0" d="M39.8,81.2c4.6,4.5,10,6.8,16.2,6.8c6.3,0,11.6-2.2,16.1-6.7
			c-2.6-1.1-6.1-2.3-10.3-3.5c-0.9-0.3-1.4-0.8-1.6-1.6c-0.1-0.3-0.1-0.8-0.1-1.6c0-1.2,0.3-2.4,1-3.7c0.6-1,0.9-2.1,1-3.1l0.1-0.6
			l0.4-0.5c0.6-0.6,1-1.6,1.2-3c0.2-1,0.2-1.8,0-2.3v-0.2c-0.1-0.1-0.1-0.2-0.1-0.2c-0.2-0.8,0-2.6,0.4-5.4c0.2-1.6-0.2-3.2-1.4-4.7
			c-1.2-1.6-3-2.5-5.5-2.6h-2c-2.5,0.2-4.3,1-5.5,2.6c-1.2,1.5-1.7,3.1-1.4,4.7c0.4,2.8,0.5,4.6,0.4,5.4v0v0.1l-0.1,0.2
			c-0.2,0.5-0.1,1.2,0.1,2.3c0.2,1.4,0.6,2.4,1.2,3l0.4,0.5v0.6c0.1,1.1,0.4,2.2,1,3.2c0.4,0.8,0.6,2,0.6,3.6v1.6
			c-0.2,0.7-0.7,1.2-1.6,1.6h-0.1C46.6,78.6,43.3,79.8,39.8,81.2 M72.2,48.8C67.7,44.3,62.3,42,56,42s-11.7,2.2-16.2,6.7
			C35.3,53.3,33,58.7,33,65c0,5.5,1.8,10.4,5.4,14.7c2.6-1.2,6.3-2.4,10.8-3.7c0.2-0.1,0.4-0.5,0.4-1.3c0-1.3-0.2-2.2-0.5-2.9
			c-0.4-0.9-0.8-2.1-1.1-3.7c-0.7-1-1.3-2.3-1.7-4c-0.2-1.4-0.2-2.6,0-3.4v-0.1l0.1-0.1c0.2-0.8,0.1-2.3-0.4-4.6
			c-0.4-2.1,0.2-4.2,1.8-6.3c1.5-2,3.8-3.1,7-3.4h2c3.2,0.2,5.6,1.3,7.1,3.4c1.6,2.1,2.2,4.2,1.8,6.3c-0.5,2.2-0.6,3.8-0.4,4.6v0.2
			c0.3,1,0.4,2.1,0.1,3.4c-0.4,1.7-1,3-1.7,4c-0.3,1.6-0.7,2.8-1.1,3.7C62.3,73,62,74,62,74.6s0.1,1,0.4,1.2c4,1.2,7.7,2.5,11.2,3.8
			C77.2,75.4,79,70.5,79,65C79,58.7,76.7,53.3,72.2,48.8 M38.3,47.3C43.2,42.4,49.1,40,56,40s12.8,2.4,17.7,7.3
			C78.6,52.2,81,58.1,81,65s-2.4,12.8-7.3,17.7C68.8,87.6,62.9,90,56,90s-12.8-2.4-17.7-7.3C33.4,77.8,31,71.9,31,65
			S33.4,52.2,38.3,47.3"/>
	</g>
</g>
</svg>
