<?xml version="1.0" encoding="utf-8"?>
<!-- Generator: Adobe Illustrator 21.0.2, SVG Export Plug-In . SVG Version: 6.00 Build 0)  -->
<svg version="1.1" id="Layer_1" xmlns="http://www.w3.org/2000/svg" xmlns:xlink="http://www.w3.org/1999/xlink" x="0px" y="0px"
	 viewBox="0 0 28 26.3" style="enable-background:new 0 0 28 26.3;" xml:space="preserve">
<style type="text/css">
	.st0{fill:#003896;}
</style>
<title>ico_membri</title>
<path class="st0" d="M5.2,10.7c0.7,0,1.3,0.1,2,0.2c1.1,0.2,2,0.3,2.6-0.2c0.4-0.4,0.7-1.1,0.6-1.7c0-1.9-1.2-3.5-2.9-4.1
	C7.9,4.4,8.2,3.7,8.2,3c0-1.7-1.3-3-3-3s-3,1.3-3,3c0,0.7,0.3,1.4,0.7,1.9C1.1,5.5,0,7.2,0,9c-0.1,0.6,0.2,1.2,0.6,1.7
	c0.7,0.6,2.1,0.3,2.6,0.2C3.9,10.8,4.5,10.8,5.2,10.7z M5.2,0.9C6.3,1,7.2,1.9,7.3,3c0.1,1.1-0.8,2.1-1.9,2.2
	C4.2,5.3,3.2,4.4,3.1,3.3c0-0.1,0-0.2,0-0.3C3.1,1.9,4.1,1,5.2,0.9z M1.2,10C0.9,9.7,0.8,9.4,0.9,9c0-1.7,0.9-2.8,2.8-3.4
	c0.9,0.5,2,0.5,2.9,0C8.5,6.3,9.5,7.4,9.5,9c0.1,0.4,0,0.7-0.3,1c-0.3,0.3-1,0.1-1.9,0C6.6,9.9,5.9,9.8,5.2,9.8
	c-0.7,0-1.4,0.1-2.1,0.2C2.2,10.2,1.5,10.3,1.2,10z"/>
<path class="st0" d="M25.1,5c0.5-0.6,0.7-1.3,0.7-2c0-1.7-1.3-3-3-3s-3,1.3-3,3c0,0.7,0.3,1.4,0.8,2c-1.7,0.6-2.9,2.2-2.9,4
	c-0.1,0.6,0.1,1.3,0.6,1.7c0.7,0.6,2.1,0.3,2.6,0.2c0.7-0.1,1.3-0.2,2-0.2c0.7,0,1.3,0.1,2,0.2c1.1,0.2,2,0.3,2.6-0.2
	c0.4-0.5,0.6-1.1,0.6-1.7C28,7.2,26.8,5.6,25.1,5z M22.8,1c1.1,0,2,0.9,2.1,2c0.1,1.1-0.8,2.1-1.9,2.2s-2.1-0.8-2.2-1.9
	c0-0.1,0-0.2,0-0.3C20.8,1.9,21.7,1,22.8,1L22.8,1z M26.8,10.1c-0.3,0.3-1,0.1-1.9,0c-0.7-0.1-1.4-0.2-2.1-0.2
	c-0.7,0-1.4,0.1-2.1,0.2c-0.6,0.2-1.3,0.2-1.9,0c-0.2-0.3-0.3-0.6-0.3-1c0-1.7,1-2.8,2.9-3.4c0.9,0.5,2,0.5,2.9,0
	c1.9,0.6,2.9,1.7,2.9,3.3C27.2,9.4,27.1,9.7,26.8,10.1L26.8,10.1z"/>
<path class="st0" d="M16.3,20.1c1.1-1.2,1-3.1-0.3-4.2s-3.1-1-4.2,0.3c-1,1.1-1,2.8,0,3.9c-1.8,0.6-3,2.2-2.9,4.1
	c-0.1,0.6,0.1,1.3,0.6,1.7c0.7,0.6,2.1,0.3,2.6,0.2c0.7-0.1,1.3-0.2,2-0.2c0.7,0,1.3,0.1,2,0.2c1.1,0.2,2,0.3,2.6-0.2
	c0.5-0.5,0.7-1.1,0.6-1.7C19.2,22.3,18,20.7,16.3,20.1z M14,16.1c1.1,0,2.1,0.9,2.1,2.1s-0.9,2.1-2.1,2.1s-2.1-0.9-2.1-2.1l0,0
	C11.9,17,12.8,16.1,14,16.1L14,16.1z M18,25.2c-0.3,0.3-1,0.1-1.9,0C15.4,25.1,14.7,25,14,25c-0.7,0-1.4,0.1-2.1,0.2
	c-0.6,0.2-1.3,0.2-1.9,0c-0.2-0.3-0.3-0.6-0.3-1c0-1.7,0.9-2.8,2.8-3.4c0.9,0.5,2,0.5,2.9,0c1.9,0.6,2.8,1.8,2.8,3.4
	C18.3,24.6,18.2,24.9,18,25.2L18,25.2z"/>
<path class="st0" d="M18.7,20l0.5,0.8c3.3-1.8,5.5-5.2,5.6-9h-0.9C23.8,15.3,21.8,18.4,18.7,20z"/>
<path class="st0" d="M14,1.4c1.7,0,3.3,0.4,4.7,1.2l0.5-0.8c-1.6-0.9-3.4-1.3-5.2-1.3c-1.8,0-3.6,0.5-5.1,1.3l0.4,0.8
	C10.7,1.8,12.4,1.4,14,1.4z"/>
<path class="st0" d="M9.7,20.3c-3.3-1.6-5.4-4.8-5.6-8.5H3.2c0.2,4,2.5,7.5,6.1,9.3L9.7,20.3z"/>
<rect x="13.6" y="10" class="st0" width="0.9" height="0.9"/>
<rect x="15.4" y="10" class="st0" width="0.9" height="0.9"/>
<rect x="11.7" y="10" class="st0" width="0.9" height="0.9"/>
</svg>
