<?xml version="1.0" encoding="UTF-8"?>
<svg width="84px" height="75px" viewBox="0 0 84 75" version="1.1" xmlns="http://www.w3.org/2000/svg" xmlns:xlink="http://www.w3.org/1999/xlink">
    <!-- Generator: Sketch 43.2 (39069) - http://www.bohemiancoding.com/sketch -->
    <title>invio</title>
    <desc>Created with Sketch.</desc>
    <defs></defs>
    <g id="Page-1" stroke="none" stroke-width="1" fill="none" fill-rule="evenodd">
        <g id="Desktop-Landscape" transform="translate(-746.000000, -587.000000)" fill-rule="nonzero" fill="#3BC3F2">
            <path d="M828.959388,659.245724 L808.098729,611.020724 C807.782494,610.288487 806.987953,609.885855 806.208235,610.067434 L785.108424,614.959211 C785.090635,614.963158 785.075812,614.974013 785.058024,614.977961 C784.950306,615.006579 784.847529,615.045066 784.749694,615.094408 C784.716094,615.111184 784.683482,615.128947 784.650871,615.147697 C784.559953,615.200987 784.475953,615.261184 784.396894,615.330263 C784.377129,615.348026 784.3544,615.361842 784.335624,615.380592 C784.242729,615.470395 784.161694,615.570066 784.091529,615.678618 C784.075718,615.703289 784.063859,615.729934 784.049035,615.755592 C783.997647,615.845395 783.955153,615.940132 783.921553,616.039803 C783.914635,616.060526 783.901788,616.077303 783.895859,616.097039 C783.890918,616.113816 783.891906,616.131579 783.887953,616.148355 C783.860282,616.251974 783.844471,616.359539 783.837553,616.470066 C783.836565,616.494737 783.830635,616.519408 783.829647,616.545066 C783.829647,616.551974 783.827671,616.558882 783.827671,616.565789 L783.827671,629.624671 L770.450918,620.899013 C769.907388,620.544737 769.205741,620.540789 768.659247,620.889145 L751.977835,631.500658 C751.447153,631.837171 751.154635,632.447039 751.222824,633.071711 C751.291012,633.696382 751.708047,634.228289 752.299012,634.443421 L826.940424,661.64375 C826.994776,661.663487 827.050118,661.68125 827.105459,661.697039 C827.245788,661.734539 827.388094,661.752303 827.528424,661.752303 L827.564,661.752303 C828.468235,661.742434 829.198541,661.007237 829.198541,660.102303 C829.198541,659.788487 829.111576,659.495395 828.959388,659.245724 Z M756.578071,632.4875 L769.5368,624.245395 L814.576612,653.622697 L756.578071,632.4875 Z M787.135294,631.781908 L787.135294,620.655263 L816.177553,650.724342 L787.135294,631.781908 Z M788.695718,617.516118 L805.612329,613.594408 L822.4064,652.41875 L788.695718,617.516118 Z M761.251435,599.108553 C761.788047,599.846711 761.624,600.877961 760.8848,601.416776 C760.591294,601.627961 760.252329,601.730592 759.915341,601.730592 C759.628753,601.730592 759.349082,601.648684 759.097082,601.505592 C759.075341,601.500658 759.054588,601.502632 759.033835,601.496711 C758.998259,601.485855 758.135529,601.248026 756.9032,600.745724 C756.058259,600.401316 755.652094,599.438158 755.996988,598.594408 C756.204518,598.087171 756.637365,597.740789 757.132471,597.618421 C757.052424,597.153618 757.003012,596.681908 757.003012,596.202303 C757.003012,595.290461 757.742212,594.526645 758.655341,594.526645 C759.568471,594.526645 760.308659,595.239145 760.308659,596.150987 C760.308659,596.163816 760.307671,596.227961 760.307671,596.240789 C760.307671,597.253289 760.633788,598.258882 761.251435,599.108553 Z M758.961694,593.609868 C758.227435,593.068092 758.072282,592.034868 758.613835,591.301645 C759.643576,589.910197 761.116047,588.85625 762.759482,588.334211 C763.630118,588.060855 764.559059,588.538487 764.835765,589.406908 C765.113459,590.275329 764.632188,591.203947 763.762541,591.480263 C762.776282,591.792105 761.891812,592.425658 761.273176,593.2625 C760.949035,593.701645 760.448988,593.932566 759.943012,593.932566 C759.601082,593.932566 759.257176,593.827961 758.961694,593.609868 Z M771.877929,594.575987 L771.883859,594.575987 C772.796,594.578947 773.533224,595.320066 773.530259,596.231908 C773.524329,597.986513 772.973882,599.660197 771.937224,601.072368 C771.614071,601.513487 771.112047,601.747368 770.603106,601.747368 C770.264141,601.747368 769.922212,601.64375 769.627718,601.428618 C768.890494,600.889803 768.731388,599.857566 769.270965,599.122368 C769.891576,598.275658 770.221647,597.273026 770.2256,596.221053 C770.228565,595.311184 770.967765,594.575987 771.877929,594.575987 Z M766.825082,591.499013 C765.9584,591.212829 765.488,590.279276 765.774588,589.412829 C766.061176,588.548355 766.996047,588.079605 767.862729,588.363816 C769.501224,588.904605 770.961835,589.975329 771.974776,591.378618 C772.508424,592.11875 772.340424,593.15 771.600235,593.682895 C771.307718,593.893092 770.969741,593.994737 770.634729,593.994737 C770.121835,593.994737 769.615859,593.756908 769.292706,593.309868 C768.683953,592.466118 767.807388,591.822697 766.825082,591.499013 Z M754.725129,595.919079 C755.491012,596.416447 755.707435,597.438816 755.209365,598.202632 C754.892141,598.689145 754.362447,598.953618 753.821882,598.953618 C753.513553,598.953618 753.201271,598.867763 752.922588,598.687171 C751.523247,597.777303 750.339341,596.762829 749.406447,595.670395 C748.814494,594.976645 748.896518,593.934539 749.591247,593.343421 C750.285976,592.751316 751.329553,592.834211 751.921506,593.527961 C752.647859,594.378618 753.591624,595.182895 754.725129,595.919079 Z M750.310682,590.534868 C750.536,591.418092 750.002353,592.318092 749.118871,592.542105 C748.981506,592.577632 748.844141,592.593421 748.708753,592.593421 C747.971529,592.593421 747.299529,592.098026 747.1088,591.351974 C746.906212,590.558553 746.803435,589.733553 746.803435,588.898684 C746.803435,587.987829 747.542635,587.248684 748.455765,587.248684 C749.367906,587.248684 750.108094,587.986842 750.108094,588.898684 C750.108094,589.458224 750.176282,590.008882 750.310682,590.534868 Z M775.125271,611.969079 C775.979106,612.287829 776.414918,613.238158 776.096706,614.091776 C775.848659,614.754934 775.219153,615.166447 774.548141,615.166447 C774.357412,615.166447 774.163718,615.132895 773.973976,615.062829 C773.939388,615.05 773.118165,614.744079 771.920424,614.138158 C771.106118,613.726645 770.780988,612.732895 771.193082,611.919737 C771.606165,611.106579 772.602306,610.782895 773.414635,611.193421 C774.430541,611.707566 775.118353,611.966118 775.125271,611.969079 Z M770.140612,609.201974 C770.878824,609.738816 771.040894,610.771053 770.503294,611.50625 C770.180141,611.950329 769.676141,612.185197 769.166212,612.185197 C768.828235,612.185197 768.487294,612.081579 768.193788,611.868421 C766.936753,610.954605 765.822024,609.964803 764.880235,608.925658 C764.267529,608.249671 764.318918,607.206579 764.995859,606.594737 C765.6728,605.982895 766.717365,606.035197 767.330071,606.710197 C768.120659,607.582566 769.0664,608.420395 770.140612,609.201974 Z M765.443529,604.439474 C765.443529,605.054276 765.103576,605.645395 764.510635,605.929605 C764.280376,606.040132 764.037271,606.091447 763.797129,606.091447 C763.181459,606.091447 762.589506,605.746053 762.305882,605.154934 C761.961976,604.439474 761.683294,603.700329 761.475765,602.955263 C761.230682,602.075987 761.745553,601.166118 762.625082,600.922368 C762.654729,600.913487 762.685365,600.913487 762.716,600.906579 C763.034212,600.805921 763.384047,600.797039 763.725976,600.908553 C764.704329,601.227303 765.800282,601.233224 766.787529,600.914474 C767.656188,600.638158 768.588094,601.109868 768.868753,601.977303 C769.148424,602.844737 768.672094,603.775329 767.803435,604.055592 C767.042494,604.301316 766.247953,604.422697 765.443529,604.439474 Z" id="invio"></path>
        </g>
    </g>
</svg>