<?xml version="1.0" encoding="UTF-8"?>
<svg width="74px" height="75px" viewBox="0 0 74 75" version="1.1" xmlns="http://www.w3.org/2000/svg" xmlns:xlink="http://www.w3.org/1999/xlink">
    <!-- Generator: Sketch 43.2 (39069) - http://www.bohemiancoding.com/sketch -->
    <title>invio_proposta</title>
    <desc>Created with Sketch.</desc>
    <defs></defs>
    <g id="Page-1" stroke="none" stroke-width="1" fill="none" fill-rule="evenodd">
        <g id="Desktop-Landscape" transform="translate(-232.000000, -160.000000)" fill-rule="nonzero" fill="#3BC3F2">
            <path d="M239.205198,214.738338 C240.259137,216.603742 242.017088,217.968611 244.085491,218.527385 C244.772333,218.713131 245.480687,218.807409 246.192201,218.807774 C247.597288,218.80657 248.97729,218.435433 250.193435,217.731685 L254.103732,215.458257 L258.786994,229.280701 C259.732954,232.07265 262.165823,234.097446 265.08312,234.52076 C268.000418,234.944073 270.908447,233.694266 272.608934,231.286329 C274.309422,228.878392 274.514593,225.719823 273.139905,223.112132 L265.607279,208.835002 L268.638517,207.084462 L291.221238,208.251489 C291.788354,208.288449 292.342105,208.068865 292.729775,207.653295 C293.117444,207.237725 293.298077,206.670072 293.221855,206.106888 C290.766844,188.899615 281.788544,173.295444 268.145941,162.525267 C267.701158,162.172266 267.12149,162.037386 266.566558,162.157768 C266.011626,162.27815 265.539953,162.641099 265.281421,163.146671 L254.9449,183.27409 L236.499818,193.883422 C232.645631,196.105655 231.319671,201.029679 233.536784,204.886815 L239.205198,214.738338 Z M255.679976,187.222277 L265.607279,204.462442 L259.499335,207.978677 L249.541719,190.738513 L255.679976,187.222277 Z M269.797965,224.87025 C270.452368,226.208999 270.318077,227.799071 269.448415,229.009103 C268.578753,230.219136 267.114453,230.853317 265.636936,230.659836 C264.159419,230.466354 262.907784,229.47652 262.379011,228.083362 L257.460828,213.525843 L262.325964,210.721948 L269.797965,224.87025 Z M267.585162,166.96603 C278.873473,176.556001 286.478592,189.770532 289.099372,204.34877 L269.320546,203.325727 L258.536917,184.5851 L267.585162,166.96603 Z M238.386764,197.179893 L246.283138,192.633036 L256.210442,209.895935 L248.314068,214.442792 C247.331719,215.00558 246.165715,215.154074 245.073665,214.855467 C243.981614,214.556859 243.053399,213.835727 242.494091,212.851392 L236.825677,202.999869 C235.652958,200.961207 236.351213,198.358004 238.386764,197.179893 L238.386764,197.179893 Z M289.10695,177.310129 L298.155195,172.103978 C299.055299,171.639148 300.161812,171.964665 300.666823,172.842856 C301.171834,173.721047 300.896626,174.841133 300.04214,175.385293 L290.993896,180.561132 C290.114968,180.932465 289.09704,180.592217 288.618067,179.766998 C288.139094,178.941779 288.348556,177.889129 289.10695,177.310129 L289.10695,177.310129 Z M282.938381,170.414063 L288.826561,161.759879 C289.418776,160.889344 290.604569,160.663721 291.475105,161.255936 C292.34564,161.848151 292.571263,163.033945 291.979048,163.90448 L286.060556,172.520774 C285.678814,173.07985 285.027806,173.392801 284.35276,173.341741 C283.677714,173.29068 283.081187,172.883366 282.787883,172.273229 C282.49458,171.663093 282.549061,170.942827 282.930803,170.383751 L282.938381,170.414063 Z M293.547713,185.615721 L303.960015,184.857911 C305.006332,184.780484 305.917306,185.565924 305.994733,186.61224 C306.072161,187.658557 305.286721,188.569531 304.240405,188.646959 L293.828103,189.404768 L293.684119,189.404768 C293.007271,189.429134 292.368838,189.090556 292.009312,188.516572 C291.649786,187.942587 291.623787,187.220399 291.941109,186.622048 C292.258431,186.023697 292.870865,185.640087 293.547713,185.615721 Z" id="invio_proposta"></path>
        </g>
    </g>
</svg>