<?xml version="1.0" encoding="utf-8"?>
<!-- Generator: Adobe Illustrator 21.0.2, SVG Export Plug-In . SVG Version: 6.00 Build 0)  -->
<svg version="1.1" id="Livello_1" xmlns="http://www.w3.org/2000/svg" xmlns:xlink="http://www.w3.org/1999/xlink" x="0px" y="0px"
	 viewBox="0 0 29 29" style="enable-background:new 0 0 29 29;" xml:space="preserve">
<style type="text/css">
	.st0{fill:none;}
	.st1{fill:#003896;}
</style>
<title>Fill 1</title>
<desc>Created with Sketch.</desc>
<g>
	<path class="st0" d="M22.5,18.2c-2.4,0-4.4,2-4.4,4.4c0,2.4,2,4.4,4.4,4.4c2.4,0,4.4-2,4.4-4.4C26.9,20.1,25,18.2,22.5,18.2z
		 M23.9,25.7h-0.3h-2.3c-0.1,0-0.2-0.1-0.3-0.2c-0.1-0.1-0.1-0.2-0.1-0.4c0-0.1,0.1-0.3,0.1-0.4c0.1-0.1,0.2-0.2,0.3-0.2h2.5h0.2
		c0.1,0,0.2,0.1,0.3,0.2c0.1,0.1,0.1,0.2,0.1,0.4C24.3,25.4,24.1,25.7,23.9,25.7z M24.4,22.5l-1.3,1.3L22.9,24
		c-0.1,0.1-0.1,0.1-0.2,0.1c0,0-0.1,0-0.1,0c-0.1,0-0.1,0-0.1,0c0,0,0,0-0.1,0s0,0-0.1,0c0,0-0.1,0-0.1,0L22,23.8l-1.3-1.3
		c-0.1-0.1-0.1-0.2-0.1-0.3s0.1-0.2,0.1-0.3c0.1-0.1,0.2-0.1,0.3-0.1c0.1,0,0.2,0.1,0.3,0.1l0.8,0.8V21v-1c0-0.1,0.1-0.2,0.1-0.3
		c0.1-0.1,0.2-0.1,0.3-0.1s0.2,0.1,0.3,0.1c0.1,0.1,0.1,0.2,0.1,0.3v0.7v1.9l0.8-0.8c0.1-0.1,0.2-0.1,0.3-0.1s0.2,0,0.3,0.1
		c0.1,0.1,0.1,0.2,0.1,0.3S24.5,22.4,24.4,22.5z"/>
	<path class="st1" d="M15.6,26.4l-0.1-0.1l-0.1,0c-1.4,0.3-2.9,0.4-4.4,0.4c-5.8,0-9.9-2-9.9-3.7v-3.9c1.8,1.6,5.6,2.7,9.9,2.7
		c1.1,0,2.2-0.1,3.2-0.2l0.1,0l0-0.1c0-0.2,0.1-0.5,0.1-0.7l0-0.2l-0.3,0c-1.1,0.2-2.2,0.2-3.3,0.2c-5.8,0-9.9-2-9.9-3.7V13
		c1.8,1.6,5.6,2.7,9.9,2.7c4.3,0,8.1-1,9.9-2.7v1.4l0.2,0c0.2,0,0.5-0.1,0.7-0.1l0.2,0V4.8C22,2.1,17.1,0,11,0C4.8,0,0,2.1,0,4.8V23
		c0,2.7,4.8,4.8,11,4.8c1.7,0,3.4-0.2,5-0.5l0.3-0.1L16.1,27C15.9,26.8,15.7,26.6,15.6,26.4z M20.9,10.9c0,1.8-4.1,3.7-9.9,3.7
		s-9.9-2-9.9-3.7V7C2.9,8.6,6.7,9.6,11,9.6c4.3,0,8.1-1,9.9-2.7V10.9z M11,1.1c5.8,0,9.9,2,9.9,3.7S16.8,8.6,11,8.6s-9.9-2-9.9-3.7
		C1.1,3.1,5.1,1.1,11,1.1z"/>
	<path class="st1" d="M22.5,17c-3,0-5.5,2.5-5.5,5.5c0,3,2.5,5.5,5.5,5.5c3,0,5.5-2.5,5.5-5.5C28.1,19.5,25.6,17,22.5,17z
		 M22.5,26.9c-2.4,0-4.4-2-4.4-4.4c0-2.4,2-4.4,4.4-4.4c2.4,0,4.4,2,4.4,4.4C26.9,25,25,26.9,22.5,26.9z"/>
	<path class="st1" d="M23.9,24.6h-0.2h-2.5c-0.1,0-0.2,0.1-0.3,0.2c-0.1,0.1-0.1,0.2-0.1,0.4c0,0.1,0.1,0.3,0.1,0.4
		c0.1,0.1,0.2,0.2,0.3,0.2h2.3h0.3c0.2,0,0.4-0.3,0.4-0.6c0-0.1-0.1-0.3-0.1-0.4C24.1,24.7,24,24.6,23.9,24.6z"/>
	<path class="st1" d="M24.1,21.9c-0.1,0-0.2,0.1-0.3,0.1L23,22.8v-1.9v-0.7c0-0.1-0.1-0.2-0.1-0.3c-0.1-0.1-0.2-0.1-0.3-0.1
		s-0.2,0.1-0.3,0.1c-0.1,0.1-0.1,0.2-0.1,0.3v1v1.7L21.3,22c-0.1-0.1-0.2-0.1-0.3-0.1c-0.1,0-0.2,0.1-0.3,0.1
		c-0.1,0.1-0.1,0.2-0.1,0.3s0.1,0.2,0.1,0.3l1.3,1.3l0.3,0.3c0,0,0,0,0.1,0c0,0,0,0,0.1,0s0,0,0.1,0c0.1,0,0.1,0,0.1,0
		c0,0,0.1,0,0.1,0c0.1,0,0.1-0.1,0.2-0.1l0.3-0.3l1.3-1.3c0.1-0.1,0.1-0.2,0.1-0.3s-0.1-0.2-0.1-0.3C24.3,21.9,24.2,21.9,24.1,21.9z
		"/>
</g>
</svg>
