<?xml version="1.0" encoding="utf-8"?>
<!-- Generator: Adobe Illustrator 21.0.2, SVG Export Plug-In . SVG Version: 6.00 Build 0)  -->
<svg version="1.1" id="Livello_1" xmlns="http://www.w3.org/2000/svg" xmlns:xlink="http://www.w3.org/1999/xlink" x="0px" y="0px"
	 viewBox="0 0 28 28" style="enable-background:new 0 0 28 28;" xml:space="preserve">
<style type="text/css">
	.st0{fill:#003896;}
</style>
<title>security-data</title>
<desc>Created with Sketch.</desc>
<g id="Page-1">
	<g id="Visual" transform="translate(-646.000000, -135.000000)">
		<g id="security-data" transform="translate(646.000000, 135.000000)">
			<path id="Shape" class="st0" d="M8.4,8.2C8.1,8.2,7.9,8,7.9,7.7s0.2-0.5,0.5-0.5h11c0.3,0,0.5,0.2,0.5,0.5s-0.2,0.5-0.5,0.5H8.4z
				 M8.4,5C8.1,5,7.9,4.8,7.9,4.6c0-0.2,0.2-0.5,0.5-0.5H13c0.3,0,0.5,0.2,0.5,0.5C13.4,4.8,13.2,5,13,5H8.4z M8.4,11.3
				c-0.3,0-0.5-0.2-0.5-0.5s0.2-0.5,0.5-0.5h11c0.3,0,0.5,0.2,0.5,0.5s-0.2,0.5-0.5,0.5H8.4z M24.1,21.9c0.1,0,0.2,0,0.3,0.1
				c0.1,0.1,0.1,0.2,0.1,0.3s-0.1,0.2-0.1,0.3l-1.3,1.3L22.9,24c-0.1,0.1-0.1,0.1-0.2,0.1c0,0-0.1,0-0.1,0c-0.1,0-0.1,0-0.1,0
				c0,0,0,0-0.1,0s0,0-0.1,0c0,0-0.1,0-0.1,0L22,23.8l-1.3-1.3c-0.1-0.1-0.1-0.2-0.1-0.3s0.1-0.2,0.1-0.3c0.1-0.1,0.2-0.1,0.3-0.1
				s0.2,0.1,0.3,0.1l0.8,0.8V21v-1c0-0.1,0.1-0.2,0.1-0.3s0.2-0.1,0.3-0.1s0.2,0.1,0.3,0.1S23,20,23,20.1v0.7v1.9l0.8-0.8
				C23.9,21.9,24,21.9,24.1,21.9z M23.9,24.6c0.1,0,0.2,0.1,0.3,0.2c0.1,0.1,0.1,0.2,0.1,0.4c0,0.3-0.2,0.6-0.4,0.6h-0.3h-2.3
				c-0.1,0-0.2-0.1-0.3-0.2c-0.1-0.1-0.1-0.2-0.1-0.4s0.1-0.3,0.1-0.4c0.1-0.1,0.2-0.2,0.3-0.2h2.5H23.9z M22.5,17
				c-3,0-5.5,2.5-5.5,5.5c0,3,2.5,5.5,5.5,5.5c3,0,5.5-2.5,5.5-5.5S25.6,17,22.5,17z M22.5,26.9c-2.4,0-4.4-2-4.4-4.4s2-4.4,4.4-4.4
				s4.4,2,4.4,4.4S25,26.9,22.5,26.9z M1,6.7c0-0.2,0.2-0.3,0.3-0.3H2v14.9L1,23.7V6.7z M2.9,5.5V3.2h0.5v14.4l-0.5,1.2V5.5z
				 M4.3,2.3h0.5v11.6l0,0.1l-0.4,1.2V2.3z M5.6,1.4h16.5v7.2v4.1H6c-0.1,0-0.2,0-0.3,0c0,0,0,0,0,0V1.4z M23.1,9.5h0.6
				c0.2,0,0.3,0.1,0.3,0.3v2.8h-0.9V9.5z M16.5,26.7H1.3c-0.1,0-0.2-0.1-0.2-0.1c0,0-0.1-0.1-0.1-0.2L2,23.9v0l1.4-3.7l1.4-3.7v0
				l0.9-2.4l0-0.1l0.1-0.2l0,0c0-0.1,0.1-0.2,0.3-0.2h16.2h0.9h1.8h1.6c0.2,0,0.2,0.2,0.2,0.4l-0.5,1.4c0.3,0.2,0.5,0.3,0.8,0.5
				l0.7-1.8V14c0-0.8-0.5-1.3-1.2-1.3h-1.6V9.9c0-0.7-0.6-1.2-1.3-1.2h-0.6V0.5H4.7v0.9H3.3v0.9H2v3.2H1.4C0.7,5.5,0.1,6,0.1,6.7
				v19.7h0c0,0.3,0.1,0.5,0.2,0.7c0.2,0.3,0.6,0.5,0.9,0.5h16.2C17.1,27.3,16.8,27,16.5,26.7L16.5,26.7z"/>
		</g>
	</g>
</g>
</svg>
