<?xml version="1.0" encoding="UTF-8"?>
<svg width="61px" height="55px" viewBox="0 0 61 55" version="1.1" xmlns="http://www.w3.org/2000/svg" xmlns:xlink="http://www.w3.org/1999/xlink">
    <!-- Generator: Sketch 43.2 (39069) - http://www.bohemiancoding.com/sketch -->
    <title>newsletter</title>
    <desc>Created with Sketch.</desc>
    <defs></defs>
    <g id="Page-1" stroke="none" stroke-width="1" fill="none" fill-rule="evenodd">
        <g id="Desktop-Landscape" transform="translate(-610.000000, -398.000000)" stroke="#3BC3F2" stroke-width="1.2" fill="#3BC3F2" fill-rule="nonzero">
            <path d="M669.006847,420.949163 L669.006974,420.949037 L661.620668,416.0944 L661.620668,399.867869 C661.620668,399.343338 661.191725,398.91809 660.662635,398.91809 L620.362659,398.91809 C619.833569,398.91809 619.404626,399.343338 619.404626,399.867869 L619.404626,416.09554 L612.019597,420.949037 L612.019725,420.94929 C611.761439,421.119364 611.590909,421.410123 611.590909,421.740646 L611.590909,451.153401 C611.590909,451.677932 612.019852,452.10318 612.548942,452.10318 L668.477629,452.10318 C669.006719,452.10318 669.435662,451.677932 669.435662,451.153401 L669.435662,421.740646 C669.435662,421.410123 669.265132,421.119364 669.006847,420.949163 L669.006847,420.949163 Z M619.404626,424.27073 L614.145664,421.784969 L619.404626,418.492402 L619.404626,424.27073 Z M613.506975,423.319558 L635.53854,434.905595 L613.506975,449.383646 L613.506975,423.319558 L613.506975,423.319558 Z M640.512902,433.915419 L665.298748,450.203622 L615.727184,450.203622 L640.512902,433.915419 L640.512902,433.915419 Z M645.487648,434.905722 L667.519469,423.319558 L667.519469,449.384153 L645.487648,434.905722 L645.487648,434.905722 Z M661.620668,418.365765 C661.620668,418.365765 666.773608,421.911606 666.773608,421.911606 C666.773608,421.911606 661.620668,424.271364 661.620668,424.271364 L661.620668,418.365765 Z M659.704602,400.817648 L659.704602,425.279016 L643.670068,433.71128 L641.04212,431.984329 C640.72137,431.773478 640.304307,431.773478 639.983557,431.984329 L637.355992,433.711027 L621.320692,425.278382 L621.320692,400.817648 L659.704602,400.817648 L659.704602,400.817648 Z M640.512647,423.896137 L648.145487,423.896137 C648.674577,423.896137 649.10352,423.47089 649.10352,422.946359 C649.10352,422.421827 648.674577,421.99658 648.145487,421.99658 L640.512647,421.99658 C636.83214,421.99658 633.83784,419.028077 633.83784,415.37928 L633.83784,415.099031 C633.83784,411.450234 636.83214,408.481731 640.512647,408.481731 C644.193154,408.481731 647.187454,411.450234 647.187454,415.099031 L647.187454,415.799715 C647.187454,416.589551 646.539313,417.232235 645.742485,417.232235 C644.945657,417.232235 644.297516,416.589678 644.297516,415.799715 L644.297516,414.468505 C644.297516,412.206258 642.441103,410.365713 640.159197,410.365713 C637.87729,410.365713 636.020877,412.206131 636.020877,414.468505 C636.020877,416.730752 637.87729,418.57117 640.159197,418.57117 C641.202686,418.57117 642.156504,418.18556 642.88512,417.551487 C643.478334,418.499113 644.537024,419.131666 645.742485,419.131666 C647.595704,419.131666 649.10352,417.636967 649.10352,415.799588 L649.10352,415.098905 C649.10352,410.402691 645.249673,406.582047 640.512647,406.582047 C635.775621,406.582047 631.921774,410.402691 631.921774,415.098905 L631.921774,415.379153 C631.921774,420.075493 635.775621,423.896137 640.512647,423.896137 L640.512647,423.896137 Z M640.159197,416.671612 C638.933809,416.671612 637.936943,415.683335 637.936943,414.468505 C637.936943,413.253674 638.933936,412.265271 640.159197,412.265271 C641.384457,412.265271 642.38145,413.253674 642.38145,414.468505 C642.38145,415.683335 641.384585,416.671612 640.159197,416.671612 Z" id="newsletter"></path>
        </g>
    </g>
</svg>