<?xml version="1.0" encoding="UTF-8"?>
<svg width="77px" height="77px" viewBox="0 0 77 77" version="1.1" xmlns="http://www.w3.org/2000/svg" xmlns:xlink="http://www.w3.org/1999/xlink">
    <!-- Generator: Sketch 43.2 (39069) - http://www.bohemiancoding.com/sketch -->
    <title>no_newsletter</title>
    <desc>Created with Sketch.</desc>
    <defs></defs>
    <g id="Page-1" stroke="none" stroke-width="1" fill="none" fill-rule="evenodd">
        <g id="Desktop-Landscape" transform="translate(-1067.000000, -349.000000)" stroke="#3BC3F2" fill-rule="nonzero" fill="#3BC3F2">
            <path d="M1127.25513,384.461872 L1127.25523,384.461778 L1121.7155,380.8208 L1121.7155,368.650902 C1121.7155,368.257504 1121.39379,367.938568 1120.99698,367.938568 L1090.77199,367.938568 C1090.37518,367.938568 1090.05347,368.257504 1090.05347,368.650902 L1090.05347,380.821655 L1084.5147,384.461778 L1084.51479,384.461967 C1084.32108,384.589523 1084.19318,384.807592 1084.19318,385.055484 L1084.19318,407.115051 C1084.19318,407.508449 1084.51489,407.827385 1084.91171,407.827385 L1126.85822,407.827385 C1127.25504,407.827385 1127.57675,407.508449 1127.57675,407.115051 L1127.57675,385.055484 C1127.57675,384.807592 1127.44885,384.589523 1127.25513,384.461872 L1127.25513,384.461872 Z M1090.05347,386.953048 L1086.10925,385.088727 L1090.05347,382.619301 L1090.05347,386.953048 Z M1085.63023,386.239669 L1102.1539,394.929197 L1085.63023,405.787735 L1085.63023,386.239669 L1085.63023,386.239669 Z M1105.88468,394.186564 L1124.47406,406.402716 L1087.29539,406.402716 L1105.88468,394.186564 L1105.88468,394.186564 Z M1109.61574,394.929292 L1126.1396,386.239669 L1126.1396,405.788114 L1109.61574,394.929292 L1109.61574,394.929292 Z M1121.7155,382.524323 L1125.58021,385.183704 C1125.58021,385.183704 1121.7155,386.953523 1121.7155,386.953523 L1121.7155,382.524323 Z M1120.27845,369.363236 L1120.27845,387.709262 L1108.25255,394.03346 L1106.28159,392.738246 C1106.04103,392.580108 1105.72823,392.580108 1105.48767,392.738246 L1103.51699,394.03327 L1091.49052,387.708787 L1091.49052,369.363236 L1120.27845,369.363236 L1120.27845,369.363236 Z M1105.88449,386.672103 L1111.60912,386.672103 C1112.00593,386.672103 1112.32764,386.353167 1112.32764,385.959769 C1112.32764,385.56637 1112.00593,385.247435 1111.60912,385.247435 L1105.88449,385.247435 C1103.1241,385.247435 1100.87838,383.021058 1100.87838,380.28446 L1100.87838,380.074274 C1100.87838,377.337675 1103.1241,375.111299 1105.88449,375.111299 C1108.64487,375.111299 1110.89059,377.337675 1110.89059,380.074274 L1110.89059,380.599786 C1110.89059,381.192163 1110.40448,381.674176 1109.80686,381.674176 C1109.20924,381.674176 1108.72314,381.192258 1108.72314,380.599786 L1108.72314,379.601379 C1108.72314,377.904693 1107.33083,376.524285 1105.6194,376.524285 C1103.90797,376.524285 1102.51566,377.904598 1102.51566,379.601379 C1102.51566,381.298064 1103.90797,382.678378 1105.6194,382.678378 C1106.40201,382.678378 1107.11738,382.38917 1107.66384,381.913616 C1108.10875,382.624335 1108.90277,383.09875 1109.80686,383.09875 C1111.19678,383.09875 1112.32764,381.977726 1112.32764,380.599691 L1112.32764,380.074179 C1112.32764,376.552018 1109.43725,373.686535 1105.88449,373.686535 C1102.33172,373.686535 1099.44133,376.552018 1099.44133,380.074179 L1099.44133,380.284365 C1099.44133,383.80662 1102.33172,386.672103 1105.88449,386.672103 L1105.88449,386.672103 Z M1105.6194,381.253709 C1104.70036,381.253709 1103.95271,380.512502 1103.95271,379.601379 C1103.95271,378.690256 1104.70045,377.948953 1105.6194,377.948953 C1106.53834,377.948953 1107.28609,378.690256 1107.28609,379.601379 C1107.28609,380.512502 1106.53844,381.253709 1105.6194,381.253709 Z M1105.49453,350 C1095.57182,350 1086.54405,353.881351 1079.83135,360.196149 L1079.62459,360.393176 C1079.2048,360.79473 1078.79372,361.204797 1078.39338,361.624392 L1078.11649,361.901284 C1071.85115,368.614189 1068,377.610541 1068,387.494527 C1068,408.169797 1084.82047,424.989054 1105.49453,424.989054 C1126.16858,424.989054 1142.98905,408.169797 1142.98905,387.494527 C1142.98905,366.819257 1126.16858,350 1105.49453,350 Z M1105.49453,422.57 C1086.15345,422.57 1070.41905,406.834392 1070.41905,387.494527 C1070.41905,380.133996 1071.77917,374.396532 1075.67045,368.75 C1076.65164,367.326229 1133.625,407.954545 1133.625,407.954545 L1135.32955,406.25 L1077.375,366.193182 C1086.75,355.965909 1096.23932,352.419054 1105.49453,352.419054 C1124.83561,352.419054 1140.57,368.154662 1140.57,387.494527 C1140.57,394.78497 1138.33411,401.563239 1134.51197,407.17949 C1128.19487,416.461858 1117.54471,422.57 1105.49453,422.57 Z" id="no_newsletter"></path>
        </g>
    </g>
</svg>