<?xml version="1.0" encoding="UTF-8"?>
<svg width="67px" height="77px" viewBox="0 0 67 77" version="1.1" xmlns="http://www.w3.org/2000/svg" xmlns:xlink="http://www.w3.org/1999/xlink">
    <!-- Generator: Sketch 43.2 (39069) - http://www.bohemiancoding.com/sketch -->
    <title>no_proposte</title>
    <desc>Created with Sketch.</desc>
    <defs></defs>
    <g id="Page-1" stroke="none" stroke-width="1" fill="none" fill-rule="evenodd">
        <g id="Desktop-Landscape" transform="translate(-378.000000, -444.000000)" fill-rule="nonzero" fill="#3BC3F2">
            <path d="M384.36837,499.337574 C385.615702,501.545274 387.696232,503.160592 390.14418,503.821899 C390.957054,504.041729 391.795389,504.153306 392.637464,504.153739 C394.300379,504.152313 395.933607,503.713074 397.37291,502.880191 L402.000733,500.189596 L407.543358,516.548411 C408.662898,519.852673 411.54219,522.249012 414.994801,522.750002 C418.447412,523.250992 421.889054,521.771849 423.901576,518.922064 C425.914097,516.072279 426.156916,512.334124 424.529978,509.247931 L415.615141,492.350997 L419.202601,490.279239 L445.929173,491.660411 C446.600352,491.704154 447.255715,491.444277 447.714521,490.952451 C448.173326,490.460626 448.387104,489.78881 448.296896,489.122284 C445.391399,468.757535 434.765613,450.290053 418.619639,437.543586 C418.09324,437.125811 417.407205,436.96618 416.750444,437.108652 C416.093684,437.251124 415.535461,437.680673 415.229489,438.279015 L402.996253,462.099746 L381.166562,474.655854 C376.605145,477.285859 375.035876,483.113425 377.659821,487.678331 L384.36837,499.337574 Z M403.866212,466.772412 L415.615141,487.176087 L408.386411,491.33754 L396.601606,470.933865 L403.866212,466.772412 Z M420.574804,511.328658 C421.349287,512.913062 421.190354,514.794907 420.161112,516.226976 C419.131871,517.659046 417.398876,518.409597 415.65024,518.180612 C413.901604,517.951628 412.420298,516.780162 411.794497,515.131364 L405.973844,497.902591 L411.731717,494.584191 L420.574804,511.328658 Z M417.955959,442.799214 C431.315636,454.148912 440.316268,469.788263 443.417952,487.041557 L420.009779,485.83079 L407.247392,463.651322 L417.955959,442.799214 Z M383.399756,478.557216 L392.745088,473.176027 L404.494017,493.606608 L395.148685,498.987797 C393.986079,499.653855 392.606117,499.829597 391.313679,499.476196 C390.021242,499.122795 388.922702,498.269338 388.260763,497.104381 L381.552214,485.445138 C380.164306,483.032388 380.990688,479.951506 383.399756,478.557216 L383.399756,478.557216 Z" id="no_proposte" transform="translate(412.353007, 479.952004) rotate(29.000000) translate(-412.353007, -479.952004) "></path>
        </g>
    </g>
</svg>