<?xml version="1.0" encoding="utf-8"?>
<!-- Generator: Adobe Illustrator 21.0.2, SVG Export Plug-In . SVG Version: 6.00 Build 0)  -->
<svg version="1.1" id="Livello_1" xmlns="http://www.w3.org/2000/svg" xmlns:xlink="http://www.w3.org/1999/xlink" x="0px" y="0px"
	 viewBox="0 0 66.3 58" style="enable-background:new 0 0 66.3 58;" xml:space="preserve">
<style type="text/css">
	.st0{fill:#22408E;}
	.st1{fill:#C4932C;}
</style>
<g>
	<g>
		<g>
			<path class="st0" d="M32.3,40.2h3.9c2.1,0,4.3-0.5,5.8-1.9l-0.6,3.1c-0.9,0.1-2,0.2-3.2,0.2h-9.8c0.7-1.1,0.8-2.9,0.8-4.4V24.4
				c0-1.5,0-3.3-0.7-4.4h11.8l0.1,2.6c-1.2-1-3-1.3-5-1.3h-3.1v8.1c2.6,0,5.3,0,7.9-0.2c-1.2,1.9-5,1.9-7.1,1.9h-0.8
				C32.3,31.1,32.3,40.2,32.3,40.2z M48.4,37.1c0,1.5,0,3.3,0.7,4.4h-4.5c0.7-1.1,0.7-2.9,0.7-4.4V24.4c0-1.5,0.1-3.3-0.7-4.4h10.5
				c0.8,0,1.6,0,1.6,0.3v2.6h-0.2c-0.9-1.6-3.1-1.6-4.7-1.6h-3.5V30c2.6,0,5.3,0,7.9-0.2c-1.2,1.9-5,1.9-7.1,1.9h-0.8
				C48.4,31.7,48.4,37.1,48.4,37.1z"/>
			<path class="st1" d="M12.9,18c-0.1,0.2,0,0.5,0.2,0.7c0.2,0.1,0.5,0,0.6-0.2c0,0,0,0,0,0c0.1-0.1,7-13.6,23.7-13.6
				c17.5,0,24.6,14.4,25.2,24.1c0.3,5.2-1.5,11.7-4.8,16.9c-2.8,4.4-8,10-16.4,11.1c-0.3,0-0.5,0.3-0.4,0.6c0,0.3,0.3,0.5,0.5,0.5
				c13.9-1.7,24.6-14,24.6-28.6c0-15.9-12.5-28.8-27.8-28.8h-0.2C27.2,0.6,17.2,7.4,12.9,18L12.9,18z"/>
			<path class="st0" d="M11.9,41.9c3.8,8.8,12.1,14.9,21.6,16c0.3,0,0.5-0.2,0.5-0.4c0-0.3-0.1-0.5-0.4-0.5
				c-8.2-1.1-13.7-6-16.4-10.2c-1.7-2.6-3-5.4-3.8-8.4L19.4,24c0.1-0.3,0.2-0.5,0.4-0.5c0.2,0,0.2,0.4,0.2,0.7v11.2
				c0,1.9,0,4.4-0.6,6.1h5c-0.7-1.3-0.9-2.9-1-4.4c-0.4-4.1-0.3-8.3-0.3-12.3c0-1.7-0.1-3.5,0.7-4.8h-3.4c-0.8,0-1.1,0.7-1.4,1.4
				l-5.8,14.1c-0.2,0.5-0.3,0.8-0.6,0.8c-0.3,0-0.4-0.6-0.5-1.1L7.2,20.5C7.1,20,6.6,20,6.2,20H1.8c0.8,0.5,0.8,1,0.8,1.9v8.4
				c0,3.7-0.1,9-1.4,10.8l-0.3,0.4h4c-0.7-1.1-0.7-3.3-0.7-5.9l0-11c0-0.5,0-1.1,0.3-1.1c0.3,0,0.5,0.8,0.9,1.8L11.9,41.9z"/>
		</g>
	</g>
</g>
</svg>
