<?xml version="1.0" encoding="utf-8"?>
<!-- Generator: Adobe Illustrator 21.0.2, SVG Export Plug-In . SVG Version: 6.00 Build 0)  -->
<svg version="1.1" id="Layer_1" xmlns="http://www.w3.org/2000/svg" xmlns:xlink="http://www.w3.org/1999/xlink" x="0px" y="0px"
	 viewBox="0 0 492.8 492.8" style="enable-background:new 0 0 492.8 492.8;" xml:space="preserve">
<style type="text/css">
	.st0{fill:#003896;}
</style>
<g>
	<g>
		<path class="st0" d="M362,267h47.3c5.6,17.1,21.7,29.4,40.7,29.4c23.6,0,42.8-19.2,42.8-42.8s-19.2-42.8-42.8-42.8
			c-21.4,0-39.2,15.9-42.3,36.5H362c-5.5,0-9.9,4.4-9.9,9.9C352.1,262.5,356.6,267,362,267z M450,230.6c12.7,0,23,10.3,23,23
			s-10.3,23-23,23s-23-10.3-23-23C427,240.9,437.3,230.6,450,230.6z"/>
		<path class="st0" d="M321.8,176.1c1.9,1.9,4.5,2.9,7,2.9s5.1-1,7-2.9l30.8-30.8c7,4.7,15.2,7.2,23.8,7.2
			c11.4,0,22.2-4.5,30.3-12.5c16.7-16.7,16.7-43.9,0-60.6c-8.1-8.1-18.9-12.5-30.3-12.5s-22.2,4.5-30.3,12.5
			c-13.9,13.9-16.2,35.1-6.9,51.4l-31.3,31.3C318,165.9,318,172.1,321.8,176.1z M374.1,93.2c4.4-4.4,10.1-6.7,16.3-6.7
			c6.2,0,11.9,2.4,16.3,6.7c9,9,9,23.6,0,32.6c-4.4,4.4-10.1,6.8-16.3,6.8c-6.2,0-11.9-2.4-16.3-6.8
			C365.1,116.8,365.1,102.2,374.1,93.2z"/>
		<path class="st0" d="M233.3,90.8v47.5c0,5.5,4.4,9.9,9.9,9.9s9.9-4.4,9.9-9.9v-46c20.4-3.2,36.1-20.9,36.1-42.3
			c0-23.6-19.2-42.8-42.8-42.8S203.6,26.4,203.6,50C203.6,69.1,216.1,85.2,233.3,90.8z M246.4,27c12.7,0,23,10.3,23,23
			s-10.3,23-23,23c-12.7,0-23-10.3-23-23S233.7,27,246.4,27z"/>
		<path class="st0" d="M42.8,296.5c18.9,0,35-12.4,40.7-29.4h43.4c5.5,0,9.9-4.4,9.9-9.9c0-5.5-4.4-9.9-9.9-9.9H85.1
			c-3.1-20.6-20.9-36.5-42.3-36.5C19.2,210.8,0,230,0,253.6C-0.1,277.1,19.2,296.5,42.8,296.5z M42.8,230.6c12.7,0,23,10.3,23,23
			s-10.3,23-23,23s-23-10.3-23-23C19.7,240.9,30.1,230.6,42.8,230.6z"/>
		<path class="st0" d="M102.4,152.4c7.7,0,15.1-2.1,21.6-5.9l31.3,31.3c1.9,1.9,4.5,2.9,7,2.9s5.1-1,7-2.9c3.9-3.9,3.9-10.1,0-14
			l-31-31c10.7-16.6,8.9-39-5.7-53.6c-8.1-8.1-18.9-12.5-30.3-12.5S80.1,71.3,72,79.3c-16.7,16.7-16.7,43.9,0,60.6
			C80.2,147.9,91,152.4,102.4,152.4z M86.1,93.2c4.4-4.4,10.1-6.7,16.3-6.7s11.9,2.4,16.3,6.7c9,9,9,23.6,0,32.6
			c-4.4,4.4-10.1,6.8-16.3,6.8c-6.2,0-11.9-2.4-16.3-6.8C77.1,116.8,77.1,102.2,86.1,93.2z"/>
		<path class="st0" d="M192.7,318.9v43c-12.6,6.4-44.9,24-75,48.7c-8.4,6.9-13.2,17.1-13.2,28v37.2c0,5.5,4.4,9.9,9.9,9.9
			s9.9-4.4,9.9-9.9v-37.2c0-4.9,2.2-9.6,6-12.7c32.9-27,68.5-45,75.3-48.3c4.3-2.1,6.9-6.3,6.9-11.1v-52.3c0-3.3-1.7-6.4-4.4-8.2
			c-4.1-2.7-6.5-7.3-6.5-12.1v-54.3c0-21.5,17.5-39,39-39h11.7c21.5,0,39,17.5,39,39v54.3c0,4.9-2.4,9.4-6.5,12.1
			c-2.8,1.8-4.4,4.9-4.4,8.2v52.3c0,4.7,2.7,9,6.9,11.1c6.8,3.3,42.4,21.3,75.3,48.3c3.8,3.1,6,7.7,6,12.7v37.2
			c0,5.5,4.4,9.9,9.9,9.9s9.9-4.4,9.9-9.9v-37.2c0-10.9-4.8-21.1-13.2-28c-30.1-24.8-62.4-42.3-75-48.7v-43
			c6.9-6.4,10.9-15.5,10.9-25.1v-54.3c0-32.4-26.4-58.8-58.8-58.8h-11.7c-32.4,0-58.8,26.4-58.8,58.8v54.3
			C181.8,303.4,185.8,312.5,192.7,318.9z"/>
	</g>
</g>
</svg>
