<svg xmlns="http://www.w3.org/2000/svg" width="79" height="73" viewBox="0 0 79 73">
    <g fill="#FFF" fill-rule="evenodd">
        <path d="M58.82 35.806c-.21-9.86-9.037-17.787-19.622-17.641-10.599.145-19.131 8.235-19.04 18.162.09 9.884 8.848 17.917 19.46 17.853 6.65-.04 12.502-3.207 15.949-8.003.458-.637.283-1.498-.398-1.929-.683-.432-1.614-.264-2.073.375-3.043 4.237-8.304 6.98-14.223 6.777-8.448-.291-15.325-6.631-15.723-14.497-.455-8.974 7.479-16.368 17.113-15.953 8.591.37 15.461 6.988 15.584 14.999.02 1.313-.139 2.59-.456 3.81-.16.614.14 1.25.736 1.55.853.43 1.924 0 2.152-.879.385-1.478.574-3.028.54-4.624zM39.48.162c.821 0 1.487.62 1.487 1.385V12.63c0 .765-.666 1.385-1.487 1.385-.822 0-1.487-.62-1.487-1.385V1.547c0-.765.665-1.385 1.487-1.385M39.48 58.343c.821 0 1.487.62 1.487 1.385v11.083c0 .765-.666 1.385-1.487 1.385-.822 0-1.487-.62-1.487-1.385V59.728c0-.765.665-1.385 1.487-1.385M2.31 34.794h11.888c.821 0 1.487.62 1.487 1.385s-.666 1.385-1.487 1.385H2.31c-.82 0-1.487-.62-1.487-1.385s.666-1.385 1.487-1.385M64.762 34.794H76.67c.82 0 1.487.62 1.487 1.385s-.666 1.385-1.487 1.385H64.762c-.822 0-1.487-.62-1.487-1.385s.665-1.385 1.487-1.385M55.869 20.9a1.319 1.319 0 0 1 0-1.959l8.843-8.237c.581-.54 1.522-.54 2.103 0 .58.541.58 1.418 0 1.959L57.972 20.9c-.58.54-1.522.54-2.103 0M23.083 51.446c.58.541.58 1.418 0 1.96l-8.846 8.236c-.58.54-1.522.54-2.102 0a1.319 1.319 0 0 1 0-1.96l8.845-8.236c.58-.541 1.522-.54 2.103 0M20.982 20.907l-8.843-8.237a1.319 1.319 0 0 1 0-1.959c.58-.54 1.522-.54 2.102 0l8.844 8.237a1.32 1.32 0 0 1 0 1.96c-.581.54-1.523.54-2.103 0M66.816 59.688c.58.54.58 1.417 0 1.958a1.565 1.565 0 0 1-2.103 0l-8.845-8.236a1.319 1.319 0 0 1 0-1.959 1.565 1.565 0 0 1 2.103 0l8.845 8.237z"/>
    </g>
</svg>
