<svg xmlns="http://www.w3.org/2000/svg" width="79" height="66" viewBox="0 0 79 66">
    <g fill="#FFF" fill-rule="evenodd">
        <path d="M26.647.757c.714 0 1.293.54 1.293 1.204v7.194c0 .665-.579 1.204-1.293 1.204s-1.293-.54-1.293-1.204V1.96c0-.665.579-1.204 1.293-1.204M2.116 23.623H9.84c.714 0 1.293.54 1.293 1.204 0 .666-.58 1.205-1.293 1.205H2.116c-.714 0-1.292-.54-1.292-1.204 0-.666.578-1.205 1.292-1.205M13.905 14.712L8.444 9.624a1.147 1.147 0 0 1 0-1.703 1.361 1.361 0 0 1 1.828 0l5.462 5.088c.505.47.505 1.233 0 1.703s-1.324.47-1.829 0M37.562 14.716a1.147 1.147 0 0 1 0-1.703l5.46-5.086a1.36 1.36 0 0 1 1.828 0c.505.47.505 1.233 0 1.703l-5.46 5.086c-.504.47-1.323.47-1.828 0"/>
        <path d="M26.64 15.246c3.996 0 7.446 2.136 9.168 5.232-2.971 1.734-5.402 4.201-7 7.128-.311-.02-.62-.044-.936-.044-3.576 0-6.83 1.255-9.31 3.304-1.411-1.647-2.266-3.722-2.266-5.987 0-5.311 4.64-9.633 10.343-9.633M44.784 51.34l.006-.008H28.58l-.767-.004c-6.29-.03-11.407-4.819-11.407-10.677 0-5.889 5.143-10.68 11.465-10.68.194 0 .386.014.578.026l.192.013 1.7.102.771-1.414c2.876-5.266 8.59-8.538 14.91-8.538 7.331 0 13.81 4.534 15.959 10.955.169.505.672.847 1.24.847.88 0 1.503-.797 1.24-1.58-2.45-7.317-9.776-12.63-18.438-12.63-2.825 0-5.505.565-7.92 1.581-2.217-3.965-6.719-6.643-11.887-6.49-6.648.199-12.099 5.141-12.485 11.327-.202 3.24.99 6.206 3.046 8.469-1.847 2.215-2.957 4.99-2.957 8.012 0 7.206 6.253 13.05 13.98 13.085v.004h16.983v.008c2.85 0 5.171 2.16 5.171 4.818 0 2.327-1.78 4.273-4.137 4.72-.602.114-1.034.607-1.034 1.18 0 .754.737 1.333 1.532 1.185 3.551-.662 6.225-3.582 6.225-7.085 0-3.99-3.472-7.226-7.757-7.226"/>
        <path d="M49.853 46.522H38.334c-.714 0-1.293.54-1.293 1.205s.579 1.204 1.293 1.204h11.494c4.255 0 7.814-3.142 7.884-7.104.063-3.553-2.626-6.53-6.212-7.205-.8-.15-1.545.424-1.545 1.183 0 .57.43 1.065 1.03 1.178 2.331.44 4.099 2.347 4.141 4.638.05 2.695-2.38 4.901-5.273 4.901M60.299 47.721c0 .667.583 1.205 1.299 1.199l5.653-.049c.106 0 .212-.006.317-.018 3.187-.371 5.66-2.874 5.66-5.944 0-2.802-2.053-5.156-4.836-5.829-.823-.199-1.628.373-1.628 1.165 0 .55.4 1.028.972 1.166 1.65.398 2.876 1.784 2.906 3.436.037 2.021-1.796 3.675-3.966 3.675h-5.09c-.71 0-1.287.537-1.287 1.2M71.935 51.34H56.42c-.714 0-1.293.539-1.293 1.204 0 .665.579 1.204 1.293 1.204h10.372c-.004.005-.01.01-.013.016h4.993c.056-.003.108-.016.163-.016 2.14 0 3.879 1.621 3.879 3.614 0 1.68-1.239 3.097-2.91 3.499-.564.135-.969.592-.969 1.134v.06c0 .758.76 1.335 1.55 1.154 2.822-.646 4.915-3.019 4.915-5.847 0-3.327-2.894-6.022-6.465-6.022M30.561 46.522h2.586c.714 0 1.293.54 1.293 1.205s-.579 1.204-1.293 1.204h-2.586c-.714 0-1.293-.539-1.293-1.204 0-.666.58-1.205 1.293-1.205"/>
    </g>
</svg>
