<svg xmlns="http://www.w3.org/2000/svg" width="36" height="29" viewBox="0 0 36 29">
    <g fill="#EBC028" fill-rule="evenodd">
        <path d="M14.167 13.624c-.552 0-.999-.404-.999-.903s.447-.902.999-.902h14.786c2.75 0 4.99-2.045 4.99-4.558 0-2.515-2.24-4.56-4.99-4.56-.552 0-.998-.403-.998-.902 0-.498.446-.902.998-.902 3.852 0 6.986 2.854 6.986 6.364 0 3.509-3.134 6.363-6.986 6.363H14.167zM1.668 17.417c-.55 0-.996-.273-.996-.608 0-.336.446-.608.996-.608h26.264c.55 0 .996.272.996.608 0 .335-.446.608-.996.608H1.668zM27.244 27.996c0-.497.442-.9.987-.9 1.66 0 2.958-1.166 2.958-2.654 0-1.49-1.299-2.655-2.958-2.655H8.6c-.545 0-.986-.403-.986-.9s.441-.9.986-.9h19.63c2.718 0 4.93 1.998 4.93 4.455 0 2.456-2.212 4.455-4.93 4.455-.545 0-.987-.403-.987-.9z"/>
    </g>
</svg>
