<svg xmlns="http://www.w3.org/2000/svg" width="20" height="28" viewBox="0 0 20 28">
    <path fill="#EBC028" fill-rule="evenodd" d="M19.082 17.66a.884.884 0 0 1-.905-.71 8.146 8.146 0 0 0-.263-1.025C16.42 11.069 11.849 5.031 10.077 2.8c-1.773 2.231-6.345 8.269-7.791 13.038a7.127 7.127 0 0 0-.42 1.924c0 .219-.047.438-.047.613 0 4.375 3.686 7.918 8.258 7.918 3.925 0 7.196-2.611 8.043-6.119.115-.474.62-.767 1.116-.628l.022.006c.461.13.74.569.633 1.004C18.851 24.808 14.842 28 10.077 28 4.525 28 0 23.668 0 18.375c0-.219 0-.481.047-.744.046-.787.233-1.575.466-2.275C2.38 9.1 9.05 1.18 9.33.875L10.077 0l.7.831c.28.35 6.95 8.269 8.863 14.525.139.415.26.861.346 1.32.095.502-.309.967-.852.982l-.052.001z"/>
</svg>
