<svg xmlns="http://www.w3.org/2000/svg" width="31" height="28" viewBox="0 0 31 28">
    <path fill="#EBC028" fill-rule="evenodd" d="M22.472 5.563c2.964 1.837 5.09 4.752 5.727 8.13-.756-.393-1.56-.568-2.412-.568-1.325 0-2.603.482-3.549 1.313-.946-.831-2.224-1.313-3.549-1.313-1.324 0-2.602.482-3.548 1.313-.947-.831-2.224-1.313-3.549-1.313-1.325 0-2.602.482-3.548 1.313-.947-.831-2.224-1.313-3.55-1.313-.85 0-1.655.175-2.412.569C3.17 7.919 8.612 3.5 15.14 3.5a14.1 14.1 0 0 1 4.273.658.97.97 0 0 0 1.106-.385c.301-.472.064-1.09-.497-1.266a16.085 16.085 0 0 0-3.936-.713V.928a.932.932 0 0 0-.784-.916c-.591-.091-1.109.333-1.109.863v.919C6.293 2.231 0 8.313 0 15.75c0 .307.19.569.426.744h.047c.047.043.095.043.19.088.047 0 .047 0 .094.043h.237a.72.72 0 0 0 .33-.088c.048 0 .095-.043.143-.087a.548.548 0 0 0 .236-.219 3.614 3.614 0 0 1 2.792-1.356c1.088 0 2.13.525 2.744 1.356l.284.263c.426.262 1.041.175 1.325-.219.615-.875 1.656-1.356 2.744-1.356 1.041 0 1.987.437 2.602 1.18v9.202c0 1.273.947 2.418 2.299 2.652 1.767.306 3.328-.93 3.378-2.5a.91.91 0 0 0-.708-.926c-.616-.14-1.172.287-1.183.832a.925.925 0 0 1-.795.88c-.587.086-1.098-.336-1.098-.864v-9.318c.615-.744 1.561-1.182 2.602-1.182 1.089 0 2.13.525 2.745 1.356l.284.263s.047 0 .047.043c.047 0 .094.045.142.045a.931.931 0 0 0 .331.087c.283 0 .615-.132.804-.394.615-.875 1.656-1.356 2.745-1.356 1.088 0 2.129.525 2.744 1.356.047.044.094.132.141.175.19.087.427.175.663.175.52 0 .946-.394.946-.875 0-4.859-2.686-9.14-6.752-11.645-.425-.262-.999-.167-1.3.215-.316.403-.204.966.243 1.243"/>
</svg>
