<svg xmlns="http://www.w3.org/2000/svg" width="103" height="73" viewBox="0 0 103 73">
    <g fill="#FFF" fill-rule="evenodd">
        <path d="M83.469 70.666c0 .905.79 1.638 1.765 1.635l1.563-.004c.073.002.144.01.218.01 8.808 0 15.95-6.637 15.95-14.829 0-7.875-6.61-14.296-14.949-14.78C85.473 31.66 74.926 23.38 62.294 23.38c-3.848 0-7.5.77-10.792 2.15-3.018-5.393-9.157-9.035-16.202-8.821-9.054.275-16.472 6.996-16.993 15.404-.273 4.403 1.348 8.433 4.15 11.507-2.515 3.012-4.029 6.784-4.029 10.893 0 9.797 8.517 17.742 19.043 17.79v.005h40.184c.972 0 1.76-.733 1.76-1.636v-.006c0-.903-.788-1.635-1.76-1.635l-39.12.002-1.046-.005c-8.567-.038-15.538-6.55-15.538-14.515 0-8.006 7.005-14.52 15.617-14.52.265 0 .526.02.788.035l.261.018 2.315.14 1.053-1.923c3.916-7.16 11.699-11.608 20.309-11.608 10.675 0 20.043 7.037 22.28 16.732l.558 2.427 2.666.155c6.53.38 11.646 5.435 11.646 11.51 0 6.349-5.537 11.517-12.358 11.554l-1.857-.001c-.972 0-1.76.732-1.76 1.635m-47.58-50.693c5.446 0 10.144 2.904 12.49 7.114-4.048 2.358-7.357 5.711-9.535 9.69-.425-.026-.846-.06-1.276-.06-4.871 0-9.301 1.705-12.68 4.491-1.924-2.236-3.088-5.059-3.088-8.138 0-7.22 6.32-13.097 14.09-13.097M35.9.276c.973 0 1.76.733 1.76 1.637v9.78c0 .904-.787 1.637-1.76 1.637s-1.762-.733-1.762-1.638v-9.78c0-.903.789-1.636 1.761-1.636M2.485 31.363h10.52c.972 0 1.76.732 1.76 1.637 0 .904-.788 1.637-1.76 1.637H2.485c-.973 0-1.761-.733-1.761-1.637 0-.905.788-1.637 1.761-1.637M18.544 19.247l-7.44-6.917a1.557 1.557 0 0 1 0-2.315 1.857 1.857 0 0 1 2.49 0l7.44 6.917c.688.639.688 1.676 0 2.315-.687.64-1.802.64-2.49 0"/>
        <path d="M50.771 19.252a1.557 1.557 0 0 1 0-2.315l7.437-6.914a1.856 1.856 0 0 1 2.49 0c.688.639.688 1.676 0 2.315l-7.437 6.914c-.687.639-1.802.639-2.49 0"/>
    </g>
</svg>
