<svg xmlns="http://www.w3.org/2000/svg" width="79" height="68" viewBox="0 0 79 68">
    <g fill="#FFF" fill-rule="evenodd">
        <path d="M37.176.507c.866 0 1.568.575 1.568 1.284v10.274c0 .71-.702 1.285-1.568 1.285-.866 0-1.568-.575-1.568-1.285V1.791c0-.71.702-1.284 1.568-1.284M2.229 32.727H13.46c.776 0 1.405.516 1.405 1.154 0 .637-.629 1.154-1.405 1.154H2.229c-.776 0-1.405-.517-1.405-1.154 0-.638.629-1.154 1.405-1.154M52.433 19.278a1.199 1.199 0 0 1 0-1.78l8.036-7.485a1.422 1.422 0 0 1 1.911 0 1.199 1.199 0 0 1 0 1.78l-8.036 7.485a1.423 1.423 0 0 1-1.91 0M19.167 19.278l-8.035-7.485a1.199 1.199 0 0 1 0-1.78 1.423 1.423 0 0 1 1.91 0l8.037 7.485a1.199 1.199 0 0 1 0 1.78 1.423 1.423 0 0 1-1.912 0M42.063 52.012H10.488c-.758 0-1.373.577-1.373 1.289 0 .711.615 1.288 1.373 1.288h31.474c2.836 0 5.403 2.167 5.581 4.824.177 2.636-1.77 4.885-4.386 5.384-.638.121-1.094.65-1.094 1.261 0 .807.784 1.427 1.627 1.268 3.77-.708 6.61-3.833 6.61-7.582 0-4.27-3.687-7.732-8.237-7.732M58.646 47.697c0 .692.63 1.107 1.406 1.107l6.09.08c.152.002.302-.002.452-.02 3.436-.407 6.094-3 6.094-6.175 0-2.94-2.273-5.408-5.338-6.08-.859-.188-1.683.411-1.683 1.2v.062c0 .564.44 1.04 1.052 1.18 1.815.417 3.16 1.89 3.16 3.638 0 2.072-1.889 3.757-4.212 3.757l-5.619-.003c-.775.002-1.402.563-1.402 1.254M71.587 51.962h-16.52c-.761 0-1.377.593-1.377 1.324 0 .73.616 1.323 1.376 1.323H66.11a.05.05 0 0 0-.014.017l5.49-.017c2.279 0 4.131 1.781 4.131 3.97 0 1.848-1.319 3.405-3.099 3.846-.6.149-1.031.65-1.031 1.246v.066c0 .834.808 1.468 1.65 1.269 3.005-.71 5.234-3.318 5.234-6.426 0-3.656-3.081-6.618-6.884-6.618M25.298 47.07h-14.83c-.764 0-1.384.578-1.384 1.292 0 .714.62 1.292 1.385 1.292h37.259c4.441 0 8.2-3.205 8.428-7.344.217-3.935-2.709-7.269-6.643-8.01-.856-.161-1.654.455-1.654 1.27 0 .612.46 1.142 1.103 1.264 2.638.5 4.603 2.755 4.425 5.399-.18 2.664-2.769 4.837-5.63 4.837H30.496c-5.194-2.212-8.84-7.058-8.937-12.704-.132-7.767 6.55-14.259 14.871-14.44 7.243-.156 13.378 4.434 15.1 10.662.158.572.705.973 1.338.973.897 0 1.563-.788 1.341-1.6-1.989-7.255-9.024-12.623-17.418-12.623-9.943 0-18.003 7.52-18.003 16.8 0 5.202 2.534 9.85 6.511 12.932"/>
    </g>
</svg>
